<?xml version="1.0" encoding="UTF-8" standalone="no"?>
<!-- Created with Inkscape (http://www.inkscape.org/) -->

<svg
   xmlns:dc="http://purl.org/dc/elements/1.1/"
   xmlns:cc="http://creativecommons.org/ns#"
   xmlns:rdf="http://www.w3.org/1999/02/22-rdf-syntax-ns#"
   xmlns:svg="http://www.w3.org/2000/svg"
   xmlns="http://www.w3.org/2000/svg"
   xmlns:sodipodi="http://sodipodi.sourceforge.net/DTD/sodipodi-0.dtd"
   xmlns:inkscape="http://www.inkscape.org/namespaces/inkscape"
   version="1.1"
   id="svg4596"
   xml:space="preserve"
   width="172.54666"
   height="338.39734"
   viewBox="0 0 172.54667 338.39734"
   sodipodi:docname="emblum.svg"
   inkscape:version="0.92.2 5c3e80d, 2017-08-06"><metadata
     id="metadata4602"><rdf:RDF><cc:Work
         rdf:about=""><dc:format>image/svg+xml</dc:format><dc:type
           rdf:resource="http://purl.org/dc/dcmitype/StillImage" /><dc:title></dc:title></cc:Work></rdf:RDF></metadata><defs
     id="defs4600" /><sodipodi:namedview
     pagecolor="#ffffff"
     bordercolor="#666666"
     borderopacity="1"
     objecttolerance="10"
     gridtolerance="10"
     guidetolerance="10"
     inkscape:pageopacity="0"
     inkscape:pageshadow="2"
     inkscape:window-width="1920"
     inkscape:window-height="1080"
     id="namedview4598"
     showgrid="false"
     inkscape:zoom="0.85961538"
     inkscape:cx="379.66637"
     inkscape:cy="-71.652966"
     inkscape:window-x="1920"
     inkscape:window-y="0"
     inkscape:window-maximized="1"
     inkscape:current-layer="g4604"
     fit-margin-top="0"
     fit-margin-left="0"
     fit-margin-right="0"
     fit-margin-bottom="0" /><g
     id="g4604"
     inkscape:groupmode="layer"
     inkscape:label="CaSILE Emblum"
     transform="matrix(1.3333333,0,0,-1.3333333,-351.00026,930.05024)"><g
       id="g4618"
       transform="translate(342.2332,560.5817)"><path
         d="m 0,0 c 0,-3.269 -1.787,-6.006 -4.032,-6.006 h -20.492 c -2.241,0 -4.044,2.737 -4.044,6.006 v 25.656 c 0,11.305 6.289,20.422 14.057,20.422 h 0.47 C -6.278,46.078 0,36.961 0,25.656 Z M 29.415,46.921 42.97,78.509 h 7.457 v 58.447 H 39.625 v -18.672 h -11.51 v 18.672 H 15.551 V 118.284 H 4.041 v 18.672 H -8.523 v -18.672 h -11.51 v 18.672 h -12.564 v -18.672 h -11.51 v 18.672 h -12.564 v -18.672 h -11.51 v 18.672 H -78.983 V 78.509 h 7.456 l 13.555,-31.588 c 0.551,-1.252 0.832,-2.714 0.832,-4.223 v -90.332 c 0,-2.807 -1.02,-5.386 -2.683,-6.848 l -10.527,-9.211 c -1.647,-1.439 -2.635,-4.041 -2.635,-6.854 v -38.412 c 0,-4.409 2.386,-7.883 5.43,-7.883 H 39.003 c 3.028,0 5.425,3.474 5.425,7.883 v 38.412 c 0,2.813 -0.971,5.415 -2.634,6.854 l -10.559,9.211 c -1.647,1.438 -2.651,4.041 -2.651,6.848 v 90.332 c 0,1.509 0.281,2.971 0.831,4.223"
         style="fill:#231f20;fill-opacity:1;fill-rule:nonzero;stroke:none"
         id="path4620"
         inkscape:connector-curvature="0" /></g></g></svg>