<?xml version="1.0" encoding="UTF-8" standalone="no"?>
<!-- Created with Inkscape (http://www.inkscape.org/) -->

<svg
   xmlns:dc="http://purl.org/dc/elements/1.1/"
   xmlns:cc="http://creativecommons.org/ns#"
   xmlns:rdf="http://www.w3.org/1999/02/22-rdf-syntax-ns#"
   xmlns:svg="http://www.w3.org/2000/svg"
   xmlns="http://www.w3.org/2000/svg"
   xmlns:sodipodi="http://sodipodi.sourceforge.net/DTD/sodipodi-0.dtd"
   xmlns:inkscape="http://www.inkscape.org/namespaces/inkscape"
   version="1.1"
   id="svg4596"
   xml:space="preserve"
   width="422.53598"
   height="338.39734"
   viewBox="0 0 422.53599 338.39734"
   sodipodi:docname="logo.svg"
   inkscape:version="0.92.2 5c3e80d, 2017-08-06"><metadata
     id="metadata4602"><rdf:RDF><cc:Work
         rdf:about=""><dc:format>image/svg+xml</dc:format><dc:type
           rdf:resource="http://purl.org/dc/dcmitype/StillImage" /><dc:title></dc:title></cc:Work></rdf:RDF></metadata><defs
     id="defs4600" /><sodipodi:namedview
     pagecolor="#ffffff"
     bordercolor="#666666"
     borderopacity="1"
     objecttolerance="10"
     gridtolerance="10"
     guidetolerance="10"
     inkscape:pageopacity="0"
     inkscape:pageshadow="2"
     inkscape:window-width="1920"
     inkscape:window-height="1080"
     id="namedview4598"
     showgrid="false"
     inkscape:zoom="0.85961538"
     inkscape:cx="-28.955872"
     inkscape:cy="398.32427"
     inkscape:window-x="1920"
     inkscape:window-y="0"
     inkscape:window-maximized="1"
     inkscape:current-layer="g4604"
     fit-margin-top="0"
     fit-margin-left="0"
     fit-margin-right="0"
     fit-margin-bottom="0" /><g
     id="g4604"
     inkscape:groupmode="layer"
     inkscape:label="CaSILE Logo"
     transform="matrix(1.3333333,0,0,-1.3333333,-519.39879,460.07306)"><g
       id="g4636"
       transform="translate(689.3361,255.0198)"><path
         d="m 0,0 11.041,31.589 h 6.074 V 90.035 H 8.316 V 71.363 H -1.059 V 90.035 H -11.293 V 71.363 h -9.376 V 90.035 H -30.903 V 71.363 h -9.375 V 90.035 H -50.513 V 71.363 h -9.375 V 90.035 H -70.122 V 71.363 h -9.375 v 18.672 h -8.799 V 31.589 h 6.074 l 4.896,-14.008 h -128.02 l 4.896,14.008 h 6.074 v 58.446 h -8.799 V 71.363 h -9.375 v 18.672 h -10.234 V 71.363 h -9.376 v 18.672 h -10.234 V 71.363 h -9.375 v 18.672 h -10.234 V 71.363 h -9.376 v 18.672 h -10.234 V 71.363 h -9.375 v 18.672 h -8.799 V 31.589 h 6.074 L -282.672,0 c 0.448,-1.252 0.677,-2.714 0.677,-4.222 v -90.333 c 0,-2.807 -0.831,-5.386 -2.185,-6.848 l -8.575,-9.211 c -1.341,-1.438 -2.146,-4.041 -2.146,-6.854 v -38.411 c 0,-4.41 1.943,-7.884 4.423,-7.884 h 27.544 49.602 v 97.348 c 39.762,39.763 104.23,39.763 143.992,0 v -97.348 h 55.394 21.755 c 2.467,0 4.42,3.474 4.42,7.884 v 38.411 c 0,2.813 -0.792,5.416 -2.146,6.854 l -8.601,9.211 c -1.341,1.439 -2.159,4.041 -2.159,6.848 v 90.333 c 0,1.508 0.229,2.97 0.677,4.222"
         style="fill:#231f20;fill-opacity:1;fill-rule:nonzero;stroke:none"
         id="path4638"
         inkscape:connector-curvature="0" /></g></g></svg>