<?xml version="1.0" encoding="UTF-8" standalone="no"?>
<svg
   xmlns:dc="http://purl.org/dc/elements/1.1/"
   xmlns:cc="http://creativecommons.org/ns#"
   xmlns:rdf="http://www.w3.org/1999/02/22-rdf-syntax-ns#"
   xmlns:svg="http://www.w3.org/2000/svg"
   xmlns="http://www.w3.org/2000/svg"
   id="svg3355"
   version="1.1"
   viewBox="0 0 381 240"
   height="240pt"
   width="381pt">
  <metadata
     id="metadata3424">
    <rdf:RDF>
      <cc:Work
         rdf:about="">
        <dc:format>image/svg+xml</dc:format>
        <dc:type
           rdf:resource="http://purl.org/dc/dcmitype/StillImage" />
        <dc:title></dc:title>
      </cc:Work>
    </rdf:RDF>
  </metadata>
  <defs
     id="defs3422" />
  <path
     style="fill:#1c1c19;fill-opacity:1;fill-rule:nonzero;stroke:none"
     d="M 321.67969,83.371094 C 319.73047,72.1875 292.92187,24.082031 292.92187,24.082031 l -2.48046,3.375 -3.01954,-7.277343 -11.00781,14.910156 18.28516,31.953125 c 0,0 -24.67188,-0.769531 -32.30469,-0.949219 -7.63672,-0.175781 -14.07031,7.871094 -11.58594,12.484375 8.875,-0.53125 61.64453,3.730469 70.8711,4.792969"
     id="path3358" />
  <path
     style="fill:#1c1c19;fill-opacity:1;fill-rule:nonzero;stroke:none"
     d="M 365.76172,183.61719 354.99609,147.58594 342.875,147.88672 C 332.19922,109 322.03516,85.214844 322.03516,85.214844 c 0,0 -53.64844,-5.152344 -72.53907,-5.582032 2.14844,6.4375 6.44141,8.585938 9.875,9.441407 3.4336,0.859375 37.33985,6.871093 54.51172,9.875 4.73828,10.156251 11.8125,29.496091 18.64844,49.195311 l -0.004,0 c 0,0 3.56641,11.10156 4.41407,35.47266 16.21093,6.04687 17.84765,24.01562 17.84765,24.01562 0.19531,0.91406 0.98828,1.67578 1.875,1.89063 l -4.2539,-20.27735 c -0.98829,-0.22265 -1.86719,-1.0625 -2.07813,-2.07031 -0.25,-1.17969 0.50781,-2.13672 1.69141,-2.13672 1.17578,0 2.33203,0.95703 2.58203,2.13672 0.21094,1.00781 -0.32031,1.84766 -1.21094,2.07031 l 4.25391,20.26953 c 0.78906,-0.22265 1.24609,-0.97656 1.05468,-1.88281 0,-0.004 -0.004,-0.008 -0.004,-0.0156 -4.26563,-18.66797 7.0625,-24 7.0625,-24"
     id="path3360" />
  <path
     style="fill:#1c1c19;fill-opacity:1;fill-rule:nonzero;stroke:none"
     d="m 284.69531,1.089844 c 0,0 26.14844,53.347656 40.10156,82.28125 2.85157,0.261718 18.00782,1.242187 40.08985,8.273437 0.3164,-8.628906 -6.58594,-9.570312 -6.58594,-9.570312 L 338.38281,77.527344 314.22656,24.042969 Z m 0,0"
     id="path3362" />
  <path
     style="fill:#6e6e6e;fill-opacity:1;fill-rule:nonzero;stroke:none"
     d="m 367.10547,107.96484 0,-14.164059 c 0,0 -18.88672,-6.441406 -40.34766,-8.15625 1.65235,4.03125 7.78125,28.785159 15.02344,53.722659 0.96484,3.3164 1.90234,6.75 2.81641,10.22265 1.58984,6.51953 7.14453,29.66016 7.42578,35.44922 1.17578,0 2.33203,0.95703 2.57812,2.13672 0.21485,1.00781 -0.3125,1.85156 -1.21094,2.07031 l 4.25782,20.26953 c 0.78515,-0.22265 1.24609,-0.97656 1.05468,-1.88281 0,-0.004 0,-0.008 0,-0.0156 -4.27343,-18.66797 7.05469,-24 7.05469,-24 l -11.01953,-37.63672 c -3.72266,-23.16797 -7.80859,-38.875 -7.80859,-38.875 z m 0,0"
     id="path3364" />
  <path
     style="fill:#6e6e6e;fill-opacity:1;fill-rule:nonzero;stroke:none"
     d="m 257.42187,83.371094 c -6.21484,2.664062 -4.4375,8.167968 -4.4375,8.167968 l 73.77344,8.957028 -6.49609,-13.667965 c 0,0 -56.625,-6.117187 -62.83985,-3.457031"
     id="path3366" />
  <path
     style="fill:#6e6e6e;fill-opacity:1;fill-rule:nonzero;stroke:none"
     d="M 317.08984,82.90625 C 315.44922,73.921875 290.44141,27.457031 290.44141,27.457031 l -3.01954,-7.277343 -11.00781,14.910156 27.16406,46.257812 c 0,0 8.77344,1.128906 13.51172,1.558594"
     id="path3368" />
  <path
     style="fill:#ffffff;fill-opacity:1;fill-rule:nonzero;stroke:none"
     d="m 284.69531,1.089844 c 54.61719,81.613281 68.06641,184.082026 68.06641,184.082026 l -0.74219,-0.13281 C 332.52734,97.402344 292.92578,24.085938 292.92578,24.085938 Z m 0,0"
     id="path3370" />
  <path
     style="fill:#ffffff;fill-opacity:1;fill-rule:nonzero;stroke:none"
     d="m 249.49609,79.632812 c 0,0 80.81641,4.285157 117.60938,14.167969 0.19531,-2.085937 -2.21875,-2.160156 -2.21875,-2.160156 0,0 -29.05469,-12.375 -115.39063,-12.007813"
     id="path3372" />
  <path
     style="fill:#1c1c19;fill-opacity:1;fill-rule:nonzero;stroke:none"
     d="m 61.601562,81.597656 0,2.042969 c -0.332031,0 -0.632812,0.03125 -0.90625,0.08984 -2.136718,0.238281 -3.671874,0.742187 -4.605468,1.511719 -1.152344,0.949218 -2.300782,2.902343 -3.453125,5.871093 l -19.320313,49.437503 -2.957031,0 L 9.96875,88.976562 c -0.765625,-1.957031 -1.753906,-3.289062 -2.960938,-4 -0.933593,-0.59375 -2.496093,-1.007812 -4.683593,-1.246093 -0.277344,-0.05859 -0.578125,-0.08984 -0.90625,-0.08984 l 0,-2.042969 L 2.5625,81.6836 C 6.382812,81.980469 9,82.128906 10.421875,82.128906 l 7.445313,0 c 1.417968,0 4.039062,-0.148437 7.859374,-0.445312 l 1.144532,-0.08594 0,2.042969 c -0.328125,0 -0.628906,0.03125 -0.902344,0.08984 -3.230469,0.355469 -4.847656,2.132812 -4.847656,5.335937 0,1.007813 0.21875,2.105469 0.65625,3.289063 L 34.011719,123.83594 46.984375,90.753906 c 0.4375,-1.066406 0.660156,-2.011718 0.660156,-2.84375 0,-2.371094 -1.886719,-3.765625 -5.65625,-4.179687 -0.277343,-0.05859 -0.582031,-0.08984 -0.914062,-0.08984 l 0,-2.042969 1.144531,0.08594 c 3.816406,0.296875 5.941406,0.445312 6.378906,0.445312 l 5.476563,0 c 0.4375,0 2.5625,-0.148437 6.382812,-0.445312 z m 0,0"
     id="path3374" />
  <path
     style="fill:#1c1c19;fill-opacity:1;fill-rule:nonzero;stroke:none"
     d="m 86.9375,137.79687 -1.148438,-0.0898 c -3.835937,-0.29687 -5.96875,-0.44531 -6.40625,-0.44531 l -7.226562,0 c -0.4375,0 -2.570312,0.14844 -6.402344,0.44531 l -1.148437,0.0898 0.08203,-2.04687 c 4.15625,0 6.238281,-1.77734 6.238281,-5.33203 l 0,-41.441408 c 0,-3.554687 -2.082031,-5.335937 -6.238281,-5.335937 l -0.08203,-2.042969 1.148437,0.08984 c 3.832032,0.296875 5.964844,0.441406 6.402344,0.441406 l 7.226562,0 c 0.4375,0 2.570313,-0.144531 6.40625,-0.441406 l 1.148438,-0.08984 -0.08594,2.042969 c -4.15625,0 -6.238281,1.78125 -6.238281,5.335937 l 0,41.441408 c 0,3.55469 2.082031,5.33203 6.238281,5.33203 z m 0,0"
     id="path3376" />
  <path
     style="fill:#1c1c19;fill-opacity:1;fill-rule:nonzero;stroke:none"
     d="m 130.14062,116.45313 c -0.60546,-8.59375 -1.86328,-15.38282 -3.77734,-20.363286 -1.64453,-4.148438 -4.02344,-7.558594 -7.14453,-10.226563 -3.17578,2.609375 -5.55469,6.019531 -7.14453,10.226563 -1.91406,4.921876 -3.17188,11.710936 -3.77344,20.363286 z m 17.23829,21.34374 -1.14844,-0.0898 c -3.83203,-0.29687 -5.96485,-0.44531 -6.40235,-0.44531 l -8.04687,0 c -0.4375,0 -2.57422,0.14844 -6.40625,0.44531 l -1.14844,0.0898 0.082,-2.04687 c 4.16016,0 6.24219,-1.77734 6.24219,-5.33203 l 0,-0.35938 c 0,-2.30859 -0.0547,-5.30468 -0.16406,-8.98046 l -22.33203,0 c -0.11328,3.67578 -0.16797,6.67187 -0.16797,8.98046 l 0,0.35938 c 0,3.55469 2.08203,5.33203 6.24219,5.33203 l 0.082,2.04687 -1.15235,-0.0898 c -3.82812,-0.29687 -5.96484,-0.44531 -6.40234,-0.44531 l -8.046875,0 c -0.4375,0 -2.570313,0.14844 -6.402344,0.44531 l -1.148437,0.0898 0.08203,-2.04687 c 4.15625,0 6.238281,-1.77734 6.238281,-5.33203 l 0,-0.625 c 0,-11.08594 1.804688,-20.92578 5.417975,-29.52344 3.77734,-9.187499 9.25,-16.093749 16.42187,-20.718749 7.17188,4.625 12.66797,11.53125 16.50391,20.718749 3.55859,8.59766 5.33593,18.4375 5.33593,29.52344 l 0,0.625 c 0,3.55469 2.07813,5.33203 6.23828,5.33203 z m 0,0"
     id="path3378" />
  <path
     style="fill:#1c1c19;fill-opacity:1;fill-rule:nonzero;stroke:none"
     d="m 50.925781,181.50781 -1.105469,11.46485 c -1.292968,1.04687 -3.507812,1.94531 -6.640624,2.69531 -3.136719,0.75 -6.042969,1.12109 -8.71875,1.12109 -7.011719,0 -12.867188,-2.16797 -17.570313,-6.51562 C 12.046875,185.82812 9.625,180.10937 9.625,173.11328 c 0,-6.89062 2.375,-12.80859 7.128906,-17.75391 4.746094,-4.94531 10.652344,-7.41796 17.707032,-7.41796 2.90625,0 5.789062,0.5 8.648437,1.49609 2.859375,1.00391 4.496094,1.5 4.910156,1.5 0.507813,0 0.945313,-0.125 1.316407,-0.375 l 0.484374,11.08984 -1.246093,0 c -1.246094,-5.89453 -5.558594,-8.84375 -12.9375,-8.84375 -4.609375,0 -8.40625,1.98828 -11.378907,5.96094 -2.972656,3.96875 -4.347656,8.67969 -4.117187,14.12109 0.230469,5.59375 1.984375,10.15235 5.257813,13.67579 3.273437,3.51953 7.195312,5.28125 11.761718,5.28125 3.597656,0 6.339844,-0.67579 8.230469,-2.02344 2.261719,-1.64844 3.574219,-4.42188 3.945313,-8.31641 z m 0,0"
     id="path3380" />
  <path
     style="fill:#1c1c19;fill-opacity:1;fill-rule:nonzero;stroke:none"
     d="m 88.121094,168.69531 -21.855469,0 0,3.14453 21.855469,0 z m 13.492186,27.34766 -0.96875,-0.0742 c -3.230468,-0.25 -5.027342,-0.375 -5.398436,-0.375 l -6.082032,0 c -0.375,0 -2.171874,0.125 -5.398437,0.375 l -0.96875,0.0742 0.07031,-1.72656 c 3.503906,0 5.253906,-1.4961 5.253906,-4.49219 l 0,-14.08594 -21.855469,0 0,14.08594 c 0,2.99609 1.75,4.49219 5.257813,4.49219 l 0.06641,1.72656 -0.96875,-0.0742 c -3.226563,-0.25 -5.027344,-0.375 -5.394532,-0.375 l -6.085937,0 c -0.371094,0 -2.171875,0.125 -5.398437,0.375 l -0.96875,0.0742 0.07031,-1.72656 c 3.503906,0 5.257812,-1.4961 5.257812,-4.49219 l 0,-34.91406 c 0,-3 -1.753906,-4.4961 -5.257812,-4.4961 l -0.07031,-1.72656 0.96875,0.0781 c 3.226562,0.25 5.027343,0.375 5.398437,0.375 l 6.085937,0 c 0.367188,0 2.167969,-0.125 5.394532,-0.375 l 0.96875,-0.0781 -0.06641,1.72656 c -3.507813,0 -5.257813,1.4961 -5.257813,4.4961 l 0,9.88671 21.855469,0 0,-9.88671 c 0,-3 -1.75,-4.4961 -5.253906,-4.4961 l -0.07031,-1.72656 0.96875,0.0781 c 3.226563,0.25 5.023437,0.375 5.398437,0.375 l 6.082032,0 c 0.371094,0 2.167968,-0.125 5.398436,-0.375 l 0.96875,-0.0781 -0.0664,1.72656 c -3.507818,0 -5.257818,1.4961 -5.257818,4.4961 l 0,34.91406 c 0,2.99609 1.75,4.49219 5.257818,4.49219 z m 0,0"
     id="path3382" />
  <path
     style="fill:#1c1c19;fill-opacity:1;fill-rule:nonzero;stroke:none"
     d="m 130.85547,162.40234 c 0,-2.64843 -0.71485,-4.82031 -2.14063,-6.51953 -1.66015,-1.89844 -4.05859,-2.84765 -7.19531,-2.84765 -1.42969,0 -2.36328,0.16406 -2.80078,0.48828 -0.44141,0.32422 -0.66016,1.13281 -0.66016,2.43359 l 0,16.55859 1.9375,0 c 2.9961,0 5.5586,-0.92187 7.67969,-2.76953 2.12109,-1.85156 3.17969,-4.29687 3.17969,-7.34375 m 45.51953,41.28125 c -0.27734,0.75 -1.33594,1.42578 -3.18359,2.02735 -1.98047,0.64453 -4.24219,0.96875 -6.77735,0.96875 -6.22656,0 -12.70703,-2.32032 -19.4375,-6.96485 -4.79687,-3.29687 -9.77734,-7.83984 -14.9414,-13.63672 -2.67579,-3.04687 -5.35157,-6.11718 -8.02735,-9.21875 -0.82812,-0.89453 -2.0039,-1.34765 -3.52734,-1.34765 l -2.42188,0 0,14.3125 c 0,2.99609 1.75391,4.49219 5.25782,4.49219 l 0.0703,1.72656 -0.96875,-0.0742 c -3.22656,-0.25 -5.02734,-0.375 -5.39453,-0.375 l -6.08985,0 c -0.36718,0 -2.16796,0.125 -5.39453,0.375 l -0.96875,0.0742 0.0703,-1.72656 c 3.5039,0 5.25781,-1.4961 5.25781,-4.49219 l 0,-34.91406 c 0,-3 -1.75391,-4.4961 -5.25781,-4.4961 l -0.0703,-1.72656 0.96875,0.0781 c 3.22657,0.25 5.02735,0.375 5.39453,0.375 0.41797,0 2.45704,-0.0781 6.125,-0.22656 3.66407,-0.14844 6.14454,-0.22656 7.4336,-0.22656 4.61328,0 8.21093,1.15234 10.79297,3.45312 2.44531,2.10157 3.66406,4.85157 3.66406,8.25 0,5.60547 -2.69531,9.88282 -8.09375,12.83204 0.92578,0.75 3.96875,4.26562 9.13281,10.54296 5.16406,6.27344 9.70703,10.98829 13.62891,14.14063 5.80859,4.65234 11.34375,6.97656 16.60156,6.97656 2.48828,0 4.54297,-0.39844 6.15625,-1.19922"
     id="path3384" />
  <path
     style="fill:#1c1c19;fill-opacity:1;fill-rule:nonzero;stroke:none"
     d="m 171.03516,196.04297 -0.96485,-0.0742 c -3.23047,-0.25 -5.02734,-0.375 -5.39844,-0.375 l -6.08593,0 c -0.3711,0 -2.16797,0.125 -5.39844,0.375 l -0.96875,0.0742 0.0703,-1.72656 c 3.50391,0 5.25781,-1.4961 5.25781,-4.49219 l 0,-34.91406 c 0,-3 -1.7539,-4.4961 -5.25781,-4.4961 l -0.0703,-1.72656 0.96875,0.0781 c 3.23047,0.25 5.02734,0.375 5.39844,0.375 l 6.08593,0 c 0.3711,0 2.16797,-0.125 5.39844,-0.375 l 0.96485,-0.0781 -0.0664,1.72656 c -3.50781,0 -5.25781,1.4961 -5.25781,4.4961 l 0,34.91406 c 0,2.99609 1.75,4.49219 5.25781,4.49219 z m 0,0"
     id="path3386" />
  <path
     style="fill:#1c1c19;fill-opacity:1;fill-rule:nonzero;stroke:none"
     d="m 203.60937,183.45703 c 0,3.49609 -1.5,6.54297 -4.5,9.14063 -3.13671,2.79687 -6.98437,4.1914 -11.55078,4.1914 -2.35156,0 -4.79687,-0.37109 -7.33203,-1.12109 -1.61719,-0.59766 -3.20703,-1.17188 -4.77344,-1.72266 l -1.73046,-11.83984 1.9375,0 c 1.47265,7.14453 4.98046,10.71484 10.51562,10.71484 2.58203,0 4.60938,-0.64844 6.08594,-1.94922 1.47656,-1.29687 2.21484,-3.11718 2.21484,-5.46875 0,-2.14453 -0.76172,-4.05468 -2.28125,-5.73047 -1.52344,-1.67187 -4.17578,-3.60937 -7.95703,-5.80859 -2.90625,-1.69531 -5.21484,-3.69141 -6.91797,-5.99219 -1.84375,-2.54687 -2.76562,-5.14453 -2.76562,-7.79297 0,-3.74609 1.20703,-6.70703 3.6289,-8.8789 2.42188,-2.17188 5.66016,-3.25781 9.71875,-3.25781 1.75391,0 3.85157,0.33593 6.29688,1.00781 2.44531,0.67969 4.35937,0.98828 5.74219,0.9414 l 1.38281,9.73829 -1.38281,0 c -2.03125,-5.24219 -5.46485,-7.86719 -10.3086,-7.86719 -2.02734,0 -3.6289,0.58594 -4.80859,1.76172 -1.17578,1.17187 -1.76172,2.68359 -1.76172,4.53125 0,2.59765 2.74219,5.51953 8.23047,8.76562 4.10547,2.44922 7.07812,4.77344 8.92578,6.96875 2.25781,2.7461 3.39062,5.96875 3.39062,9.66797"
     id="path3388" />
  <path
     style="fill:#1c1c19;fill-opacity:1;fill-rule:nonzero;stroke:none"
     d="m 221.96875,154.83203 -10.44531,0 c -1.38282,0 -2.42188,0.25391 -3.11719,0.75 -0.82813,0.64844 -1.70703,2.02344 -2.62891,4.12109 l -1.38281,0 3.80469,-14.01171 1.25,0 c -0.14063,0.55078 -0.21094,1 -0.21094,1.35156 0,1.39844 1.05859,2.09765 3.17969,2.09765 l 29.54297,0 c 1.38281,0 2.45312,-0.28515 3.21875,-0.86328 0.75781,-0.57422 1.59765,-1.91015 2.52343,-4.00781 l 1.38282,0 -3.80469,14.01172 -1.24609,0 c 0.13671,-0.55078 0.20703,-1 0.20703,-1.35156 0,-1.39453 -1.0586,-2.09766 -3.17969,-2.09766 l -10.93359,0 0,34.99219 c 0,2.99609 1.7539,4.49219 5.26171,4.49219 l 0.0664,1.72656 -0.96875,-0.0742 c -3.22656,-0.25 -5.02734,-0.375 -5.39453,-0.375 l -6.08984,0 c -0.36719,0 -2.16797,0.125 -5.39454,0.375 l -0.96875,0.0742 0.0664,-1.72656 c 3.50391,0 5.26172,-1.4961 5.26172,-4.49219 z m 0,0"
     id="path3390" />
  <path
     style="fill:#1c1c19;fill-opacity:1;fill-rule:nonzero;stroke:none"
     d="m 297.25391,148.61328 -0.0703,1.72656 c -3.5039,0 -5.25781,1.4961 -5.25781,4.49219 l 0,0.52734 c 0,9.24219 -1.56641,17.53125 -4.70312,24.875 -3.27735,7.74219 -7.95313,13.5625 -14.04297,17.45704 -6.08594,-3.89454 -10.76953,-9.71485 -14.04297,-17.45704 -3.14063,-7.34375 -4.70313,-15.63281 -4.70313,-24.875 l 0,-0.52734 c 0,-2.99609 -1.7539,-4.49219 -5.25781,-4.49219 l -0.0703,-1.72656 0.96875,0.0742 c 3.22656,0.25391 5.02734,0.375 5.39453,0.375 l 7.125,0 c 0.37109,0 2.16797,-0.12109 5.39453,-0.375 l 0.96875,-0.0742 -0.0664,1.72656 c -3.5039,0 -5.25781,1.4961 -5.25781,4.49219 l 0,0.30078 c 0,11.28906 0.85156,19.75781 2.5625,25.39844 1.37891,4.64453 3.70703,8.34375 6.98438,11.08984 3.27343,-2.74609 5.60156,-6.44531 6.98437,-11.08984 1.70703,-5.64063 2.5625,-14.10938 2.5625,-25.39844 l 0,-0.30078 c 0,-2.99609 -1.7539,-4.49219 -5.25781,-4.49219 l -0.0703,-1.72656 0.96875,0.0742 c 3.23047,0.25391 5.02734,0.375 5.39843,0.375 l 7.125,0 c 0.36719,0 2.16407,-0.12109 5.39063,-0.375 z m 0,0"
     id="path3392" />
  <path
     style="fill:#1c1c19;fill-opacity:1;fill-rule:nonzero;stroke:none"
     d="m 326.75781,183.45703 c 0,3.49609 -1.49609,6.54297 -4.49219,9.14063 -3.14062,2.79687 -6.98828,4.1914 -11.55859,4.1914 -2.34766,0 -4.79687,-0.37109 -7.33203,-1.12109 -1.61328,-0.59766 -3.20313,-1.17188 -4.76953,-1.72266 l -1.73438,-11.83984 1.94141,0 c 1.47266,7.14453 4.98047,10.71484 10.51172,10.71484 2.58203,0 4.61328,-0.64844 6.08984,-1.94922 1.47656,-1.29687 2.21094,-3.11718 2.21094,-5.46875 0,-2.14453 -0.75781,-4.05468 -2.28125,-5.73047 -1.51953,-1.67187 -4.17578,-3.60937 -7.95313,-5.80859 -2.90625,-1.69531 -5.21093,-3.69141 -6.91796,-5.99219 -1.84766,-2.54687 -2.76954,-5.14453 -2.76954,-7.79297 0,-3.74609 1.21094,-6.70703 3.63282,-8.8789 2.42187,-2.17188 5.66015,-3.25781 9.71875,-3.25781 1.7539,0 3.85156,0.33593 6.29687,1.00781 2.44141,0.67969 4.35547,0.98828 5.74219,0.9414 l 1.38281,9.73829 -1.38281,0 c -2.03125,-5.24219 -5.46875,-7.86719 -10.30859,-7.86719 -2.03125,0 -3.63282,0.58594 -4.8086,1.76172 -1.17578,1.17187 -1.76562,2.68359 -1.76562,4.53125 0,2.59765 2.74609,5.51953 8.23437,8.76562 4.10156,2.44922 7.07813,4.77344 8.92188,6.96875 2.26172,2.7461 3.39062,5.96875 3.39062,9.66797"
     id="path3394" />
  <path
     style="fill:#1c1c19;fill-opacity:1;fill-rule:evenodd;stroke:none"
     d="m 356.61719,209.28516 c 6.61328,1.71875 11.9375,3.01562 18.36328,5.48437 2.23437,0.85938 5.65234,2.625 5.39844,3.87891 -0.45704,2.26953 -3.75391,3.16406 -7.20313,3.26172 -2.71875,0.0781 -6.95312,-0.0625 -9.82812,-0.36719 -9.38672,-0.98438 -18.74219,-2.1211 -28.07422,-3.28125 -21.02344,-2.6211 -72.03907,-5.67578 -93.06641,-8.53125 -5.46484,-0.74219 -9.12109,-0.16797 -9.75391,1.1875 -0.30468,1.125 3.11329,3.5039 5.50391,4.75781 2.80078,1.46875 6.33203,2.6875 9.90234,3.47266 10.02735,2.20312 20.375,3.92968 30.30079,6.26562 3.40234,0.80078 7.47265,2.41406 8.42187,4.40625 0.98047,2.07031 -1.51562,4.38672 -3.70312,4.82031 -3.27735,0.64844 -8.55469,0.38282 -11.41407,-0.75 -13.52734,-5.37109 -23.34375,-8.9375 -36.45703,-14.6289 -2.11719,-0.92188 -7.48828,-4.23828 -8.69922,-5.52735 -1.42968,-1.52343 -3.29687,-3.73046 -2.30078,-4.90625 0.98438,-1.16796 5.23438,-1.92187 8.14063,-1.96875 5.60547,-0.0859 11.3789,0.13672 16.89453,0.79688 22.8125,2.71875 75.50781,6.46094 98.34375,9.12109 7.95703,0.92969 16.16797,1.08594 24.26562,1.59375 2.13672,-0.0742 2.60547,-1.30078 1.14453,-2.07812 -4.04296,-2.17969 -7.33203,-3.6875 -12.59375,-5.33594 -1.55468,-0.48437 -3.0625,-1.0625 -4.6289,-1.50781"
     id="path3396" />
  <path
     style="fill:#1c1c19;fill-opacity:1;fill-rule:nonzero;stroke:none"
     d="m 334.28516,91.640625 34.96875,5.222656 -1.06641,15.441409 -21.25781,-5.19922 z m 0,0"
     id="path3398" />
  <path
     style="fill:#1c1c19;fill-opacity:1;fill-rule:nonzero;stroke:#1c1c19;stroke-width:0.75;stroke-linecap:butt;stroke-linejoin:miter;stroke-miterlimit:10;stroke-opacity:1"
     d="m 40.019531,203.89062 -0.05078,0.625 c -0.191406,0 -0.382812,0 -0.527344,0.0469 -1.199218,0.14453 -2.160156,0.48047 -2.925781,1.10547 -0.722656,0.57422 -1.632812,1.67969 -2.640625,3.3125 l -7.777344,12.38281 0,9.35938 c 0,1.92187 0.769532,2.59375 3.121094,2.83593 0.144531,0.0469 0.335938,0.0469 0.527344,0.0469 l 0.04687,0.625 -0.671875,-0.0508 c -1.871094,-0.14453 -3.121094,-0.23828 -3.742188,-0.23828 l -1.824218,0 c -0.625,0 -1.875,0.0937 -3.746094,0.23828 l -0.671875,0.0508 0.05078,-0.625 c 0.1875,0 0.382813,0 0.523438,-0.0469 2.355468,-0.24218 3.121093,-0.91406 3.121093,-2.83593 l 0,-8.44532 -8.734375,-13.92187 c -2.015625,-3.26563 -2.59375,-3.55469 -5.042968,-3.79297 -0.140625,-0.0469 -0.335938,-0.0469 -0.527344,-0.0469 l -0.04687,-0.625 0.671875,0.0469 c 1.535156,0.14453 3.3125,0.24219 4.222656,0.24219 l 1.824219,0 c 0.914062,0 2.6875,-0.0977 4.226562,-0.24219 l 0.671875,-0.0469 -0.05078,0.625 c -0.191406,0 -0.382812,0 -0.527344,0.0469 l -0.144531,0 c -1.726562,0.19141 -2.78125,0.43359 -2.78125,1.24609 0,0.24219 0.09375,0.57813 0.335938,0.91407 l 8.113281,12.96093 7.535156,-12.09765 c 0.335938,-0.52735 0.480469,-0.96094 0.480469,-1.34375 0,-1.10547 -1.152344,-1.48828 -3.121094,-1.67969 -0.144531,-0.0469 -0.335937,-0.0469 -0.527344,-0.0469 l -0.04687,-0.625 0.671875,0.0469 c 1.871094,0.14453 3.121094,0.24219 3.742188,0.24219 l 1.824219,0 c 0.625,0 1.871093,-0.0977 3.746093,-0.24219 z m 0,0"
     id="path3400" />
  <path
     style="fill:#1c1c19;fill-opacity:1;fill-rule:nonzero;stroke:#1c1c19;stroke-width:0.75;stroke-linecap:butt;stroke-linejoin:miter;stroke-miterlimit:10;stroke-opacity:1"
     d="M 54.515625,226.06641 C 53.9375,218.96484 51.875,214.64453 48.992188,213.05859 c -2.878907,1.53516 -4.894532,5.85547 -5.519532,13.00782 z m 6.625,8.16406 -0.675781,-0.0508 c -0.335938,-0.0469 -0.71875,-0.0469 -1.199219,-0.0937 -0.910156,-0.0977 -1.632812,-0.14453 -2.0625,-0.14453 l -1.730469,0 c -0.429687,0 -1.152343,0.0469 -2.0625,0.14453 -0.480468,0.0469 -0.863281,0.0469 -1.199218,0.0937 l -0.671875,0.0508 0.04687,-0.67188 c 0.191406,0 0.382812,0 0.527343,-0.0508 2.257813,-0.23828 2.640625,-0.76562 2.640625,-2.83203 l 0,-0.28906 c 0,-0.67188 -0.04687,-1.58203 -0.09766,-2.73438 l -11.277344,0 c -0.05078,1.19922 -0.09766,2.16016 -0.09766,2.83203 l 0,0.19141 c 0,2.06641 0.382813,2.59375 2.640625,2.83203 0.144531,0.0508 0.335938,0.0508 0.527344,0.0508 l 0.04687,0.67188 -0.671875,-0.0508 c -0.335938,-0.0469 -0.71875,-0.0469 -1.199219,-0.0937 -0.910156,-0.0977 -1.632812,-0.14453 -2.0625,-0.14453 l -1.730469,0 c -0.429687,0 -1.152343,0.0469 -2.0625,0.14453 -0.480468,0.0469 -0.863281,0.0469 -1.203125,0.0937 l -0.671875,0.0508 0.05078,-0.67188 c 0.191406,0 0.382812,0 0.527343,-0.0508 2.253907,-0.23828 2.640625,-0.76562 2.640625,-2.83203 l 0,-0.19141 c 0.144532,-8.25781 3.070313,-15.21875 8.878907,-18.625 5.90625,3.40625 8.785156,10.22657 8.929687,18.52735 l 0,0.28906 c 0,2.06641 0.382813,2.59375 2.640625,2.83203 0.144531,0.0508 0.335938,0.0508 0.527344,0.0508 z m 0,0"
     id="path3402" />
  <path
     style="fill:#1c1c19;fill-opacity:1;fill-rule:nonzero;stroke:#1c1c19;stroke-width:0.75;stroke-linecap:butt;stroke-linejoin:miter;stroke-miterlimit:10;stroke-opacity:1"
     d="m 86.148437,212.53125 -0.05078,0.67187 c -0.191406,0 -0.382812,0 -0.527344,0.0469 -2.0625,0.19141 -2.832031,1.05859 -3.9375,2.78516 l -0.04687,0.0469 -5.617187,8.69141 0,5.90234 c 0,2.06641 0.382812,2.59375 2.640625,2.83203 0.144531,0.0508 0.335937,0.0508 0.527344,0.0508 l 0.05078,0.67188 -0.675781,-0.0508 c -0.335938,-0.0469 -0.71875,-0.0469 -1.199219,-0.0937 -0.910156,-0.0977 -1.632813,-0.14453 -2.0625,-0.14453 l -1.585938,0 c -0.429687,0 -1.152343,0.0469 -2.0625,0.14453 -0.480468,0.0469 -0.863281,0.0469 -1.199218,0.0937 l -0.671875,0.0508 0.04687,-0.67188 c 0.191406,0 0.382812,0 0.527343,-0.0508 2.257813,-0.23828 2.640625,-0.76562 2.640625,-2.83203 l 0,-5.66406 -6,-8.92969 c -1.007812,-1.53516 -2.351562,-2.64062 -4.511718,-2.83203 -0.144532,-0.0469 -0.335938,-0.0469 -0.527344,-0.0469 l -0.05078,-0.67187 0.671875,0.0469 c 0.335937,0.0469 0.722656,0.0469 1.199218,0.0977 0.914063,0.0937 1.632813,0.14453 2.066407,0.14453 l 1.535156,0 c 0.527344,0 1.585937,-0.0508 3.121094,-0.19531 0.144531,-0.0469 0.335937,-0.0469 0.480468,-0.0469 l 0.671875,-0.0469 -0.04687,0.67187 c -0.191406,0 -0.386718,0 -0.527343,0.0469 -0.914063,0.0977 -1.394532,0.38672 -1.394532,0.86328 0,0.33594 0.242188,0.86719 0.769532,1.63281 l 0.238281,0.33594 4.703125,7.01172 4.515625,-7.01172 c 0.429687,-0.62109 0.621094,-1.15234 0.621094,-1.53516 0,-0.71875 -0.671875,-1.15234 -2.015625,-1.29687 -0.144532,-0.0469 -0.335938,-0.0469 -0.527344,-0.0469 l -0.04688,-0.67187 0.671875,0.0469 c 0.335937,0.0469 0.71875,0.0469 1.199219,0.0977 0.914062,0.0937 1.632812,0.14453 2.066406,0.14453 l 0.382812,0 c 0.429688,0 1.152344,-0.0508 2.0625,-0.14453 0.480469,-0.0508 0.863282,-0.0508 1.199219,-0.0977 z m 0,0"
     id="path3404" />
  <path
     style="fill:#1c1c19;fill-opacity:1;fill-rule:nonzero;stroke:#1c1c19;stroke-width:0.75;stroke-linecap:butt;stroke-linejoin:miter;stroke-miterlimit:10;stroke-opacity:1"
     d="m 98.480469,234.17969 c -0.960938,-0.0937 -1.582032,-0.14453 -1.917969,-0.19141 -0.335938,-0.0469 -0.769531,-0.0469 -1.34375,-0.0469 l -1.585938,0 c -1.007812,0 -2.160156,0.1914 -3.265625,0.23828 l -0.671875,0.0508 0.04687,-0.67188 0.53125,-0.0508 c 2.253907,-0.23828 2.640625,-0.76562 2.640625,-2.83203 l 0,-14.59375 c 0,-1.96484 -0.386718,-2.58984 -2.640625,-2.83203 l -0.53125,-0.0469 -0.04687,-0.67188 0.671875,0.0469 c 0.960938,0.0977 1.585938,0.14454 1.921875,0.19141 0.335938,0.0508 0.769532,0.0508 1.34375,0.0508 l 1.585938,0 c 1.007812,0 2.160156,-0.19531 3.261719,-0.24219 l 0.671875,-0.0469 -0.04687,0.67187 -0.527344,0.0469 c -2.257813,0.24219 -2.640625,0.76953 -2.640625,2.83203 l 0,14.59375 c 0,1.96875 0.382812,2.59375 2.640625,2.83203 l 0.527344,0.0508 0.04687,0.67188 z m 0,0"
     id="path3406" />
  <path
     style="fill:#1c1c19;fill-opacity:1;fill-rule:nonzero;stroke:#1c1c19;stroke-width:0.75;stroke-linecap:butt;stroke-linejoin:miter;stroke-miterlimit:10;stroke-opacity:1"
     d="m 128.625,234.23047 -0.67188,-0.0508 c -0.33593,-0.0469 -0.71875,-0.0469 -1.19921,-0.0937 -0.91407,-0.0977 -1.63282,-0.14453 -2.0625,-0.14453 l -1.58594,0 c -0.4336,0 -1.15235,0.0469 -2.0625,0.14453 -0.48047,0.0469 -0.86719,0.0469 -1.20313,0.0937 l -0.67187,0.0508 0.0508,-0.67188 c 0.19141,0 0.38281,0 0.52734,-0.0508 2.25391,-0.23828 2.64063,-0.76562 2.64063,-2.83203 l 0,-16.27344 -10.32031,0 0,16.27344 c 0,2.06641 0.38281,2.59375 2.63671,2.83203 0.14454,0.0508 0.33594,0.0508 0.53125,0.0508 l 0.0469,0.67188 -0.67187,-0.0508 c -0.33594,-0.0469 -0.72266,-0.0469 -1.19922,-0.0937 -0.91406,-0.0977 -1.63281,-0.14453 -2.06641,-0.14453 l -1.58203,0 c -0.43359,0 -1.15234,0.0469 -2.0664,0.14453 -0.48047,0.0469 -0.86328,0.0469 -1.19922,0.0937 l -0.67188,0.0508 0.0469,-0.67188 c 0.19141,0 0.38282,0 0.52735,-0.0508 2.25781,-0.23828 2.64062,-0.76562 2.64062,-2.83203 l 0,-14.59375 c 0,-2.0625 -0.38281,-2.58984 -2.64062,-2.83203 -0.14453,-0.0469 -0.33594,-0.0469 -0.52735,-0.0469 l -0.0469,-0.67188 0.67188,0.0469 c 0.33594,0.0469 0.71875,0.0469 1.19922,0.0977 0.91406,0.0937 1.63281,0.14454 2.0664,0.14454 l 14.92969,0 c 0.42969,0 1.14844,-0.0508 2.0625,-0.14454 0.48047,-0.0508 0.86328,-0.0508 1.19922,-0.0977 l 0.67188,-0.0469 -0.0469,0.67187 c -0.1914,0 -0.38281,0 -0.52734,0.0469 -2.25781,0.24219 -2.64062,0.76954 -2.64062,2.83204 l 0,14.59375 c 0,2.0664 0.38281,2.59375 2.64062,2.83203 0.14453,0.0508 0.33594,0.0508 0.52734,0.0508 z m 0,0"
     id="path3408" />
  <path
     style="fill:#1c1c19;fill-opacity:1;fill-rule:nonzero;stroke:#1c1c19;stroke-width:0.75;stroke-linecap:butt;stroke-linejoin:miter;stroke-miterlimit:10;stroke-opacity:1"
     d="m 153.00781,228.80469 c -1.72656,2.2539 -2.49609,3.83984 -2.8789,5.32812 -0.57422,0 -1.72657,-0.0469 -3.88672,-0.0977 -2.16016,-0.0469 -4.27344,-0.0937 -5.8086,-0.0937 l -1.63281,0 c -0.43359,0 -1.15234,0.0469 -2.06641,0.14453 -0.47656,0.0469 -0.86328,0.0469 -1.19921,0.0937 l -0.67188,0.0508 0.0469,-0.67188 c 0.19531,0 0.38672,0 0.53125,-0.0508 2.25391,-0.23828 2.64063,-0.76562 2.64063,-2.83203 l 0,-14.59375 c 0,-2.0625 -0.38672,-2.58984 -2.64063,-2.83203 -0.14453,-0.0469 -0.33594,-0.0469 -0.53125,-0.0469 l -0.0469,-0.67188 0.67188,0.0469 c 0.33593,0.0469 0.72265,0.0469 1.19921,0.0977 0.91407,0.0937 1.63282,0.14454 2.06641,0.14454 l 1.58203,0 c 0.4336,0 1.15235,-0.0508 2.06641,-0.14454 0.48047,-0.0508 0.86328,-0.0508 1.19922,-0.0977 l 0.67187,-0.0469 -0.0469,0.67188 c -0.19141,0 -0.38282,0 -0.52735,0.0469 -2.25781,0.24219 -2.64062,0.76953 -2.64062,2.83203 l 0,14.59375 c 0,1.73047 0.0937,1.82422 1.63281,1.82422 l 3.55078,0 c 2.73438,0 2.6875,-0.0937 4.46485,-2.25391 l 1.15234,-1.4414 z m 0,0"
     id="path3410" />
  <path
     style="fill:#1c1c19;fill-opacity:1;fill-rule:nonzero;stroke:#1c1c19;stroke-width:0.75;stroke-linecap:butt;stroke-linejoin:miter;stroke-miterlimit:10;stroke-opacity:1"
     d="m 172.73828,226.06641 c -0.57812,-7.10157 -2.64062,-11.42188 -5.52344,-13.00782 -2.8789,1.53516 -4.89453,5.85547 -5.51953,13.00782 z m 6.62109,8.16406 -0.67187,-0.0508 c -0.33594,-0.0469 -0.71875,-0.0469 -1.19922,-0.0937 -0.91016,-0.0977 -1.63281,-0.14453 -2.0625,-0.14453 l -1.73047,0 c -0.42969,0 -1.15234,0.0469 -2.0625,0.14453 -0.48047,0.0469 -0.86328,0.0469 -1.19922,0.0937 l -0.67187,0.0508 0.0469,-0.67188 c 0.19141,0 0.38282,0 0.52735,-0.0508 2.25781,-0.23828 2.64062,-0.76562 2.64062,-2.83203 l 0,-0.28906 c 0,-0.67188 -0.0469,-1.58203 -0.0977,-2.73438 l -11.27735,0 c -0.0508,1.19922 -0.0977,2.16016 -0.0977,2.83203 l 0,0.19141 c 0,2.06641 0.38282,2.59375 2.64063,2.83203 0.14453,0.0508 0.33594,0.0508 0.52734,0.0508 l 0.0469,0.67188 -0.67188,-0.0508 c -0.33594,-0.0469 -0.71875,-0.0469 -1.19922,-0.0937 -0.91015,-0.0977 -1.63281,-0.14453 -2.0625,-0.14453 l -1.73047,0 c -0.42968,0 -1.15234,0.0469 -2.0625,0.14453 -0.48046,0.0469 -0.86328,0.0469 -1.19921,0.0937 l -0.67579,0.0508 0.0508,-0.67188 c 0.19141,0 0.38282,0 0.52735,-0.0508 2.25781,-0.23828 2.64062,-0.76562 2.64062,-2.83203 l 0,-0.19141 c 0.14453,-8.25781 3.07032,-15.21875 8.87891,-18.625 5.90625,3.40625 8.78516,10.22657 8.92969,18.52735 l 0,0.28906 c 0,2.06641 0.38281,2.59375 2.64063,2.83203 0.14453,0.0508 0.33593,0.0508 0.52734,0.0508 z m 0,0"
     id="path3412" />
  <path
     style="fill:#1c1c19;fill-opacity:1;fill-rule:nonzero;stroke:none"
     d="m 192.70312,213.73047 c -2.0625,0 -2.30468,0.0977 -2.30468,1.48828 l 0,8.73828 4.22656,0 c 2.30469,-0.81641 3.83984,-2.64062 3.83984,-5.13672 0,-2.83203 -2.11328,-5.08984 -5.76172,-5.08984 m 21.69922,25.20312 c -3.45703,0 -7.10547,-1.77734 -10.32031,-4.22265 -3.12109,-2.44922 -5.1875,-4.51563 -7.875,-7.44141 -0.91016,-0.91406 -1.44141,-1.48828 -1.67969,-1.67969 -0.1914,-0.19531 -0.57812,-0.38672 -1.10547,-0.57812 l -3.02343,0 0,5.66406 c 0,2.06641 0.38281,2.59375 2.64062,2.83203 0.14453,0.0508 0.33594,0.0508 0.52735,0.0508 l 0.0469,0.67188 -0.67187,-0.0508 c -0.33594,-0.0469 -0.71875,-0.0469 -1.19922,-0.0937 -0.91016,-0.0977 -1.63282,-0.14453 -2.0625,-0.14453 l -1.58594,0 c -0.42969,0 -1.15234,0.0469 -2.0625,0.14453 -0.48047,0.0469 -0.86328,0.0469 -1.19922,0.0937 l -0.67578,0.0508 0.0508,-0.67188 c 0.19141,0 0.38281,0 0.52734,-0.0508 2.25391,-0.23828 2.64063,-0.76562 2.64063,-2.83203 l 0,-14.58984 c 0,-2.06641 -0.38672,-2.59375 -2.64063,-2.83594 -0.14453,-0.0469 -0.33593,-0.0469 -0.52734,-0.0469 l -0.0508,-0.67187 0.67578,0.0469 c 0.33594,0.0508 0.71875,0.0508 1.19922,0.0977 0.91016,0.0937 1.63281,0.14453 2.0625,0.14453 l 0.33594,0 c 0.14453,0 0.38281,0 0.71875,-0.0508 0.82031,0 2.5,-0.0937 4.66015,-0.0937 4.75,0 7.72657,2.35156 7.72657,5.375 0,2.92969 -2.10938,5.13672 -4.5586,6.09766 0.57422,0.43359 1.77735,1.58203 3.55078,3.45703 2.30469,2.35156 3.69532,3.88672 5.76172,5.66406 2.10938,1.72656 4.46485,3.26172 6.625,4.03125 1.00781,0.33594 2.10938,0.52734 3.3125,0.52734 1.29297,0 2.44531,-0.1914 3.45703,-0.62109 -0.38672,0.96094 -2.59375,1.72656 -5.28125,1.72656"
     id="path3414" />
  <path
     style="fill:none;stroke:#1c1c19;stroke-width:0.75;stroke-linecap:butt;stroke-linejoin:miter;stroke-miterlimit:10;stroke-opacity:1"
     d="m 192.70312,213.73047 c -2.0625,0 -2.30468,0.0977 -2.30468,1.48828 l 0,8.73828 4.22656,0 c 2.30469,-0.81641 3.83984,-2.64062 3.83984,-5.13672 0,-2.83203 -2.11328,-5.08984 -5.76172,-5.08984 z m 21.69922,25.20312 c -3.45703,0 -7.10547,-1.77734 -10.32031,-4.22265 -3.12109,-2.44922 -5.1875,-4.51563 -7.875,-7.44141 -0.91016,-0.91406 -1.44141,-1.48828 -1.67969,-1.67969 -0.1914,-0.19531 -0.57812,-0.38672 -1.10547,-0.57812 l -3.02343,0 0,5.66406 c 0,2.06641 0.38281,2.59375 2.64062,2.83203 0.14453,0.0508 0.33594,0.0508 0.52735,0.0508 l 0.0469,0.67188 -0.67187,-0.0508 c -0.33594,-0.0469 -0.71875,-0.0469 -1.19922,-0.0937 -0.91016,-0.0977 -1.63282,-0.14453 -2.0625,-0.14453 l -1.58594,0 c -0.42969,0 -1.15234,0.0469 -2.0625,0.14453 -0.48047,0.0469 -0.86328,0.0469 -1.19922,0.0937 l -0.67578,0.0508 0.0508,-0.67188 c 0.19141,0 0.38281,0 0.52734,-0.0508 2.25391,-0.23828 2.64063,-0.76562 2.64063,-2.83203 l 0,-14.58984 c 0,-2.06641 -0.38672,-2.59375 -2.64063,-2.83594 -0.14453,-0.0469 -0.33593,-0.0469 -0.52734,-0.0469 l -0.0508,-0.67187 0.67578,0.0469 c 0.33594,0.0508 0.71875,0.0508 1.19922,0.0977 0.91016,0.0937 1.63281,0.14453 2.0625,0.14453 l 0.33594,0 c 0.14453,0 0.38281,0 0.71875,-0.0508 0.82031,0 2.5,-0.0937 4.66015,-0.0937 4.75,0 7.72657,2.35156 7.72657,5.375 0,2.92969 -2.10938,5.13672 -4.5586,6.09766 0.57422,0.43359 1.77735,1.58203 3.55078,3.45703 2.30469,2.35156 3.69532,3.88672 5.76172,5.66406 2.10938,1.72656 4.46485,3.26172 6.625,4.03125 1.00781,0.33594 2.10938,0.52734 3.3125,0.52734 1.29297,0 2.44531,-0.1914 3.45703,-0.62109 -0.38672,0.96094 -2.59375,1.72656 -5.28125,1.72656 z m 0,0"
     id="path3416" />
  <path
     style="fill:#1c1c19;fill-opacity:1;fill-rule:nonzero;stroke:#1c1c19;stroke-width:0.75;stroke-linecap:butt;stroke-linejoin:miter;stroke-miterlimit:10;stroke-opacity:1"
     d="m 218.09375,234.17969 c -0.95703,-0.0937 -1.58203,-0.14453 -1.91797,-0.19141 -0.33594,-0.0469 -0.76953,-0.0469 -1.34375,-0.0469 l -1.58594,0 c -1.00781,0 -2.16015,0.1914 -3.26172,0.23828 l -0.67187,0.0508 0.0469,-0.67188 0.52735,-0.0508 c 2.25781,-0.23828 2.64062,-0.76562 2.64062,-2.83203 l 0,-14.59375 c 0,-1.96484 -0.38281,-2.58984 -2.64062,-2.83203 l -0.52735,-0.0469 -0.0469,-0.67188 0.67187,0.0469 c 0.96094,0.0977 1.58204,0.14454 1.91797,0.19141 0.33594,0.0508 0.76953,0.0508 1.34375,0.0508 l 1.58594,0 c 1.00781,0 2.16016,-0.19531 3.26172,-0.24219 l 0.67578,-0.0469 -0.0508,0.67187 -0.52734,0.0469 c -2.25391,0.24219 -2.64063,0.76953 -2.64063,2.83203 l 0,14.59375 c 0,1.96875 0.38672,2.59375 2.64063,2.83203 l 0.52734,0.0508 0.0508,0.67188 z m 0,0"
     id="path3418" />
</svg>
