<?xml version="1.0" encoding="UTF-8" standalone="no"?>
<!-- Created with Inkscape (http://www.inkscape.org/) -->

<svg
   xmlns:dc="http://purl.org/dc/elements/1.1/"
   xmlns:cc="http://creativecommons.org/ns#"
   xmlns:rdf="http://www.w3.org/1999/02/22-rdf-syntax-ns#"
   xmlns:svg="http://www.w3.org/2000/svg"
   xmlns="http://www.w3.org/2000/svg"
   xmlns:sodipodi="http://sodipodi.sourceforge.net/DTD/sodipodi-0.dtd"
   xmlns:inkscape="http://www.inkscape.org/namespaces/inkscape"
   width="792"
   height="496"
   viewBox="0 0 792.00001 496.00001"
   id="svg15308"
   version="1.1"
   inkscape:version="0.91 r13725"
   sodipodi:docname="vc_logo_renksiz.svg">
  <defs
     id="defs15310" />
  <sodipodi:namedview
     id="base"
     pagecolor="#ffffff"
     bordercolor="#666666"
     borderopacity="1.0"
     inkscape:pageopacity="0.0"
     inkscape:pageshadow="2"
     inkscape:zoom="0.7"
     inkscape:cx="318.63143"
     inkscape:cy="462.93172"
     inkscape:document-units="px"
     inkscape:current-layer="layer1"
     showgrid="false"
     inkscape:window-width="1920"
     inkscape:window-height="1058"
     inkscape:window-x="1920"
     inkscape:window-y="22"
     inkscape:window-maximized="1"
     showguides="false"
     units="px" />
  <metadata
     id="metadata15313">
    <rdf:RDF>
      <cc:Work
         rdf:about="">
        <dc:format>image/svg+xml</dc:format>
        <dc:type
           rdf:resource="http://purl.org/dc/dcmitype/StillImage" />
        <dc:title></dc:title>
      </cc:Work>
    </rdf:RDF>
  </metadata>
  <g
     inkscape:label="Layer 1"
     inkscape:groupmode="layer"
     id="layer1"
     transform="translate(0,-556.36216)">
    <g
       id="g16793"
       transform="matrix(1.6730038,0,0,1.6730038,-225.93455,-76.871027)">
      <path
         inkscape:connector-curvature="0"
         id="path16770"
         d="m 474.34725,670.93885 c -1.7428,-0.44014 -31.63102,-12.21547 -40.91785,-16.12077 l -7.91785,-3.32962 -3.55765,-2.20368 c -4.28486,-2.65412 -5.99058,-4.04565 -7.7649,-6.33459 l -1.34175,-1.73091 0,-1.32278 0,-1.32277 1.50456,-0.68553 c 0.8275,-0.37704 3.325,-0.98291 5.55,-1.34637 l 4.04544,-0.66085 8.1,0.39102 c 4.455,0.21506 11.34,0.77118 15.3,1.23581 7.88227,0.92485 33.69029,3.27924 72.3,6.59573 13.695,1.17636 30.03,2.6637 36.3,3.3052 20.19064,2.06573 24.42843,2.37942 34.14146,2.5272 l 9.54146,0.14517 0.21832,-0.62935 0.21833,-0.62935 -4.31415,-2.07065 -4.31414,-2.07065 -1.18388,-1.2 -1.18388,-1.2 0.48667,0.85196 0.48666,0.85197 -1.04749,-0.40197 c -0.57613,-0.22108 -1.29542,-0.40196 -1.59843,-0.40196 l -0.55093,0 0,-0.9 0,-0.9 0.47386,0 c 2.60302,0 18.17326,5.91367 20.05575,7.61729 l 1.07039,0.9687 0,1.338 0,1.338 -1.65,1.11354 -1.65,1.11353 -7.8,0.20081 -7.8,0.20081 -18,-2.16346 c -27.66168,-3.32474 -37.52575,-4.29345 -73.8,-7.24769 -32.03366,-2.60887 -49.16824,-4.18326 -62.4,-5.73356 l -6,-0.70299 -2.55,0.70164 -2.55,0.70163 0,0.81472 0,0.81472 2.03814,1.78951 2.03813,1.78951 3.81187,1.7933 c 5.3242,2.50479 7.974,3.1833 28.71186,7.35199 10.065,2.02325 19.785,4.09361 21.6,4.6008 l 3.3,0.92217 2.53896,1.45734 2.53897,1.45734 0.64427,1.20384 0.64428,1.20384 -0.36531,1.15098 -0.36531,1.15099 -1.81396,1.52635 -1.81397,1.52635 -6.10397,-0.0696 c -3.35718,-0.0383 -6.64396,-0.20597 -7.30396,-0.37266 z"
         style="fill:#000000" />
      <path
         inkscape:connector-curvature="0"
         id="path16768"
         d="m 488.40121,668.62778 1.84604,-1.55334 0,-1.09773 0,-1.09773 -1.95,-1.17507 c -3.61963,-2.1812 -10.35981,-3.83844 -35.85,-8.81466 -12.17625,-2.37705 -16.99544,-3.75567 -22.61088,-6.46824 l -3.71088,-1.79257 -1.47172,-1.57367 c -0.80944,-0.86551 -1.64621,-2.15271 -1.85948,-2.86044 l -0.38778,-1.28678 0.92754,-0.92753 0.92753,-0.92754 2.84284,-0.43282 2.84283,-0.43284 6.6,0.73984 c 19.71608,2.21012 24.92241,2.68034 80.4,7.26143 21.71844,1.79342 26.31177,2.26888 58.2,6.02439 l 15.6,1.83723 6.62924,-0.1843 6.62925,-0.1843 1.66091,-1.09014 1.6609,-1.09014 -0.75001,-0.90371 c -0.4125,-0.49704 -1.7637,-1.42086 -3.00266,-2.05293 l -2.25264,-1.14921 -0.18749,1.94307 -0.1875,1.94306 -4.2,0.18838 -4.2,0.18838 -10.2,-0.65115 c -5.61,-0.35813 -18.165,-1.44 -27.9,-2.40414 -17.21101,-1.70455 -22.41998,-2.17213 -67.2,-6.03227 -11.715,-1.00985 -26.295,-2.36866 -32.4,-3.01957 -6.105,-0.6509 -15.35097,-1.475 -20.54661,-1.83133 l -9.44661,-0.64787 -4.05339,0.69245 c -2.22936,0.38084 -4.66383,1.02407 -5.40991,1.42938 l -1.35652,0.73693 1.48901,2.01824 1.489,2.01823 2.86751,2.05811 c 5.45373,3.9143 30.91238,14.84188 52.96752,22.73515 l 3.9,1.39577 4.90396,0.0127 4.90397,0.0127 1.84603,-1.55333 z"
         style="fill:#000000" />
      <path
         inkscape:connector-curvature="0"
         id="path16766"
         d="m 579.65079,639.43111 c 0.002,-0.7425 -1.1327,-6.73179 -2.52145,-13.30952 l -2.52498,-11.95952 0.72144,-0.24048 0.72145,-0.24048 0,-1.37654 0,-1.37653 -0.8531,-0.708 -0.8531,-0.70802 -0.38176,-2.51545 c -0.40235,-2.65114 -1.19869,-7.06964 -3.31899,-18.41546 -4.95063,-26.49094 -14.72765,-63.04196 -24.06534,-89.9674 -1.66565,-4.80294 -3.17143,-9.47511 -3.34618,-10.38261 l -0.31773,-1.65 1.7181,0.0116 c 1.674,0.0113 7.22128,0.78923 18.8181,2.63876 8.29532,1.32298 14.41962,2.51991 22.05,4.30941 l 6.75,1.58304 0,1.72856 0,1.72857 1.277,0 1.277,0 -0.40183,7.95 c -0.221,4.3725 -0.54711,8.6925 -0.72467,9.6 l -0.32285,1.65 -1.30233,-0.0264 c -0.71627,-0.0145 -6.56732,-1.32727 -13.00232,-2.91727 -6.435,-1.58999 -11.7383,-2.86061 -11.78511,-2.8236 -0.0468,0.037 0.95136,4.63404 2.21815,10.21562 1.26678,5.58159 3.4032,16.24659 4.74757,23.7 l 2.44433,13.55168 6.97534,23.82939 6.97535,23.82939 -2.99229,2.69032 -2.99228,2.69032 -1.71495,3.78029 -1.71496,3.78029 -0.23975,5.7 -0.23974,5.7 0.57663,3.14653 0.57663,3.14653 -0.2874,1.50347 -0.28741,1.50347 -0.83006,0 -0.83005,0 0.004,-1.35 z"
         style="fill:#000000" />
      <path
         inkscape:connector-curvature="0"
         id="path16764"
         d="m 581.94351,614.80089 1.91536,-3.89064 2.39419,-2.16301 c 2.9596,-2.67382 3.49458,0.59315 -4.14328,-25.30185 -3.59561,-12.19035 -6.72607,-23.37928 -6.95658,-24.86428 -1.04418,-6.7269 -5.20352,-28.08797 -6.95134,-35.70001 -1.06082,-4.62 -2.05411,-9.2775 -2.20733,-10.35 l -0.27857,-1.95 0.89012,0 c 0.48956,0 6.38398,1.33656 13.0987,2.97012 l 12.20859,2.97012 0.45775,-0.72012 0.45775,-0.72012 0.0128,-2.7 c 0.007,-1.485 0.18619,-4.9275 0.39812,-7.65 l 0.38533,-4.95 -1.28892,0 -1.28894,0 0,-1.74549 0,-1.74548 -7.65,-1.80007 c -4.2075,-0.99003 -10.08,-2.22631 -13.05,-2.74728 -7.70557,-1.35163 -19.24881,-3.19704 -23.04058,-3.68347 l -3.24058,-0.41573 0.48219,1.11876 c 0.2652,0.61532 0.93974,2.33376 1.49897,3.81876 0.55923,1.485 1.17825,3.105 1.3756,3.6 0.19735,0.495 0.90272,2.655 1.56749,4.8 0.66477,2.145 1.64685,5.115 2.18241,6.6 7.51077,20.82616 19.26433,69.14804 23.95612,98.48972 l 0.35014,2.18971 0.88412,0.73375 0.88412,0.73376 0,2.62653 0,2.62654 -0.51801,0 -0.51801,0 1.56801,7.5957 1.56801,7.59571 0.34046,-5.74049 0.34044,-5.74049 1.91536,-3.89065 z"
         style="fill:#000000" />
      <path
         inkscape:connector-curvature="0"
         id="path16762"
         d="m 576.33001,635.83111 c -0.23249,-1.4025 -1.16833,-4.60405 -2.07964,-7.11456 l -1.65693,-4.56455 -2.20979,-3.45446 -2.20979,-3.45446 -3.01855,-2.89416 -3.01854,-2.89415 -3.83036,-1.98595 -3.83036,-1.98594 -0.29268,-2.40088 c -0.16097,-1.3205 -0.45069,-5.23589 -0.64382,-8.70089 -0.47534,-8.5282 -1.84775,-19.45344 -3.34562,-26.63323 l -1.23781,-5.93323 -5.31128,-15.06677 c -5.87918,-16.67776 -11.26967,-30.94093 -15.36402,-40.65305 l -2.69228,-6.38627 -2.52064,-0.36071 c -1.38636,-0.19839 -18.31565,-2.26284 -37.62065,-4.58768 -19.305,-2.32484 -35.4375,-4.34272 -35.85,-4.48419 l -0.75,-0.25721 0,-1.47978 c 0,-0.81387 0.2788,-2.21307 0.61956,-3.10934 l 0.61956,-1.62956 -1.15656,-1.2595 c -1.60684,-1.74982 -3.67763,-5.29152 -3.68032,-6.29448 l -0.002,-0.835 7.35,0.40858 c 25.20215,1.40099 80.41622,6.50511 81.6124,7.54445 0.25433,0.22097 1.01126,1.86769 1.68208,3.65937 0.67082,1.79167 2.04373,5.41759 3.0509,8.05759 14.1958,37.21 26.89183,78.13432 32.92994,106.1462 l 1.28174,5.9462 -0.95353,0.53361 -0.95353,0.53363 0,1.12014 0,1.12014 1.40816,1.10004 1.40815,1.10005 2.20013,10.8 c 1.21008,5.94 2.19641,11.2725 2.19185,11.85 l -0.008,1.05 -0.84726,0 -0.84726,0 -0.42272,-2.55 z"
         style="fill:#000000" />
      <path
         inkscape:connector-curvature="0"
         id="path16760"
         d="m 573.49405,619.01244 -0.69054,-4.03133 -0.56198,0 c -0.30909,0 -0.92067,-0.4725 -1.35905,-1.05 l -0.79706,-1.05 -0.0191,-1.83 -0.0191,-1.83 0.65585,-0.65586 0.65585,-0.65585 -0.70153,-3.51415 c -1.47285,-7.37792 -8.15726,-32.3104 -13.4508,-50.17084 -3.24701,-10.95542 -11.19747,-34.22173 -16.24628,-47.54331 -3.14007,-8.28523 -5.82876,-15.63154 -6.36827,-17.4 -0.30202,-0.99 -0.75066,-2.0892 -0.99698,-2.44267 l -0.44785,-0.64268 -9.3,-1.04235 c -14.0241,-1.57181 -38.29419,-3.77484 -53.1,-4.81995 -7.26,-0.51247 -15.61506,-1.10422 -18.56681,-1.315 l -5.36679,-0.38323 1.0962,1.72294 c 0.60292,0.94762 1.60048,2.28034 2.21681,2.96161 l 1.12059,1.23867 0,1.2831 c 0,0.70571 -0.31668,1.97813 -0.70373,2.82761 l -0.70372,1.5445 0.55372,0.52272 0.55373,0.52272 7.8,0.95556 c 4.29,0.52556 13.335,1.62542 20.1,2.44413 6.765,0.8187 20.13,2.44654 29.7,3.61741 l 17.4,2.12886 0.9662,1.27237 c 1.39704,1.83973 10.27035,24.50616 17.25807,44.08491 l 6.02497,16.88122 1.20329,5.91878 c 1.42632,7.01588 2.86315,18.56876 3.3479,26.91878 0.19158,3.3 0.47884,7.08039 0.63835,8.40089 l 0.29002,2.40088 3.88667,2.01515 3.88668,2.01514 3.23557,3.18429 3.23558,3.18429 1.98849,3.32454 c 2.42084,4.04737 2.44585,4.03169 1.58501,-0.99385 z"
         style="fill:#000000" />
      <path
         inkscape:connector-curvature="0"
         id="path16758"
         d="m 336.94724,635.96605 c -9.1392,-1.23865 -18.08415,-5.98245 -28.53763,-15.13441 l -5.13762,-4.49797 -7.95498,-9.02844 c -8.5401,-9.69252 -8.57949,-9.72412 -12.11884,-9.72412 l -2.35093,0 0,9.27177 0,9.27176 0.66617,1.46208 0.66616,1.46206 1.46207,0.66617 c 0.80413,0.36639 1.98936,0.66616 2.63383,0.66616 l 1.17177,0 0,1.08571 0,1.08572 -11.7,0 -11.7,0 0,-1.08572 0,-1.08571 1.46655,0 1.46653,0 1.68347,-1.44754 1.68345,-1.44755 0.17032,-23.1231 0.17032,-23.12309 -0.87382,-2.09134 -0.87382,-2.09135 -2.4465,-0.73299 -2.4465,-0.73299 0.001,-0.95503 10e-4,-0.95502 14.84895,0.0136 14.84894,0.0136 2.52477,0.75271 2.52477,0.75273 2.57523,1.96169 2.57523,1.96168 1.48182,2.67198 1.4818,2.67198 -0.0391,4.2 -0.0391,4.2 -1.55958,3.06457 -1.55959,3.06456 -3.07308,2.76297 -3.07309,2.76296 8.9492,10.67248 8.94921,10.67247 4.8526,4.61988 4.85259,4.61989 4.14281,2.75478 4.14281,2.75478 4.14528,1.46268 4.14529,1.46268 4.05,0.0127 4.05,0.0127 0,0.84726 0,0.84726 -2.4,0.35274 c -1.32,0.19401 -3.4125,0.45913 -4.65,0.58917 l -2.25,0.23642 -3.6,-0.48791 z"
         style="fill:#000000" />
      <path
         inkscape:connector-curvature="0"
         id="path16756"
         d="m 338.14724,633.93778 c -3.76036,-1.19558 -9.27291,-4.17466 -13.23231,-7.151 l -3.62434,-2.72446 -4.77237,-4.9906 c -2.62481,-2.74484 -8.21456,-9.11805 -12.42168,-14.16269 l -7.6493,-9.17208 0,-1.23627 0,-1.23626 2.96721,-2.66777 c 1.63196,-1.46727 3.50764,-3.54222 4.16817,-4.61098 l 1.20097,-1.94321 0.63724,-2.84349 0.63724,-2.84349 -0.6678,-2.65207 -0.6678,-2.65207 -2.10208,-2.45582 -2.10208,-2.4558 -2.28402,-1.16523 c -1.25621,-0.64086 -3.51179,-1.44036 -5.01239,-1.77665 l -2.72837,-0.61144 -10.73176,0.38873 -10.73178,0.38872 1.06538,1.06538 1.06538,1.06538 0.37974,2.59325 0.37974,2.59325 -0.1865,23.00254 -0.18649,23.00255 -1.50813,1.29745 -1.50814,1.29746 7.37319,0 7.37319,0 -1.1466,-0.51115 -1.14661,-0.51114 -0.66845,-1.46709 -0.66845,-1.46709 0,-10.47176 0,-10.47177 3.97059,0 3.97059,0 2.17941,2.25686 c 1.19868,1.24127 5.07481,5.54013 8.61363,9.55303 l 6.43421,7.29617 4.74345,4.17988 c 2.6089,2.29893 6.73351,5.52161 9.16579,7.1615 l 4.42233,2.98164 4.2967,1.88376 c 4.83263,2.11873 7.92163,2.9572 11.0033,2.98675 l 2.1,0.0202 -2.4,-0.76306 z"
         style="fill:#000000" />
      <path
         inkscape:connector-curvature="0"
         id="path16754"
         d="m 279.64724,582.62057 0,-12.11835 0.62111,-1.16056 0.62112,-1.16055 4.38451,0 4.38452,0 2.61273,1.38164 2.61273,1.38164 1.38164,2.61273 1.38164,2.61273 0,4.43542 0,4.43543 -0.97018,1.9202 c -1.39116,2.75342 -3.18275,4.55818 -5.92982,5.97345 l -2.4,1.23646 -4.35,0.28405 -4.35,0.28405 0,-12.11834 z"
         style="fill:#000000" />
      <path
         inkscape:connector-curvature="0"
         id="path16752"
         d="m 289.62068,591.68731 c 2.80685,-1.44326 5.32181,-4.00166 6.18839,-6.29526 l 0.63817,-1.68906 0,-3.13381 0,-3.13381 -1.35,-2.67713 -1.35,-2.67713 -2.67713,-1.35 -2.67713,-1.35 -3.05287,0 -3.05287,0 -0.72,0.72 -0.72,0.72 0,11.36394 0,11.36394 3.22344,-0.33268 3.22344,-0.33269 2.32656,-1.19631 z"
         style="fill:#ffffff;fill-opacity:1" />
      <path
         inkscape:connector-curvature="0"
         id="path16750"
         d="m 470.39723,621.95043 -3.35002,-2.62992 -3.09132,-4.1197 c -5.40528,-7.20345 -9.10175,-15.70455 -11.22676,-25.81914 l -0.98756,-4.70056 -0.42106,-7.91343 -0.42107,-7.91342 -1.10847,-1.22484 -1.10847,-1.22484 -2.01763,-0.37851 -2.01762,-0.37851 0,-0.98323 0,-0.98322 12.3,0 12.3,0 0,0.95502 0,0.95503 -2.4465,0.73299 -2.4465,0.73299 -0.89141,2.13342 -0.89139,2.13341 0.64656,10.87857 0.64658,10.87857 1.17477,5.7 1.17477,5.7 2.07822,4.2 2.07822,4.2 2.13834,2.0677 2.13834,2.0677 2.05684,-1.99358 2.05685,-1.99357 1.80962,-3.39519 1.80961,-3.39519 1.19504,-4.47894 c 0.65727,-2.46341 1.49359,-6.90893 1.85849,-9.87893 l 0.66346,-5.4 0.12504,-8.89837 0.12505,-8.89837 -1.46287,-1.18921 -1.46288,-1.1892 -1.68712,-0.33743 -1.68713,-0.33742 -7e-5,-0.975 -8e-5,-0.975 12.29994,0 12.29995,0 1.3e-4,0.975 1.3e-4,0.975 -1.68713,0.33742 -1.68713,0.33743 -1.395,1.1296 -1.39502,1.12962 -0.50134,8.67855 -0.50135,8.67857 -1.76086,6.97222 -1.76085,6.97222 -2.3779,5.00718 -2.3779,5.00719 -3.0784,4.32866 -3.0784,4.32865 -3.63051,3.02135 -3.63051,3.02134 -1.01885,-3.8e-4 -1.01885,-3.8e-4 -3.35002,-2.62992 z"
         style="fill:#000000" />
      <path
         inkscape:connector-curvature="0"
         id="path16748"
         d="m 478.33625,620.30659 2.95554,-2.47452 2.62978,-3.41759 c 5.33669,-6.93544 9.11768,-15.33645 11.21672,-24.92251 l 1.18004,-5.38915 0.4817,-8.36832 0.48171,-8.36833 1.34922,-1.09253 1.34923,-1.09253 -7.63294,0 -7.63294,0 1.41647,1.15174 1.41647,1.15175 -0.11421,9.68583 -0.11419,9.68583 -0.66806,5.81243 -0.66805,5.81242 -1.17567,4.38559 -1.17567,4.38559 -1.5131,2.98595 -1.5131,2.98595 -2.14879,2.37846 -2.14879,2.37846 -1.68344,0 -1.68342,0 -2.18725,-2.55 c -4.28196,-4.99214 -6.27713,-10.37265 -7.73147,-20.85 l -0.87449,-6.3 -0.3999,-8.84027 -0.39989,-8.84026 0.69475,-2.10511 0.69474,-2.10511 1.005,-0.58638 1.005,-0.58638 -7.443,-0.0182 -7.44299,-0.0182 1.11909,1.23657 1.11909,1.23659 0.42107,7.91341 0.42106,7.91343 0.99822,4.8 c 1.91651,9.21562 4.89938,16.56705 9.49463,23.4 l 2.42104,3.6 3.85295,3.75 3.85294,3.75 0.90968,0 0.90968,0 2.95554,-2.47452 z"
         style="fill:#000000" />
      <path
         inkscape:connector-curvature="0"
         id="path16746"
         d="m 168.20483,623.11429 -3.7424,-0.85472 -3.7576,-1.97576 -3.75759,-1.97576 -3.64309,-3.61347 -3.64309,-3.61347 -1.58526,-3.36707 c -0.87188,-1.85189 -1.85839,-4.55189 -2.19224,-6 l -0.60698,-2.63293 -0.0147,-5.1411 -0.0147,-5.1411 0.95723,-3.2589 c 0.52647,-1.7924 1.80897,-4.87886 2.85,-6.85881 l 1.89277,-3.59991 3.60793,-3.60009 3.60794,-3.60009 3.03698,-1.63026 3.03699,-1.63025 3.53114,-0.91975 3.53114,-0.91974 5.26677,0 5.26676,0 5.61923,1.8 c 3.09058,0.99 6.06381,1.8 6.60718,1.8 l 0.98794,0 0,2.00947 c 0,1.10521 0.17462,4.07521 0.38805,6.6 l 0.38803,4.59053 -0.95996,0 -0.95997,0 -1.128,-2.55 -1.128,-2.55 -2.14861,-1.88649 -2.14861,-1.88648 -2.30147,-0.78378 -2.30146,-0.78378 -4.5,-1.3e-4 -4.5,-1.2e-4 -2.83174,1.27857 -2.83175,1.27858 -2.63212,2.70826 -2.63213,2.70826 -1.51644,3.20277 -1.51644,3.20277 -0.74423,3.58078 -0.74422,3.58079 0.3547,4.2 0.35469,4.2 1.2041,3.49816 1.20409,3.49816 2.05981,2.80184 c 2.25376,3.06564 4.1046,4.59575 8.19009,6.77085 l 2.68159,1.42767 5.7,0 5.7,0 2.54933,-1.36019 2.54933,-1.3602 1.4744,-2.23814 1.4744,-2.23815 0.40296,-2.55 0.40295,-2.55 1.18577,0 1.18576,0 -0.42886,4.95 c -0.23587,2.7225 -0.60893,6.02994 -0.82903,7.34986 l -0.40017,2.39986 -1.78342,0.86412 c -0.98088,0.47526 -3.53842,1.36342 -5.68342,1.97368 l -3.9,1.10957 -6,0.2704 -6,0.2704 -3.74241,-0.85471 z"
         style="fill:#000000" />
      <path
         inkscape:connector-curvature="0"
         id="path16744"
         d="m 187.13373,620.97546 4.95761,-1.33771 1.17029,-0.97832 1.17029,-0.97832 0.35431,-3.6 0.35431,-3.6 -1.41479,2.39829 -1.41478,2.39831 -2.68186,1.50169 -2.68187,1.50171 -6.9,0 -6.9,0 -3.17061,-1.67055 -3.17061,-1.67056 -2.37537,-2.44766 -2.37537,-2.44765 -1.82406,-3.70519 -1.82406,-3.70519 -0.65285,-4.1766 -0.65285,-4.1766 0.3117,-4.5 0.3117,-4.5 1.25534,-3.28631 1.25534,-3.28631 2.15959,-3.13563 2.15959,-3.13562 2.81468,-1.80618 2.81469,-1.80618 3.23614,-0.69404 3.23614,-0.69402 3.75587,0.3848 3.75587,0.3848 2.57248,0.90762 2.57248,0.90763 1.44691,1.32972 c 0.7958,0.73134 1.97971,2.13972 2.63092,3.12972 l 1.18402,1.8 -0.36384,-1.09908 c -0.20011,-0.60449 -0.36384,-2.56199 -0.36384,-4.35 l 0,-3.25092 -0.82621,0 c -0.45441,0 -3.45762,-0.81 -6.67379,-1.8 l -5.84759,-1.8 -4.363,0 -4.36301,0 -3.90316,1.20556 -3.90316,1.20557 -3.65077,2.43789 -3.65077,2.43789 -2.68118,3.13834 -2.68118,3.13836 -1.80874,3.64555 c -0.99482,2.00506 -2.08086,4.82575 -2.41343,6.2682 l -0.60467,2.62264 -0.0147,3.92394 -0.0147,3.92394 0.92541,3.57606 0.9254,3.57606 1.9246,3.21415 1.92459,3.21415 3.2369,2.97108 3.2369,2.97108 3.60966,1.82215 3.60966,1.82214 3.65344,0.83322 3.65344,0.83322 4.51444,-0.22457 4.51443,-0.22457 4.95762,-1.3377 z"
         style="fill:#000000" />
      <path
         inkscape:connector-curvature="0"
         id="path16742"
         d="m 359.74724,622.84736 c -2.31,-0.62973 -4.9133,-1.47229 -5.78511,-1.87235 l -1.58512,-0.7274 -0.96488,-6.19516 c -0.53069,-3.40734 -0.96489,-6.7523 -0.96489,-7.43325 l 0,-1.23809 1.11961,0 1.11961,0 1.30765,3.58635 1.30765,3.58637 1.54822,1.83994 1.54821,1.83996 2.30062,1.17369 2.30063,1.17369 3.0478,0 3.04781,0 2.36732,-1.20772 2.36733,-1.20772 0.84987,-1.34228 c 0.46744,-0.73826 1.03884,-2.24708 1.26978,-3.35294 l 0.41989,-2.01065 -0.74314,-2.65421 -0.74313,-2.65421 -3.13829,-2.86822 -3.13829,-2.86821 -4.24977,-2.56775 -4.24976,-2.56775 -2.95829,-2.91199 -2.95828,-2.91199 -1.2664,-2.61602 -1.26639,-2.61602 -0.37419,-2.73004 -0.3742,-2.73004 0.99304,-3.41593 0.99304,-3.41593 2.12266,-2.34953 2.12266,-2.34953 3.27588,-1.22566 3.27587,-1.22566 3.72749,-0.006 3.72749,-0.006 6.09007,1.2933 6.09005,1.2933 0.65995,4.43715 c 0.36296,2.44042 0.65994,5.23611 0.65994,6.21263 l 0,1.77549 -0.80888,0 -0.80887,0 -1.09177,-2.42111 -1.09177,-2.42111 -2.25689,-2.03896 -2.25689,-2.03897 -2.29247,-0.63658 c -1.26085,-0.35012 -3.06166,-0.63809 -4.00179,-0.63992 l -1.70932,-0.004 -2.06711,0.9809 -2.06711,0.98091 -0.87357,1.6893 -0.87357,1.6893 0,2.40891 0,2.40892 1.9482,2.21888 1.9482,2.21887 6.68728,4.39728 6.68728,4.39728 3.00086,3.28342 3.00087,3.28343 0.96366,2.82818 0.96366,2.82819 0,3.6753 0,3.67532 -1.55688,3.12424 -1.55687,3.12424 -2.54092,2.0821 -2.54093,2.08209 -2.90305,1.28416 -2.90306,1.28416 -4.84915,0.23291 -4.84915,0.23292 -4.2,-1.14496 z"
         style="fill:#000000" />
      <path
         inkscape:connector-curvature="0"
         id="path16740"
         d="m 375.35301,621.04037 c 1.47083,-0.65062 3.64284,-1.92173 4.82668,-2.82469 l 2.15245,-1.64175 1.90755,-2.74641 1.90756,-2.74641 -0.0119,-4.5 -0.0119,-4.5 -1.10228,-2.04432 c -0.60625,-1.12438 -2.35589,-3.39145 -3.88809,-5.03794 l -2.78581,-2.99362 -6.30001,-4.16908 c -7.16625,-4.74233 -8.76763,-6.08932 -9.957,-8.37525 l -0.843,-1.6202 0,-3.24888 0,-3.24888 1.30074,-1.65363 1.30074,-1.65362 1.97999,-0.82729 1.97999,-0.82729 2.56927,0.004 2.56928,0.004 2.39802,0.66573 2.39802,0.66572 2.55198,2.55198 2.55198,2.55198 -0.007,-0.97105 c -0.004,-0.53408 -0.1667,-1.93881 -0.36237,-3.12162 l -0.35577,-2.15056 -6.23203,-1.38327 -6.23204,-1.38329 -3.50831,0.31812 -3.5083,0.31813 -2.04729,1.03421 c -4.23298,2.13834 -7.14926,5.99148 -7.97189,10.53284 l -0.38685,2.13561 0.85586,2.84382 0.85587,2.84383 2.43193,3.22107 2.43193,3.22107 6.76793,4.47463 6.76793,4.47462 1.61817,1.72487 1.61817,1.72487 0.93183,2.23073 0.93183,2.23072 -0.0132,2.56928 -0.0132,2.56927 -1.16656,2.57026 -1.16656,2.57026 -2.57026,1.16656 -2.57027,1.16657 -3.76927,0.0132 -3.76927,0.0132 -2.22254,-0.92864 c -1.2224,-0.51075 -2.86946,-1.52325 -3.66014,-2.25 l -1.43759,-1.32136 -1.4484,-3 -1.44841,-3 0.41206,3.571 c 0.22664,1.96406 0.59044,4.23798 0.80846,5.05317 l 0.39639,1.48214 3.26935,1.13337 c 1.79815,0.62335 4.34936,1.37376 5.66936,1.66756 l 2.4,0.53418 3.76576,-0.24961 3.76577,-0.24961 2.67424,-1.18294 z"
         style="fill:#000000" />
      <path
         inkscape:connector-curvature="0"
         id="path16738"
         d="m 516.64725,623.57617 c -0.825,-0.13284 -3.35568,-0.83119 -5.62374,-1.55189 l -4.12373,-1.31037 -0.48152,-1.2164 c -0.26484,-0.66902 -0.7838,-3.3764 -1.15325,-6.0164 -0.36945,-2.64 -0.81604,-5.5425 -0.99241,-6.45 l -0.3207,-1.65 1.4697,0 1.4697,0 0.7587,2.70983 0.7587,2.70982 1.65123,2.60371 1.65122,2.60371 2.65748,1.28646 2.65749,1.28647 2.92113,0 2.92113,0 2.53365,-1.22652 2.53366,-1.22652 0.95578,-2.01416 0.95578,-2.01416 0,-2.51864 0,-2.51865 -0.97777,-2.06049 -0.97776,-2.06048 -2.47224,-2.13095 c -1.35972,-1.17202 -4.30954,-3.22767 -6.55514,-4.56812 l -4.0829,-2.43717 -2.94875,-2.65118 -2.94875,-2.65118 -1.89919,-3.8578 -1.89918,-3.85779 0.30154,-4.21451 0.30155,-4.21451 1.75032,-2.83108 1.75032,-2.83108 3.7814,-1.95751 3.78139,-1.9575 4.59758,0.0272 4.59758,0.0272 5.69938,1.35497 5.69939,1.35497 0.70554,4.76777 c 0.38805,2.62227 0.72583,5.37527 0.75062,6.11777 l 0.0451,1.35004 -0.84273,0 -0.84272,0 -1.82731,-3.2378 -1.8273,-3.23781 -1.8117,-1.29004 -1.8117,-1.29005 -3.24637,-0.68093 -3.24638,-0.68093 -2.25745,0.85918 -2.25745,0.8592 -1.26445,1.69358 -1.26444,1.69359 0,2.62709 0,2.62709 2.4,2.4917 2.4,2.4917 6.63345,4.3855 6.63347,4.38549 2.28414,2.52828 2.28414,2.52827 1.19673,2.7054 1.19673,2.70539 0.31865,3.5142 0.31865,3.5142 -1.0678,2.79601 -1.0678,2.796 -2.16184,2.3929 c -1.18902,1.31609 -3.13443,3.00686 -4.32314,3.75726 l -2.16129,1.36437 -3.20095,0.95058 -3.20094,0.95058 -3.3411,-0.0817 c -1.83761,-0.0449 -4.0161,-0.19039 -4.8411,-0.32323 z"
         style="fill:#000000" />
      <path
         inkscape:connector-curvature="0"
         id="path16736"
         d="m 529.40262,621.04554 2.85537,-1.22639 2.93009,-2.74077 2.9301,-2.74075 1.33041,-3.09263 1.33042,-3.09263 -0.36186,-2.64 -0.36185,-2.64001 -1.13642,-2.56906 -1.13643,-2.56908 -2.29191,-2.53688 -2.29193,-2.53688 -6.62568,-4.38983 -6.62568,-4.38984 -2.3344,-2.41157 -2.3344,-2.41157 -0.27917,-2.9054 -0.27917,-2.9054 0.91345,-2.1862 0.91346,-2.18621 1.67373,-1.09667 1.67372,-1.09666 4.52639,0.0139 4.52639,0.0139 2.52957,1.33786 2.52958,1.33787 1.56875,2.24823 1.56875,2.24822 -0.40942,-3.3 c -0.54007,-4.3531 -3.14534,-5.56064 -13.87788,-6.43244 l -3.69065,-0.29979 -2.30935,0.75285 c -1.27015,0.41407 -3.43648,1.52278 -4.81409,2.4638 l -2.50473,1.71095 -1.62063,3.31244 -1.62063,3.31244 0.2743,2.83988 0.27431,2.83987 1.08062,2.2736 1.08063,2.27361 2.66288,2.96176 2.66287,2.96176 5.20756,3.14168 5.20756,3.14168 2.80994,2.80432 2.80993,2.80432 0.41069,2.18918 0.4107,2.18918 -0.25832,3.57124 -0.25833,3.57124 -1.4623,1.58554 -1.46231,1.58555 -1.93073,0.82267 -1.93073,0.82267 -4.02984,0 -4.02983,0 -2.47534,-1.19829 -2.47533,-1.19829 -1.41432,-1.91297 c -0.77788,-1.05213 -1.92014,-3.1454 -2.53835,-4.65171 l -1.12404,-2.73874 0.28752,1.5 c 0.15813,0.825 0.4734,3.18296 0.70061,5.2399 l 0.4131,3.73991 0.67363,0.50678 c 0.89357,0.67222 5.4779,2.33624 8.47365,3.07575 l 2.4,0.59245 3.9,-0.23198 3.9,-0.23199 2.85537,-1.22638 z"
         style="fill:#000000" />
      <path
         inkscape:connector-curvature="0"
         id="path16734"
         d="m 199.24724,621.46682 0,-1.08571 1.46655,0 1.46653,0 1.68347,-1.44756 1.68345,-1.44756 0.15202,-23.60244 0.15201,-23.60244 -0.76666,-1.5 -0.76665,-1.5 -2.53536,-0.88151 -2.53536,-0.88149 0,-0.91851 0,-0.91849 11.7,0 11.7,0 0,0.91849 0,0.91851 -2.53535,0.88149 -2.53536,0.88151 -0.7558,1.5 -0.7558,1.5 -0.009,6.75 -0.009,6.75 13.5,0 13.5,0 0,-7.39542 0,-7.39541 -1.35,-1.23981 -1.35,-1.23981 -1.95,-0.41245 -1.95,-0.41245 0,-1.00233 0,-1.00232 12,0 12,0 0,1.02281 0,1.02281 -2.11053,0.39594 -2.11053,0.39594 -1.18947,1.51216 -1.18947,1.51217 0,23.85261 0,23.85262 1.06444,1.31452 1.06443,1.31453 2.08194,0.4258 2.08194,0.4258 0.17747,0.92149 0.17746,0.92149 -12.04768,0 -12.04768,0 0.17746,-0.92149 0.17747,-0.92149 2.08194,-0.4258 2.08194,-0.4258 1.06444,-1.31453 1.06443,-1.31452 0,-9.83353 0,-9.83353 -13.5,0 -13.5,0 0,8.91047 0,8.91046 0.62987,1.80683 0.62986,1.80684 1.49837,0.68269 c 0.8241,0.37549 2.02566,0.68271 2.67013,0.68271 l 1.17177,0 0,1.08571 0,1.08572 -11.7,0 -11.7,0 0,-1.08572 z"
         style="fill:#000000" />
      <path
         inkscape:connector-curvature="0"
         id="path16732"
         d="m 216.65675,619.98433 -1.50951,-1.29678 -0.1871,-11.15322 -0.18711,-11.15322 14.73711,0 14.7371,0 0,10.83944 0,10.83945 -0.63922,1.1944 -0.63922,1.19439 -1.12498,0.41616 -1.12498,0.41616 7.7284,0 7.7284,0 -1.12498,-0.41616 -1.12497,-0.41616 -0.63923,-1.19439 -0.63922,-1.1944 0,-24.96672 0,-24.96672 1.47273,-1.47272 1.47273,-1.47273 -7.14546,0 -7.14545,0 1.47272,1.47273 1.47273,1.47272 0,8.42728 0,8.42727 -14.74426,0 -14.74427,0 0.19427,-8.75439 0.19426,-8.75439 1.41647,-1.14561 1.41647,-1.14561 -7.03294,0 -7.03294,0 1.41647,1.14699 1.41647,1.14698 0,25.60497 0,25.60496 -1.50813,1.29805 -1.50814,1.29805 7.21765,0 7.21764,0 -1.50951,-1.29678 z"
         style="fill:#000000" />
      <path
         inkscape:connector-curvature="0"
         id="path16730"
         d="m 214.84724,590.38111 0,-3 14.7,0 14.7,0 0,3 0,3 -14.7,0 -14.7,0 0,-3 z"
         style="fill:#000000" />
      <path
         inkscape:connector-curvature="0"
         id="path16728"
         d="m 243.04724,590.38111 0,-1.8 -13.5,0 -13.5,0 0,1.8 0,1.8 13.5,0 13.5,0 0,-1.8 z"
         style="fill:#ffffff;fill-opacity:1" />
      <path
         inkscape:connector-curvature="0"
         id="path16726"
         d="m 323.44724,621.46838 0,-1.08727 1.17177,0 c 0.64448,0 1.8297,-0.29977 2.63384,-0.66616 l 1.46207,-0.66617 0.66616,-1.46206 0.66616,-1.46208 0,-23.23826 0,-23.23827 -0.9217,-1.31592 -0.92171,-1.31592 -2.37829,-0.71256 -2.3783,-0.71255 0,-0.95503 0,-0.95502 11.7,0 11.7,0 0,0.95502 0,0.95503 -2.4465,0.73299 -2.4465,0.73299 -0.87382,2.09135 -0.87381,2.09134 0.17031,23.12309 0.17032,23.1231 1.68346,1.44755 1.68346,1.44754 1.46654,0 1.46654,0 0,1.06989 0,1.06989 -11.7,0.0174 -11.7,0.0174 0,-1.08728 z"
         style="fill:#000000" />
      <path
         inkscape:connector-curvature="0"
         id="path16724"
         d="m 340.85538,619.98365 -1.50814,-1.29745 -0.18649,-23.00255 -0.18649,-23.00254 0.37974,-2.59325 0.37974,-2.59325 1.15675,-1.15675 1.15675,-1.15675 -6.87273,0 -6.87272,0 1.47272,1.47273 1.47273,1.47272 0,24.59904 0,24.59904 -0.66844,1.46709 -0.66845,1.46709 -1.14661,0.51114 -1.1466,0.51115 7.37319,0 7.37319,0 -1.50814,-1.29746 z"
         style="fill:#000000" />
      <path
         inkscape:connector-curvature="0"
         id="path16722"
         d="m 403.84725,621.46165 0,-1.08054 1.82727,0 1.82727,0 1.47273,-1.47273 1.47273,-1.47273 0,-22.82727 0,-22.82727 -8.04667,0 -8.04666,0 -1.51188,1.79676 c -0.83153,0.98822 -1.68373,2.33822 -1.89377,3 l -0.38189,1.20324 -0.85957,0 -0.85956,0 -0.01,-0.75 c -0.005,-0.4125 0.98592,-4.4625 2.2027,-9 l 2.21235,-8.25 0.7973,0 0.79729,0 0,1.47889 0,1.47888 1.16055,0.62112 1.16056,0.62111 20.35853,0 20.35853,0 1.5929,-1.25298 1.5929,-1.25298 0.90342,-1.74702 0.90342,-1.74702 0.5846,0 0.58459,0 0,1.36206 c 0,1.24396 -0.93357,5.01493 -3.33919,13.48794 l -0.89433,3.15 -0.84523,0 -0.84522,0 -0.18802,-1.95 -0.18801,-1.95 -8.25,-0.16694 -8.25,-0.16693 0,22.75047 0,22.75046 1.06443,1.31452 1.06444,1.31453 2.08194,0.4258 2.08194,0.4258 0.17764,0.92239 0.17763,0.92239 -12.02401,-0.0157 -12.02401,-0.0157 0,-1.08055 z"
         style="fill:#000000" />
      <path
         inkscape:connector-curvature="0"
         id="path16720"
         d="m 421.39725,619.95838 -1.35,-1.32273 0,-24.02727 0,-24.02727 8.73944,0 8.73944,0 1.09158,0.58419 1.09159,0.5842 0.96897,-3.85751 c 1.21851,-4.85091 1.2276,-4.76008 -0.36453,-3.6449 l -1.3335,0.93402 -21.50594,0 -21.50594,0 -1.14075,-0.61051 -1.14073,-0.61051 -0.9609,3.46051 c -0.52849,1.90328 -1.07385,3.81083 -1.21191,4.23899 l -0.25103,0.7785 1.32561,-0.9285 1.3256,-0.92848 8.8665,0 8.8665,0 0,23.73944 0,23.73945 -0.63923,1.1944 -0.63922,1.19439 -1.12497,0.41616 -1.12499,0.41616 7.31421,0 7.3142,0 -1.35,-1.32273 z"
         style="fill:#000000" />
      <path
         inkscape:connector-curvature="0"
         id="path16718"
         d="m 170.50046,552.43111 c -0.28439,-0.7425 -3.82759,-9.72 -7.87377,-19.95 -4.04619,-10.23001 -9.75431,-24.66557 -12.68471,-32.07904 l -5.328,-13.47903 -1.2716,-1.35355 -1.2716,-1.35356 -1.86177,-0.56353 c -1.02397,-0.30993 -2.60427,-0.72791 -3.51177,-0.92884 l -1.65,-0.36532 0,-1.09214 0,-1.09214 15.9,0 15.9,0 0,1.08045 0,1.08044 -2.30472,0.6206 -2.30471,0.6206 -1.10178,1.21744 -1.10177,1.21745 -0.0285,2.83508 -0.0285,2.83508 7.75652,19.9485 7.75652,19.94849 0.40428,-0.44849 c 0.22236,-0.24667 2.99044,-7.0635 6.1513,-15.1485 3.16086,-8.085 6.70441,-17.12853 7.87455,-20.09674 1.17015,-2.96821 2.29097,-6.26789 2.49072,-7.33263 l 0.36318,-1.9359 -1.7173,-1.71729 -1.7173,-1.7173 -2.54622,-0.40716 -2.54622,-0.40716 0,-1.11373 0,-1.11373 12.9,0.0112 12.9,0.0112 0,1.09819 0,1.09819 -1.65,0.33404 c -0.9075,0.18372 -2.58813,0.79637 -3.73475,1.36143 l -2.08474,1.02739 -1.30267,2.32915 c -0.71647,1.28104 -6.93333,16.73746 -13.81525,34.34762 l -12.51259,32.01843 -1.96485,0.002 -1.96485,0.002 -0.51708,-1.35 z"
         style="fill:#000000" />
      <path
         inkscape:connector-curvature="0"
         id="path16716"
         d="m 185.39763,522.7311 c 6.39483,-16.4175 12.50273,-31.78206 13.57313,-34.14347 l 1.94617,-4.29348 1.58018,-1.03538 c 0.86911,-0.56945 2.42356,-1.20786 3.45436,-1.41868 l 1.87417,-0.38331 -10.33894,0 -10.33895,0 1.99975,0.48946 1.99974,0.48946 1.41578,1.58262 1.41577,1.58264 -0.26741,2.74007 -0.2674,2.74007 -5.89457,15 c -3.242,8.25 -6.89462,17.565 -8.11693,20.70001 l -2.22237,5.7 -1.43143,0.17283 -1.43144,0.17283 -3.53701,-9.17284 c -1.94536,-5.04505 -5.45536,-14.03283 -7.8,-19.97283 l -4.26299,-10.8 0.002,-3.9894 0.002,-3.9894 1.14903,-1.26967 1.14903,-1.26966 1.72885,-0.44799 1.72885,-0.44799 -13.98005,-0.0131 -13.98003,-0.0132 2.52208,0.43416 c 3.25967,0.56113 4.63134,1.32346 6.03675,3.35505 l 1.14229,1.65121 6.05592,15.3 c 6.02151,15.21306 18.37487,46.47149 19.38461,49.05001 l 0.52865,1.35 0.77657,0 0.77657,0 11.62695,-29.85001 z"
         style="fill:#000000" />
      <path
         inkscape:connector-curvature="0"
         id="path16714"
         d="m 213.77513,548.6978 0.17211,-1.1833 2.53132,-0.49831 2.53133,-0.49832 1.21867,-1.54929 1.21868,-1.54931 0,-28.74635 0,-28.74636 -1.40372,-1.40373 -1.40373,-1.40371 -2.49627,-0.42175 -2.49628,-0.42175 0,-1.03926 0,-1.03926 14.1,0 14.1,0 0,1.02523 0,1.02523 -2.09763,0.39351 -2.09763,0.39352 -1.65237,1.42093 -1.65237,1.42093 -0.16752,28.08574 -0.16754,28.08575 0.70205,1.69488 0.70204,1.69488 1.68569,0.8717 1.68569,0.87171 1.5298,0 1.52979,0 -7e-5,1.35 -7e-5,1.35 -14.12205,0 -14.12203,0 0.17211,-1.18331 z"
         style="fill:#000000" />
      <path
         inkscape:connector-curvature="0"
         id="path16712"
         d="m 235.719,547.44932 -1.62824,-0.88374 -0.6575,-2.24224 -0.6575,-2.24223 0.18575,-28.58757 0.18573,-28.58756 1.1512,-1.27151 1.1512,-1.2715 1.70161,-0.44093 1.70161,-0.44094 -10.80562,0 -10.80562,0 1.77593,0.46019 1.77592,0.46019 0.92689,1.32332 0.92688,1.32331 0,29.60594 0,29.60594 -0.61508,1.1493 -0.61509,1.1493 -1.63491,0.88724 -1.63492,0.88723 9.6,0 9.6,0 -1.62824,-0.88374 z"
         style="fill:#000000" />
      <path
         inkscape:connector-curvature="0"
         id="path16710"
         d="m 246.7751,548.68918 0.17214,-1.19192 2.30005,-0.37176 2.30005,-0.37176 1.52825,-1.52826 1.52825,-1.52825 0.49084,-9.20806 c 1.11354,-20.89021 6.14935,-35.69172 16.29939,-47.90807 l 3.24034,-3.9 3.39867,-2.61699 3.39867,-2.61699 1.53289,0.38474 1.5329,0.38473 4.70125,4.49156 4.70126,4.49155 2.69934,4.0407 c 8.24718,12.34537 13.0249,29.3862 13.04293,46.5205 l 0.005,4.6798 0.855,1.65339 0.85501,1.65339 1.57323,0.71681 c 0.86527,0.39425 2.23552,0.71682 3.04499,0.71682 l 1.47177,0 0,1.35 0,1.35 -14.4,0 -14.4,0 0,-1.35 0,-1.35 1.55743,0 1.55743,0 1.75155,-1.03467 1.75156,-1.03467 0.58767,-2.11533 c 0.6877,-2.47539 0.7406,-5.04016 0.20889,-10.12732 l -0.38535,-3.68801 -13.71453,0 -13.71453,0 0,6.56094 0,6.56094 0.57423,1.51032 0.57422,1.51032 1.79598,0.92874 1.79598,0.92874 1.5298,0 1.52979,0 -9e-5,1.35 -10e-5,1.35 -14.72204,0 -14.72204,0 0.17213,-1.19193 z"
         style="fill:#000000" />
      <path
         inkscape:connector-curvature="0"
         id="path16708"
         d="m 270.11328,547.5438 -1.43395,-0.79478 -0.79478,-1.43396 -0.79479,-1.43395 -0.0213,-7.95 -0.0213,-7.95 14.94401,0 14.944,0 0.43096,5.74812 0.43095,5.74811 -0.37803,2.75803 -0.37803,2.75803 -1.04693,1.16467 c -0.57581,0.64057 -1.58693,1.38569 -2.24693,1.65582 l -1.2,0.49115 10.2,0.0221 10.2,0.0221 -1.62966,-1.01066 -1.62966,-1.01066 -0.57144,-1.52337 -0.57143,-1.52337 -0.33726,-7.8 -0.33725,-7.8 -0.93314,-5.25706 c -0.51323,-2.89138 -1.60603,-7.61638 -2.42844,-10.5 l -1.49529,-5.24295 -3.26541,-6.6 -3.26541,-6.6 -3.12416,-3.9 c -1.71829,-2.145 -4.73129,-5.3175 -6.69557,-7.05 l -3.5714,-3.15 -0.81569,0 -0.81568,0 -3.70834,3.15 -3.70834,3.15 -3.21551,4.2 -3.21551,4.2 -2.93079,6 -2.93078,6 -1.50876,4.84436 c -0.82982,2.66439 -1.95494,7.11939 -2.50027,9.9 l -0.9915,5.05564 -0.43875,9.08302 -0.43875,9.083 -1.04789,1.59927 -1.04787,1.59926 -1.31503,0.5297 -1.31502,0.52969 10.2,0.0168 10.2,0.0167 -1.43396,-0.79478 z"
         style="fill:#000000" />
      <path
         inkscape:connector-curvature="0"
         id="path16706"
         d="m 267.88865,518.90243 c 0.76836,-10.17834 3.02068,-19.61721 6.19246,-25.951 l 1.46709,-2.92967 2.73163,-2.92033 2.73162,-2.92033 1.37115,0 1.37113,0 2.204,2.55 c 1.21219,1.4025 2.9908,3.9 3.95245,5.55 l 1.74846,3 1.45652,4.56138 1.45653,4.56138 0.90859,6.23862 c 0.49973,3.43124 1.09161,7.92612 1.31528,9.98862 l 0.40668,3.75 -14.86358,0 -14.86359,0 0.41358,-5.47867 z"
         style="fill:#000000" />
      <path
         inkscape:connector-curvature="0"
         id="path16704"
         d="m 295.59376,521.2311 c -0.16933,-1.0725 -0.59555,-4.30442 -0.94715,-7.18205 -0.35161,-2.87764 -1.17459,-7.33264 -1.82886,-9.9 l -1.18959,-4.66795 -2.00727,-4.2 -2.00726,-4.2 -2.56955,-2.89017 -2.56955,-2.89017 -2.65782,2.59017 -2.65782,2.59017 -2.31633,4.8 -2.31633,4.8 -0.95225,3.73583 c -1.01296,3.97401 -2.6974,14.96128 -2.71575,17.71417 l -0.011,1.65 13.52719,0 13.52719,0 -0.30786,-1.95 z"
         style="fill:#ffffff;fill-opacity:1" />
      <path
         inkscape:connector-curvature="0"
         id="path16702"
         d="m 585.34725,491.0147 c -6.55174,-2.40737 -27.33355,-6.80864 -38.21764,-8.09392 l -6.41764,-0.75784 -1.34137,-3.64092 c -10.36683,-28.13889 -28.36757,-64.91835 -43.50429,-88.88878 -2.10048,-3.32632 -3.81906,-6.38362 -3.81906,-6.79399 l 0,-0.74614 0.8245,0.194 c 0.45347,0.10669 8.11123,5.86399 17.01724,12.79399 l 16.19274,12.6 6.76995,15 c 3.72348,8.25 10.41307,23.1 14.86576,33 4.45269,9.9 8.29511,18.22316 8.53871,18.4959 l 0.44289,0.4959 13.12411,2.98782 13.1241,2.98782 1.91803,1.30598 1.91803,1.30597 1.23197,2.192 1.23197,2.192 0,2.1683 0,2.16831 -0.75,-0.0423 c -0.4125,-0.0233 -1.83,-0.43911 -3.15,-0.92413 z"
         style="fill:#000000" />
      <path
         inkscape:connector-curvature="0"
         id="path16700"
         d="m 588.03738,489.4311 c -0.005,-0.4125 -0.61308,-1.81495 -1.35034,-3.11656 l -1.34046,-2.36657 -1.83033,-1.06897 -1.83033,-1.06896 -13.14057,-3.01571 c -7.22732,-1.65864 -13.31336,-3.21765 -13.52453,-3.46447 -0.21117,-0.24681 -7.06704,-15.29876 -15.23527,-33.44876 l -14.85132,-33 -13.87194,-10.8 c -7.62956,-5.94 -14.14272,-10.90953 -14.47369,-11.0434 l -0.60176,-0.2434 1.04661,1.59733 c 0.57564,0.87853 3.16087,5.18621 5.74496,9.57262 13.34261,22.64864 24.87782,46.59246 35.79881,74.30817 l 3.44995,8.75541 6.36004,0.73456 c 9.6849,1.11856 30.61746,5.43808 36.36004,7.50303 2.99968,1.07865 3.30235,1.09389 3.29013,0.16568 z"
         style="fill:#000000" />
      <path
         inkscape:connector-curvature="0"
         id="path16698"
         d="m 526.24725,480.54518 c -11.54437,-1.22193 -47.41751,-3.31698 -67.96134,-3.96906 l -11.86134,-0.37648 -0.3547,-1.41321 -0.3547,-1.41322 0.37994,-2.02521 0.37993,-2.02522 1.76081,-2.43072 1.7608,-2.43072 2.67474,-1.56751 c 1.4711,-0.86212 3.57499,-1.8322 4.67529,-2.15572 l 2.00057,-0.58823 20.60568,0.65993 c 24.25898,0.77694 22.0248,1.63169 17.21845,-6.58745 -2.15827,-3.69075 -3.92413,-6.85572 -3.92413,-7.03324 0,-0.17753 -0.49747,-1.03946 -1.10548,-1.9154 -0.60802,-0.87594 -1.88542,-3.07762 -2.83868,-4.89262 -0.95325,-1.815 -2.172,-3.975 -2.70834,-4.8 -2.73195,-4.20234 -7.7475,-13.20731 -7.7475,-13.90993 l 0,-0.80233 1.5,-1.61768 c 0.825,-0.88973 1.5,-1.80416 1.5,-2.03208 0,-0.22791 0.88956,-1.5222 1.97681,-2.87618 1.08725,-1.35399 3.26089,-4.2843 4.83031,-6.5118 l 2.85351,-4.05 0.79689,0 0.79689,0 0.74314,1.95 c 0.40873,1.0725 1.13342,2.8365 1.61043,3.91999 l 0.86729,1.96999 1.06891,-1.32004 1.06891,-1.32005 1.0065,0.38623 1.00649,0.38623 7.18696,14.70494 c 3.95283,8.08772 7.18696,14.83801 7.18696,15.00066 0,0.16266 0.91097,2.25915 2.02438,4.65889 1.11341,2.39974 3.43069,7.60316 5.1495,11.56316 1.71882,3.96 3.61162,8.28 4.20622,9.6 0.5946,1.32 1.96834,4.695 3.05277,7.5 1.08443,2.805 2.19566,5.3565 2.46941,5.67 0.27374,0.3135 0.49772,1.056 0.49772,1.65 l 0,1.08 -0.75,-0.0798 c -0.4125,-0.0439 -2.775,-0.29414 -5.25,-0.55611 z"
         style="fill:#000000" />
      <path
         inkscape:connector-curvature="0"
         id="path15815"
         d="m 529.84725,478.74503 c 0,-0.68247 -5.49895,-14.29079 -8.13264,-20.12594 -0.87828,-1.94589 -2.01336,-4.48299 -2.52241,-5.63799 -5.05027,-11.45879 -10.70649,-23.52412 -15.30531,-32.64788 l -4.8126,-9.54788 -0.72966,0.99788 -0.72968,0.99788 -0.99267,0 -0.99267,0 -1.18894,-1.95 c -0.65391,-1.0725 -1.18995,-2.40656 -1.19118,-2.96459 l -0.002,-1.01459 -0.64596,-0.39922 -0.64595,-0.39922 -1.15405,1.23872 c -0.63472,0.6813 -1.15404,1.4043 -1.15404,1.60667 0,0.20237 -0.3375,0.72058 -0.75,1.15157 -0.4125,0.43099 -1.0903,1.28921 -1.50623,1.90714 -0.41593,0.61794 -2.10343,3.0061 -3.75,5.30703 -3.58408,5.0084 -3.54041,4.41382 -0.68156,9.28042 5.26794,8.9676 8.29485,14.18825 8.71786,15.03607 0.24698,0.495 1.17375,2.14712 2.05949,3.67138 0.88574,1.52425 3.16294,5.47967 5.06044,8.78981 l 3.45,6.01845 0,1.26018 0,1.26018 -3.45,-0.004 c -1.8975,-0.002 -11.35711,-0.28026 -21.02135,-0.61769 l -17.57135,-0.6135 -2.32129,0.69548 -2.32128,0.69547 -2.87248,2.17221 -2.87248,2.17222 -1.44082,2.80119 -1.44081,2.80117 0.36693,1.1561 0.36693,1.1561 11.839,0.38691 c 18.76022,0.6131 62.39663,3.06727 64.939,3.65225 0.495,0.11389 1.9125,0.2384 3.15,0.27668 l 2.25,0.0696 0,-0.63607 z"
         style="fill:#000000" />
    </g>
  </g>
</svg>
