<?xml version="1.0" encoding="UTF-8" standalone="no"?>
<!-- Created with Inkscape (http://www.inkscape.org/) -->

<svg
   xmlns:dc="http://purl.org/dc/elements/1.1/"
   xmlns:cc="http://creativecommons.org/ns#"
   xmlns:rdf="http://www.w3.org/1999/02/22-rdf-syntax-ns#"
   xmlns:svg="http://www.w3.org/2000/svg"
   xmlns="http://www.w3.org/2000/svg"
   xmlns:sodipodi="http://sodipodi.sourceforge.net/DTD/sodipodi-0.dtd"
   xmlns:inkscape="http://www.inkscape.org/namespaces/inkscape"
   id="svg423794"
   version="1.1"
   inkscape:version="0.91 r13725"
   xml:space="preserve"
   width="144.45535mm"
   height="93.894707mm"
   viewBox="0 0 511.84968 332.69778"
   sodipodi:docname="vc_logo_renkli.svg"
   style="enable-background:new"><metadata
     id="metadata423800"><rdf:RDF><cc:Work
         rdf:about=""><dc:format>image/svg+xml</dc:format><dc:type
           rdf:resource="http://purl.org/dc/dcmitype/StillImage" /><dc:title></dc:title></cc:Work></rdf:RDF></metadata><defs
     id="defs423798"><linearGradient
       x1="0"
       y1="0"
       x2="1"
       y2="0"
       gradientUnits="userSpaceOnUse"
       gradientTransform="matrix(-17.870222,28.413605,28.413605,17.870222,61.503716,12.810643)"
       spreadMethod="pad"
       id="linearGradient423816"><stop
         style="stop-opacity:1;stop-color:#9b161b"
         offset="0"
         id="stop423818" /><stop
         style="stop-opacity:1;stop-color:#ed1c24"
         offset="0.5"
         id="stop423820" /><stop
         style="stop-opacity:1;stop-color:#ad1a1f"
         offset="1"
         id="stop423822" /></linearGradient><linearGradient
       x1="0"
       y1="0"
       x2="1"
       y2="0"
       gradientUnits="userSpaceOnUse"
       gradientTransform="matrix(-6.288547,9.9987726,9.9987726,6.288547,64.751274,10.761317)"
       spreadMethod="pad"
       id="linearGradient423838"><stop
         style="stop-opacity:1;stop-color:#9b161b"
         offset="0"
         id="stop423840" /><stop
         style="stop-opacity:1;stop-color:#ed1c24"
         offset="0.5"
         id="stop423842" /><stop
         style="stop-opacity:1;stop-color:#ad1a1f"
         offset="1"
         id="stop423844" /></linearGradient><linearGradient
       x1="0"
       y1="0"
       x2="1"
       y2="0"
       gradientUnits="userSpaceOnUse"
       gradientTransform="matrix(-17.550281,27.904898,27.904898,17.550281,62.056431,13.802424)"
       spreadMethod="pad"
       id="linearGradient423860"><stop
         style="stop-opacity:1;stop-color:#9b161b"
         offset="0"
         id="stop423862" /><stop
         style="stop-opacity:1;stop-color:#ed1c24"
         offset="0.5"
         id="stop423864" /><stop
         style="stop-opacity:1;stop-color:#ad1a1f"
         offset="1"
         id="stop423866" /></linearGradient><linearGradient
       x1="0"
       y1="0"
       x2="1"
       y2="0"
       gradientUnits="userSpaceOnUse"
       gradientTransform="matrix(-12.373005,24.566791,24.566791,12.373005,59.476261,12.003956)"
       spreadMethod="pad"
       id="linearGradient423882"><stop
         style="stop-opacity:1;stop-color:#ed1c24"
         offset="0"
         id="stop423884" /><stop
         style="stop-opacity:1;stop-color:#f1471d"
         offset="1"
         id="stop423886" /></linearGradient><linearGradient
       x1="0"
       y1="0"
       x2="1"
       y2="0"
       gradientUnits="userSpaceOnUse"
       gradientTransform="matrix(-12.268184,24.358667,24.358667,12.268184,63.049233,14.085836)"
       spreadMethod="pad"
       id="linearGradient423902"><stop
         style="stop-opacity:1;stop-color:#ed1c24"
         offset="0"
         id="stop423904" /><stop
         style="stop-opacity:1;stop-color:#f1471d"
         offset="1"
         id="stop423906" /></linearGradient><clipPath
       clipPathUnits="userSpaceOnUse"
       id="clipPath423914"><path
         d="m 0,45.354 68.031,0 L 68.031,0 0,0 0,45.354 Z"
         id="path423916"
         inkscape:connector-curvature="0" /></clipPath><linearGradient
       x1="0"
       y1="0"
       x2="1"
       y2="0"
       gradientUnits="userSpaceOnUse"
       gradientTransform="matrix(-12.269287,24.360857,24.360857,12.269287,65.705971,15.08988)"
       spreadMethod="pad"
       id="linearGradient423934"><stop
         style="stop-opacity:1;stop-color:#ed1c24"
         offset="0"
         id="stop423936" /><stop
         style="stop-opacity:1;stop-color:#f1471d"
         offset="1"
         id="stop423938" /></linearGradient><clipPath
       clipPathUnits="userSpaceOnUse"
       id="clipPath423946"><path
         d="m 0,45.354 68.031,0 L 68.031,0 0,0 0,45.354 Z"
         id="path423948"
         inkscape:connector-curvature="0" /></clipPath><linearGradient
       x1="0"
       y1="0"
       x2="1"
       y2="0"
       gradientUnits="userSpaceOnUse"
       gradientTransform="matrix(6.9928479,-26.3575,-26.3575,-6.9928479,6.4541926,28.819384)"
       spreadMethod="pad"
       id="linearGradient423970"><stop
         style="stop-opacity:1;stop-color:#9b161b"
         offset="0"
         id="stop423972" /><stop
         style="stop-opacity:1;stop-color:#ed1c24"
         offset="0.5"
         id="stop423974" /><stop
         style="stop-opacity:1;stop-color:#ad1a1f"
         offset="1"
         id="stop423976" /></linearGradient><linearGradient
       x1="0"
       y1="0"
       x2="1"
       y2="0"
       gradientUnits="userSpaceOnUse"
       gradientTransform="matrix(6.9935336,-26.360084,-26.360084,-6.9935336,12.543137,30.428617)"
       spreadMethod="pad"
       id="linearGradient423992"><stop
         style="stop-opacity:1;stop-color:#9b161b"
         offset="0"
         id="stop423994" /><stop
         style="stop-opacity:1;stop-color:#ed1c24"
         offset="0.5"
         id="stop423996" /><stop
         style="stop-opacity:1;stop-color:#ad1a1f"
         offset="1"
         id="stop423998" /></linearGradient><linearGradient
       x1="0"
       y1="0"
       x2="1"
       y2="0"
       gradientUnits="userSpaceOnUse"
       gradientTransform="matrix(6.9939127,-26.361513,-26.361513,-6.9939127,18.488403,32.012974)"
       spreadMethod="pad"
       id="linearGradient424014"><stop
         style="stop-opacity:1;stop-color:#9b161b"
         offset="0"
         id="stop424016" /><stop
         style="stop-opacity:1;stop-color:#ed1c24"
         offset="0.5"
         id="stop424018" /><stop
         style="stop-opacity:1;stop-color:#ad1a1f"
         offset="1"
         id="stop424020" /></linearGradient><linearGradient
       x1="0"
       y1="0"
       x2="1"
       y2="0"
       gradientUnits="userSpaceOnUse"
       gradientTransform="matrix(6.9934964,-26.359943,-26.359943,-6.9934964,2.5937552,27.795639)"
       spreadMethod="pad"
       id="linearGradient424036"><stop
         style="stop-opacity:1;stop-color:#9b161b"
         offset="0"
         id="stop424038" /><stop
         style="stop-opacity:1;stop-color:#ed1c24"
         offset="0.5"
         id="stop424040" /><stop
         style="stop-opacity:1;stop-color:#ad1a1f"
         offset="1"
         id="stop424042" /></linearGradient><linearGradient
       x1="0"
       y1="0"
       x2="1"
       y2="0"
       gradientUnits="userSpaceOnUse"
       gradientTransform="matrix(6.9934955,-26.35994,-26.35994,-6.9934955,10.044999,29.772285)"
       spreadMethod="pad"
       id="linearGradient424058"><stop
         style="stop-opacity:1;stop-color:#9b161b"
         offset="0"
         id="stop424060" /><stop
         style="stop-opacity:1;stop-color:#ed1c24"
         offset="0.5"
         id="stop424062" /><stop
         style="stop-opacity:1;stop-color:#ad1a1f"
         offset="1"
         id="stop424064" /></linearGradient><linearGradient
       x1="0"
       y1="0"
       x2="1"
       y2="0"
       gradientUnits="userSpaceOnUse"
       gradientTransform="matrix(6.9935632,-26.360197,-26.360197,-6.9935632,19.236172,32.211002)"
       spreadMethod="pad"
       id="linearGradient424080"><stop
         style="stop-opacity:1;stop-color:#9b161b"
         offset="0"
         id="stop424082" /><stop
         style="stop-opacity:1;stop-color:#ed1c24"
         offset="0.5"
         id="stop424084" /><stop
         style="stop-opacity:1;stop-color:#ad1a1f"
         offset="1"
         id="stop424086" /></linearGradient><linearGradient
       x1="0"
       y1="0"
       x2="1"
       y2="0"
       gradientUnits="userSpaceOnUse"
       gradientTransform="matrix(6.9934597,-26.359806,-26.359806,-6.9934597,23.907682,33.449963)"
       spreadMethod="pad"
       id="linearGradient424102"><stop
         style="stop-opacity:1;stop-color:#9b161b"
         offset="0"
         id="stop424104" /><stop
         style="stop-opacity:1;stop-color:#ed1c24"
         offset="0.5"
         id="stop424106" /><stop
         style="stop-opacity:1;stop-color:#ad1a1f"
         offset="1"
         id="stop424108" /></linearGradient><linearGradient
       x1="0"
       y1="0"
       x2="1"
       y2="0"
       gradientUnits="userSpaceOnUse"
       gradientTransform="matrix(6.9937177,-26.360777,-26.360777,-6.9937177,28.206898,34.591404)"
       spreadMethod="pad"
       id="linearGradient424124"><stop
         style="stop-opacity:1;stop-color:#9b161b"
         offset="0"
         id="stop424126" /><stop
         style="stop-opacity:1;stop-color:#ed1c24"
         offset="0.5"
         id="stop424128" /><stop
         style="stop-opacity:1;stop-color:#ad1a1f"
         offset="1"
         id="stop424130" /></linearGradient><linearGradient
       x1="0"
       y1="0"
       x2="1"
       y2="0"
       gradientUnits="userSpaceOnUse"
       gradientTransform="matrix(6.9930696,-26.358335,-26.358335,-6.9930696,35.486622,36.520508)"
       spreadMethod="pad"
       id="linearGradient424146"><stop
         style="stop-opacity:1;stop-color:#9b161b"
         offset="0"
         id="stop424148" /><stop
         style="stop-opacity:1;stop-color:#ed1c24"
         offset="0.5"
         id="stop424150" /><stop
         style="stop-opacity:1;stop-color:#ad1a1f"
         offset="1"
         id="stop424152" /></linearGradient><linearGradient
       x1="0"
       y1="0"
       x2="1"
       y2="0"
       gradientUnits="userSpaceOnUse"
       gradientTransform="matrix(6.9940472,-26.36202,-26.36202,-6.9940472,43.224129,38.576656)"
       spreadMethod="pad"
       id="linearGradient424168"><stop
         style="stop-opacity:1;stop-color:#9b161b"
         offset="0"
         id="stop424170" /><stop
         style="stop-opacity:1;stop-color:#ed1c24"
         offset="0.5"
         id="stop424172" /><stop
         style="stop-opacity:1;stop-color:#ad1a1f"
         offset="1"
         id="stop424174" /></linearGradient><linearGradient
       x1="0"
       y1="0"
       x2="1"
       y2="0"
       gradientUnits="userSpaceOnUse"
       gradientTransform="matrix(6.9937267,-26.360813,-26.360813,-6.9937267,48.425324,39.955646)"
       spreadMethod="pad"
       id="linearGradient424190"><stop
         style="stop-opacity:1;stop-color:#9b161b"
         offset="0"
         id="stop424192" /><stop
         style="stop-opacity:1;stop-color:#ed1c24"
         offset="0.5"
         id="stop424194" /><stop
         style="stop-opacity:1;stop-color:#ad1a1f"
         offset="1"
         id="stop424196" /></linearGradient><linearGradient
       x1="0"
       y1="0"
       x2="1"
       y2="0"
       gradientUnits="userSpaceOnUse"
       gradientTransform="matrix(-66.25605,21.264332,21.264332,66.25605,41.09523,-6.2429633)"
       spreadMethod="pad"
       id="linearGradient424212"><stop
         style="stop-opacity:1;stop-color:#9c161c"
         offset="0"
         id="stop424214" /><stop
         style="stop-opacity:1;stop-color:#ed1c24"
         offset="0.5"
         id="stop424216" /><stop
         style="stop-opacity:1;stop-color:#ae1a1f"
         offset="1"
         id="stop424218" /></linearGradient><linearGradient
       x1="0"
       y1="0"
       x2="1"
       y2="0"
       gradientUnits="userSpaceOnUse"
       gradientTransform="matrix(-66.262283,21.266333,21.266333,66.262283,41.112431,-6.2038846)"
       spreadMethod="pad"
       id="linearGradient424234"><stop
         style="stop-opacity:1;stop-color:#9c161c"
         offset="0"
         id="stop424236" /><stop
         style="stop-opacity:1;stop-color:#ed1c24"
         offset="0.5"
         id="stop424238" /><stop
         style="stop-opacity:1;stop-color:#ae1a1f"
         offset="1"
         id="stop424240" /></linearGradient><linearGradient
       x1="0"
       y1="0"
       x2="1"
       y2="0"
       gradientUnits="userSpaceOnUse"
       gradientTransform="matrix(-66.272102,21.269485,21.269485,66.272102,41.682236,-4.4429197)"
       spreadMethod="pad"
       id="linearGradient424256"><stop
         style="stop-opacity:1;stop-color:#9c161c"
         offset="0"
         id="stop424258" /><stop
         style="stop-opacity:1;stop-color:#ed1c24"
         offset="0.5"
         id="stop424260" /><stop
         style="stop-opacity:1;stop-color:#ae1a1f"
         offset="1"
         id="stop424262" /></linearGradient><linearGradient
       x1="0"
       y1="0"
       x2="1"
       y2="0"
       gradientUnits="userSpaceOnUse"
       gradientTransform="matrix(-66.280304,21.272118,21.272118,66.280304,41.958347,-3.5921836)"
       spreadMethod="pad"
       id="linearGradient424278"><stop
         style="stop-opacity:1;stop-color:#9c161c"
         offset="0"
         id="stop424280" /><stop
         style="stop-opacity:1;stop-color:#ed1c24"
         offset="0.5"
         id="stop424282" /><stop
         style="stop-opacity:1;stop-color:#ae1a1f"
         offset="1"
         id="stop424284" /></linearGradient><linearGradient
       x1="0"
       y1="0"
       x2="1"
       y2="0"
       gradientUnits="userSpaceOnUse"
       gradientTransform="matrix(-66.262573,21.266426,21.266426,66.262573,42.330147,-2.4123302)"
       spreadMethod="pad"
       id="linearGradient424300"><stop
         style="stop-opacity:1;stop-color:#9c161c"
         offset="0"
         id="stop424302" /><stop
         style="stop-opacity:1;stop-color:#ed1c24"
         offset="0.5"
         id="stop424304" /><stop
         style="stop-opacity:1;stop-color:#ae1a1f"
         offset="1"
         id="stop424306" /></linearGradient><linearGradient
       x1="0"
       y1="0"
       x2="1"
       y2="0"
       gradientUnits="userSpaceOnUse"
       gradientTransform="matrix(-66.260475,21.265753,21.265753,66.260475,42.700375,-1.2570066)"
       spreadMethod="pad"
       id="linearGradient424322"><stop
         style="stop-opacity:1;stop-color:#9c161c"
         offset="0"
         id="stop424324" /><stop
         style="stop-opacity:1;stop-color:#ed1c24"
         offset="0.5"
         id="stop424326" /><stop
         style="stop-opacity:1;stop-color:#ae1a1f"
         offset="1"
         id="stop424328" /></linearGradient><linearGradient
       x1="0"
       y1="0"
       x2="1"
       y2="0"
       gradientUnits="userSpaceOnUse"
       gradientTransform="matrix(-66.271545,21.269306,21.269306,66.271545,43.075184,-0.0976569)"
       spreadMethod="pad"
       id="linearGradient424344"><stop
         style="stop-opacity:1;stop-color:#9c161c"
         offset="0"
         id="stop424346" /><stop
         style="stop-opacity:1;stop-color:#ed1c24"
         offset="0.5"
         id="stop424348" /><stop
         style="stop-opacity:1;stop-color:#ae1a1f"
         offset="1"
         id="stop424350" /></linearGradient><linearGradient
       x1="0"
       y1="0"
       x2="1"
       y2="0"
       gradientUnits="userSpaceOnUse"
       gradientTransform="matrix(-66.267815,21.268106,21.268106,66.267815,43.529667,1.3207406)"
       spreadMethod="pad"
       id="linearGradient424366"><stop
         style="stop-opacity:1;stop-color:#9c161c"
         offset="0"
         id="stop424368" /><stop
         style="stop-opacity:1;stop-color:#ed1c24"
         offset="0.5"
         id="stop424370" /><stop
         style="stop-opacity:1;stop-color:#ae1a1f"
         offset="1"
         id="stop424372" /></linearGradient><linearGradient
       x1="0"
       y1="0"
       x2="1"
       y2="0"
       gradientUnits="userSpaceOnUse"
       gradientTransform="matrix(-66.273437,21.269911,21.269911,66.273437,43.93692,2.588243)"
       spreadMethod="pad"
       id="linearGradient424388"><stop
         style="stop-opacity:1;stop-color:#9c161c"
         offset="0"
         id="stop424390" /><stop
         style="stop-opacity:1;stop-color:#ed1c24"
         offset="0.5"
         id="stop424392" /><stop
         style="stop-opacity:1;stop-color:#ae1a1f"
         offset="1"
         id="stop424394" /></linearGradient><clipPath
       clipPathUnits="userSpaceOnUse"
       id="clipPath423946-2"><path
         d="m 0,45.354 68.031,0 L 68.031,0 0,0 0,45.354 Z"
         id="path423948-6"
         inkscape:connector-curvature="0" /></clipPath><clipPath
       clipPathUnits="userSpaceOnUse"
       id="clipPath423914-6"><path
         d="m 0,45.354 68.031,0 L 68.031,0 0,0 0,45.354 Z"
         id="path423916-3"
         inkscape:connector-curvature="0" /></clipPath><clipPath
       clipPathUnits="userSpaceOnUse"
       id="clipPath423914-6-6"><path
         d="m 0,45.354 68.031,0 L 68.031,0 0,0 0,45.354 Z"
         id="path423916-3-8"
         inkscape:connector-curvature="0" /></clipPath><clipPath
       clipPathUnits="userSpaceOnUse"
       id="clipPath423946-2-4"><path
         d="m 0,45.354 68.031,0 L 68.031,0 0,0 0,45.354 Z"
         id="path423948-6-8"
         inkscape:connector-curvature="0" /></clipPath></defs><sodipodi:namedview
     pagecolor="#ffffff"
     bordercolor="#666666"
     borderopacity="1"
     objecttolerance="10"
     gridtolerance="10"
     guidetolerance="10"
     inkscape:pageopacity="0"
     inkscape:pageshadow="2"
     inkscape:window-width="1920"
     inkscape:window-height="1080"
     id="namedview423796"
     showgrid="false"
     inkscape:zoom="2.3698364"
     inkscape:cx="249.64496"
     inkscape:cy="147.38282"
     inkscape:window-x="0"
     inkscape:window-y="0"
     inkscape:window-maximized="1"
     inkscape:current-layer="layer7"
     units="mm"
     fit-margin-bottom="0.2"
     fit-margin-top="0"
     fit-margin-left="0"
     fit-margin-right="0" /><g
     inkscape:groupmode="layer"
     id="layer6"
     inkscape:label="vc"
     style="display:inline"
     transform="translate(-6.2798811,295.32531)"><g
       style="display:inline"
       transform="matrix(7.6856627,0,0,-7.6856627,-0.09921894,46.032636)"
       id="g423958"><g
         id="g423960"><g
           id="g423966"><g
             id="g423968"><path
               d="m 11.204,30.251 c -0.67,-0.052 -1.043,-0.078 -1.121,-0.078 l 0,0 -0.962,0 c -0.076,0 -0.45,0.026 -1.121,0.078 l 0,0 -0.201,0.016 0,-0.36 c 0.058,0 0.112,-0.005 0.161,-0.015 l 0,0 c 0.662,-0.073 0.994,-0.318 0.994,-0.735 l 0,0 c 0,-0.145 -0.039,-0.311 -0.116,-0.499 l 0,0 -2.281,-5.813 -2.149,5.531 c -0.077,0.208 -0.115,0.401 -0.115,0.578 l 0,0 c 0,0.563 0.284,0.876 0.85,0.938 l 0,0 c 0.049,0.01 0.102,0.015 0.16,0.015 l 0,0 0,0.36 -0.202,-0.016 C 4.431,30.199 3.969,30.173 3.721,30.173 l 0,0 -1.309,0 c -0.249,0 -0.71,0.026 -1.381,0.078 l 0,0 -0.201,0.016 0,-0.36 c 0.057,0 0.11,-0.005 0.159,-0.015 l 0,0 C 1.373,29.85 1.648,29.777 1.812,29.673 l 0,0 c 0.212,-0.124 0.386,-0.358 0.52,-0.703 l 0,0 3.584,-9.063 0.519,0 3.396,8.688 c 0.202,0.522 0.404,0.865 0.606,1.031 l 0,0 c 0.164,0.135 0.434,0.224 0.811,0.266 l 0,0 c 0.047,0.01 0.099,0.015 0.158,0.015 l 0,0 0,0.36 -0.202,-0.016 z"
               style="fill:url(#linearGradient423970);stroke:none"
               id="path423978"
               inkscape:connector-curvature="0" /></g></g></g></g><g
       style="display:inline"
       transform="matrix(7.6856627,0,0,-7.6856627,-0.09921894,46.032636)"
       id="g423980"><g
         id="g423982"><g
           id="g423988"><g
             id="g423990"><path
               d="m 15.656,30.251 c -0.673,-0.052 -1.049,-0.078 -1.125,-0.078 l 0,0 -1.269,0 c -0.079,0 -0.453,0.026 -1.126,0.078 l 0,0 -0.203,0.016 0.016,-0.36 c 0.729,0 1.097,-0.312 1.097,-0.937 l 0,0 0,-7.283 c 0,-0.624 -0.368,-0.936 -1.097,-0.936 l 0,0 -0.016,-0.361 0.203,0.018 c 0.673,0.051 1.047,0.078 1.126,0.078 l 0,0 1.269,0 c 0.076,0 0.452,-0.027 1.125,-0.078 l 0,0 0.203,-0.018 -0.016,0.361 c -0.731,0 -1.096,0.312 -1.096,0.936 l 0,0 0,7.283 c 0,0.625 0.365,0.937 1.096,0.937 l 0,0 0.016,0.36 -0.203,-0.016 z"
               style="fill:url(#linearGradient423992);stroke:none"
               id="path424000"
               inkscape:connector-curvature="0" /></g></g></g></g><g
       style="display:inline"
       transform="matrix(7.6856627,0,0,-7.6856627,-0.09921894,46.032636)"
       id="g424002"><g
         id="g424004"><g
           id="g424010"><g
             id="g424012"><path
               d="m 18.645,26.986 c -0.633,-1.511 -0.952,-3.24 -0.952,-5.189 l 0,0 0,-0.11 c 0,-0.624 -0.365,-0.936 -1.095,-0.936 l 0,0 -0.015,-0.361 0.201,0.018 c 0.673,0.051 1.049,0.078 1.125,0.078 l 0,0 1.415,0 c 0.076,0 0.452,-0.027 1.125,-0.078 l 0,0 0.203,-0.018 -0.016,0.361 c -0.731,0 -1.095,0.312 -1.095,0.936 l 0,0 0,0.064 c 0,0.405 0.009,0.932 0.029,1.577 l 0,0 3.923,0 c 0.019,-0.645 0.029,-1.172 0.029,-1.577 l 0,0 0,-0.064 c 0,-0.624 -0.365,-0.936 -1.096,-0.936 l 0,0 -0.015,-0.361 0.203,0.018 c 0.672,0.051 1.048,0.078 1.125,0.078 l 0,0 1.414,0 c 0.077,0 0.451,-0.027 1.125,-0.078 l 0,0 0.202,-0.018 -0.015,0.361 c -0.729,0 -1.096,0.312 -1.096,0.936 l 0,0 0,0.11 c 0,1.949 -0.313,3.678 -0.939,5.189 l 0,0 c -0.673,1.615 -1.638,2.828 -2.899,3.641 l 0,0 c -1.26,-0.813 -2.222,-2.026 -2.886,-3.641 m 1.631,0.734 c 0.278,0.74 0.698,1.337 1.255,1.797 l 0,0 c 0.549,-0.468 0.968,-1.068 1.256,-1.797 l 0,0 c 0.337,-0.874 0.557,-2.068 0.664,-3.578 l 0,0 -3.839,0 c 0.106,1.521 0.327,2.714 0.664,3.578"
               style="fill:url(#linearGradient424014);stroke:none"
               id="path424022"
               inkscape:connector-curvature="0" /></g></g></g></g><g
       style="display:inline"
       transform="matrix(7.6856627,0,0,-7.6856627,-0.09921894,46.032636)"
       id="g424024"><g
         id="g424026"><g
           id="g424032"><g
             id="g424034"><path
               d="M 3.524,17.305 C 2.69,16.437 2.273,15.395 2.273,14.184 l 0,0 c 0,-1.228 0.425,-2.234 1.276,-3.015 l 0,0 c 0.827,-0.763 1.855,-1.146 3.088,-1.146 l 0,0 c 0.469,0 0.98,0.066 1.53,0.198 l 0,0 c 0.552,0.132 0.941,0.29 1.169,0.475 l 0,0 0.194,2.013 -0.279,0 C 9.186,12.025 8.955,11.538 8.557,11.248 l 0,0 C 8.225,11.011 7.743,10.892 7.11,10.892 l 0,0 c -0.801,0 -1.491,0.31 -2.066,0.93 l 0,0 C 4.469,12.441 4.161,13.241 4.12,14.224 l 0,0 c -0.041,0.956 0.201,1.784 0.723,2.481 l 0,0 c 0.524,0.698 1.19,1.048 2,1.048 l 0,0 c 1.297,0 2.055,-0.519 2.274,-1.554 l 0,0 0.219,0 -0.085,1.949 C 9.186,18.104 9.108,18.082 9.018,18.082 l 0,0 c -0.071,0 -0.359,0.088 -0.861,0.264 l 0,0 c -0.503,0.175 -1.01,0.262 -1.52,0.262 l 0,0 c -1.24,0 -2.278,-0.434 -3.113,-1.303"
               style="fill:url(#linearGradient424036);stroke:none"
               id="path424044"
               inkscape:connector-curvature="0" /></g></g></g></g><g
       style="display:inline"
       transform="matrix(7.6856627,0,0,-7.6856627,-0.09921894,46.032636)"
       id="g424046"><g
         id="g424048"><g
           id="g424054"><g
             id="g424056"><path
               d="M 18.267,18.464 C 17.7,18.42 17.384,18.398 17.319,18.398 l 0,0 -1.07,0 c -0.065,0 -0.381,0.022 -0.947,0.066 l 0,0 -0.17,0.013 0.011,-0.303 c 0.615,0 0.924,-0.264 0.924,-0.791 l 0,0 0,-1.737 -3.841,0 0,1.737 c 0,0.527 0.308,0.791 0.923,0.791 l 0,0 0.013,0.303 -0.171,-0.013 C 12.424,18.42 12.107,18.398 12.043,18.398 l 0,0 -1.069,0 c -0.066,0 -0.382,0.022 -0.95,0.066 l 0,0 -0.17,0.013 0.014,-0.303 c 0.615,0 0.923,-0.264 0.923,-0.791 l 0,0 0,-6.135 c 0,-0.526 -0.308,-0.79 -0.923,-0.79 l 0,0 -0.014,-0.302 0.17,0.012 c 0.568,0.044 0.884,0.068 0.95,0.068 l 0,0 1.069,0 c 0.064,0 0.381,-0.024 0.948,-0.068 l 0,0 0.171,-0.012 -0.013,0.302 c -0.615,0 -0.923,0.264 -0.923,0.79 l 0,0 0,2.476 3.841,0 0,-2.476 c 0,-0.526 -0.309,-0.79 -0.924,-0.79 l 0,0 -0.011,-0.302 0.17,0.012 c 0.566,0.044 0.882,0.068 0.947,0.068 l 0,0 1.07,0 c 0.065,0 0.381,-0.024 0.948,-0.068 l 0,0 0.17,-0.012 -0.011,0.302 c -0.617,0 -0.925,0.264 -0.925,0.79 l 0,0 0,6.135 c 0,0.527 0.308,0.791 0.925,0.791 l 0,0 0.011,0.303 -0.17,-0.013 z m -6.041,-3.503 3.841,0 0,-0.553 -3.841,0 0,0.553 z"
               style="fill:url(#linearGradient424058);stroke:none"
               id="path424066"
               inkscape:connector-curvature="0" /></g></g></g></g><g
       style="display:inline"
       transform="matrix(7.6856627,0,0,-7.6856627,-0.09921894,46.032636)"
       id="g424068"><g
         id="g424070"><g
           id="g424076"><g
             id="g424078"><path
               d="m 21.151,18.437 c -0.644,-0.026 -1.002,-0.039 -1.077,-0.039 l 0,0 c -0.063,0 -0.38,0.022 -0.946,0.066 l 0,0 -0.172,0.013 0.013,-0.303 c 0.617,0 0.925,-0.264 0.925,-0.791 l 0,0 0,-6.135 c 0,-0.526 -0.308,-0.79 -0.925,-0.79 l 0,0 -0.013,-0.302 0.172,0.012 c 0.566,0.044 0.883,0.068 0.946,0.068 l 0,0 1.072,0 c 0.063,0 0.38,-0.024 0.947,-0.068 l 0,0 0.17,-0.012 -0.011,0.302 c -0.617,0 -0.924,0.264 -0.924,0.79 l 0,0 0,2.515 0.426,0 c 0.266,0 0.473,-0.079 0.619,-0.237 l 0,0 c 0.471,-0.544 0.941,-1.084 1.41,-1.619 l 0,0 C 24.69,10.888 25.566,10.089 26.41,9.51 l 0,0 c 1.182,-0.817 2.322,-1.224 3.416,-1.224 l 0,0 c 0.445,0 0.841,0.057 1.19,0.17 l 0,0 c 0.325,0.106 0.512,0.224 0.56,0.357 l 0,0 C 31.293,8.672 30.931,8.601 30.494,8.601 l 0,0 c -0.924,0 -1.896,0.409 -2.918,1.226 l 0,0 c -0.689,0.555 -1.488,1.383 -2.395,2.487 l 0,0 c -0.907,1.102 -1.442,1.72 -1.605,1.851 l 0,0 c 0.949,0.519 1.422,1.271 1.422,2.256 l 0,0 c 0,0.597 -0.214,1.08 -0.643,1.449 l 0,0 c -0.455,0.405 -1.085,0.607 -1.897,0.607 l 0,0 c -0.227,0 -0.663,-0.013 -1.307,-0.04 m 0.177,-1.238 c 0,0.229 0.038,0.372 0.115,0.428 l 0,0 c 0.077,0.057 0.242,0.086 0.493,0.086 l 0,0 c 0.55,0 0.972,-0.167 1.264,-0.501 l 0,0 c 0.251,-0.297 0.376,-0.68 0.376,-1.145 l 0,0 c 0,-0.537 -0.186,-0.965 -0.558,-1.291 l 0,0 C 22.644,14.451 22.194,14.29 21.667,14.29 l 0,0 -0.339,0 0,2.909 z"
               style="fill:url(#linearGradient424080);stroke:none"
               id="path424088"
               inkscape:connector-curvature="0" /></g></g></g></g><g
       style="display:inline"
       transform="matrix(7.6856627,0,0,-7.6856627,-0.09921894,46.032636)"
       id="g424090"><g
         id="g424092"><g
           id="g424098"><g
             id="g424100"><path
               d="M 30.468,18.464 C 29.9,18.42 29.584,18.398 29.519,18.398 l 0,0 -1.069,0 c -0.066,0 -0.381,0.022 -0.949,0.066 l 0,0 -0.171,0.013 0.014,-0.303 c 0.614,0 0.923,-0.264 0.923,-0.791 l 0,0 0,-6.135 c 0,-0.526 -0.309,-0.79 -0.923,-0.79 l 0,0 -0.014,-0.302 0.171,0.012 c 0.568,0.044 0.883,0.068 0.949,0.068 l 0,0 1.069,0 c 0.065,0 0.381,-0.024 0.949,-0.068 l 0,0 0.17,-0.012 -0.012,0.302 c -0.616,0 -0.925,0.264 -0.925,0.79 l 0,0 0,6.135 c 0,0.527 0.309,0.791 0.925,0.791 l 0,0 0.012,0.303 -0.17,-0.013 z"
               style="fill:url(#linearGradient424102);stroke:none"
               id="path424110"
               inkscape:connector-curvature="0" /></g></g></g></g><g
       style="display:inline"
       transform="matrix(7.6856627,0,0,-7.6856627,-0.09921894,46.032636)"
       id="g424112"><g
         id="g424114"><g
           id="g424120"><g
             id="g424122"><path
               d="m 31.893,18.035 c -0.424,-0.381 -0.638,-0.901 -0.638,-1.56 l 0,0 c 0,-0.465 0.163,-0.921 0.487,-1.369 l 0,0 c 0.299,-0.404 0.705,-0.755 1.216,-1.053 l 0,0 c 0.663,-0.386 1.13,-0.728 1.399,-1.022 l 0,0 c 0.267,-0.293 0.399,-0.628 0.399,-1.006 l 0,0 c 0,-0.412 -0.128,-0.733 -0.388,-0.961 l 0,0 c -0.26,-0.229 -0.616,-0.342 -1.07,-0.342 l 0,0 c -0.972,0 -1.588,0.628 -1.848,1.883 l 0,0 -0.34,0 0.304,-2.08 c 0.274,-0.099 0.555,-0.198 0.838,-0.304 l 0,0 c 0.446,-0.132 0.875,-0.198 1.288,-0.198 l 0,0 c 0.803,0 1.479,0.246 2.031,0.739 l 0,0 c 0.527,0.455 0.791,0.991 0.791,1.606 l 0,0 c 0,0.649 -0.199,1.215 -0.596,1.697 l 0,0 c -0.324,0.386 -0.846,0.796 -1.569,1.226 l 0,0 c -0.964,0.57 -1.446,1.084 -1.446,1.539 l 0,0 c 0,0.326 0.104,0.591 0.311,0.797 l 0,0 c 0.206,0.207 0.487,0.31 0.844,0.31 l 0,0 c 0.85,0 1.455,-0.462 1.811,-1.382 l 0,0 0.243,0 -0.243,1.711 c -0.243,-0.008 -0.579,0.045 -1.009,0.165 l 0,0 c -0.43,0.118 -0.798,0.177 -1.106,0.177 l 0,0 c -0.713,0 -1.282,-0.19 -1.709,-0.573"
               style="fill:url(#linearGradient424124);stroke:none"
               id="path424132"
               inkscape:connector-curvature="0" /></g></g></g></g><g
       style="display:inline"
       transform="matrix(7.6856627,0,0,-7.6856627,-0.09921894,46.032636)"
       id="g424134"><g
         id="g424136"><g
           id="g424142"><g
             id="g424144"><path
               d="M 44.11,19.254 C 43.948,18.885 43.799,18.65 43.667,18.549 l 0,0 c -0.133,-0.101 -0.323,-0.151 -0.566,-0.151 l 0,0 -5.19,0 c -0.373,0 -0.56,0.123 -0.56,0.368 l 0,0 c 0,0.061 0.012,0.141 0.038,0.237 l 0,0 -0.22,0 -0.669,-2.462 0.243,0 c 0.162,0.368 0.316,0.609 0.463,0.724 l 0,0 c 0.121,0.088 0.302,0.132 0.545,0.132 l 0,0 1.836,0 0,-6.149 c 0,-0.526 -0.308,-0.79 -0.923,-0.79 l 0,0 -0.012,-0.302 0.17,0.012 c 0.567,0.044 0.882,0.068 0.948,0.068 l 0,0 1.07,0 c 0.065,0 0.38,-0.024 0.949,-0.068 l 0,0 0.169,-0.012 -0.011,0.302 c -0.616,0 -0.925,0.264 -0.925,0.79 l 0,0 0,6.149 1.922,0 c 0.371,0 0.558,-0.123 0.558,-0.368 l 0,0 c 0,-0.061 -0.012,-0.142 -0.036,-0.237 l 0,0 0.218,0 0.67,2.462 -0.244,0 z"
               style="fill:url(#linearGradient424146);stroke:none"
               id="path424154"
               inkscape:connector-curvature="0" /></g></g></g></g><g
       style="display:inline"
       transform="matrix(7.6856627,0,0,-7.6856627,-0.09921894,46.032636)"
       id="g424156"><g
         id="g424158"><g
           id="g424164"><g
             id="g424166"><path
               d="M 52.648,18.477 C 52.079,18.433 51.764,18.411 51.7,18.411 l 0,0 -1.253,0 c -0.064,0 -0.381,0.022 -0.947,0.066 l 0,0 -0.171,0.013 0.013,-0.304 c 0.616,0 0.923,-0.262 0.923,-0.789 l 0,0 0,-0.052 c 0,-1.985 -0.15,-3.472 -0.45,-4.464 l 0,0 c -0.243,-0.817 -0.652,-1.467 -1.227,-1.95 l 0,0 c -0.577,0.483 -0.986,1.133 -1.229,1.95 l 0,0 C 47.06,13.873 46.91,15.36 46.91,17.345 l 0,0 0,0.052 c 0,0.527 0.308,0.789 0.922,0.789 l 0,0 0.015,0.304 -0.17,-0.013 c -0.569,-0.044 -0.884,-0.066 -0.95,-0.066 l 0,0 -1.252,0 c -0.065,0 -0.381,0.022 -0.948,0.066 l 0,0 -0.17,0.013 0.012,-0.304 c 0.615,0 0.923,-0.262 0.923,-0.789 l 0,0 0,-0.092 c 0,-1.624 0.276,-3.081 0.828,-4.371 l 0,0 c 0.575,-1.361 1.397,-2.383 2.468,-3.068 l 0,0 c 1.069,0.685 1.891,1.707 2.467,3.068 l 0,0 c 0.551,1.29 0.827,2.747 0.827,4.371 l 0,0 0,0.092 c 0,0.527 0.308,0.789 0.924,0.789 l 0,0 0.012,0.304 -0.17,-0.013 z"
               style="fill:url(#linearGradient424168);stroke:none"
               id="path424176"
               inkscape:connector-curvature="0" /></g></g></g></g><g
       style="display:inline"
       transform="matrix(7.6856627,0,0,-7.6856627,-0.09921894,46.032636)"
       id="g424178"><g
         id="g424180"><g
           id="g424186"><g
             id="g424188"><path
               d="m 53.536,18.035 c -0.426,-0.381 -0.638,-0.901 -0.638,-1.56 l 0,0 c 0,-0.465 0.162,-0.921 0.486,-1.369 l 0,0 c 0.299,-0.404 0.706,-0.755 1.214,-1.053 l 0,0 c 0.666,-0.386 1.132,-0.728 1.4,-1.022 l 0,0 c 0.267,-0.293 0.4,-0.628 0.4,-1.006 l 0,0 c 0,-0.412 -0.13,-0.733 -0.388,-0.961 l 0,0 c -0.26,-0.229 -0.617,-0.342 -1.07,-0.342 l 0,0 c -0.972,0 -1.589,0.628 -1.847,1.883 l 0,0 -0.342,0 0.304,-2.08 c 0.275,-0.099 0.555,-0.198 0.839,-0.304 l 0,0 c 0.445,-0.132 0.876,-0.198 1.289,-0.198 l 0,0 c 0.802,0 1.479,0.246 2.03,0.739 l 0,0 c 0.527,0.455 0.789,0.991 0.789,1.606 l 0,0 c 0,0.649 -0.198,1.215 -0.594,1.697 l 0,0 c -0.325,0.386 -0.847,0.796 -1.568,1.226 l 0,0 c -0.965,0.57 -1.448,1.084 -1.448,1.539 l 0,0 c 0,0.326 0.105,0.591 0.311,0.797 l 0,0 c 0.207,0.207 0.487,0.31 0.845,0.31 l 0,0 c 0.85,0 1.454,-0.462 1.81,-1.382 l 0,0 0.244,0 -0.244,1.711 c -0.242,-0.008 -0.578,0.045 -1.008,0.165 l 0,0 c -0.43,0.118 -0.798,0.177 -1.107,0.177 l 0,0 c -0.712,0 -1.283,-0.19 -1.707,-0.573"
               style="fill:url(#linearGradient424190);stroke:none"
               id="path424198"
               inkscape:connector-curvature="0" /></g></g></g></g></g><g
     inkscape:groupmode="layer"
     id="layer7"
     inkscape:label="cross"
     style="display:inline"
     transform="translate(-6.2798811,295.32531)"
     sodipodi:insensitive="true"><g
       style="display:inline"
       transform="matrix(7.6856627,0,0,-7.6856627,-0.09921907,46.032634)"
       id="g423804"><g
         id="g423806"><g
           id="g423812"><g
             id="g423814"><path
               d="m 46.161,28.953 c 0.603,-0.151 6.562,-1.207 9.579,-1.735 l 0,0 c 0.833,-1.784 2.076,-5.183 3.278,-8.646 l 0,0 c 0,0 0.626,-1.951 0.774,-6.233 l 0,0 C 62.643,11.275 62.93,8.118 62.93,8.118 l 0,0 c 0.034,-0.16 0.173,-0.293 0.329,-0.332 l 0,0 -0.748,3.564 c -0.173,0.039 -0.329,0.186 -0.365,0.364 l 0,0 c -0.044,0.207 0.089,0.374 0.296,0.374 l 0,0 c -1.452,6.53 -3.539,12.603 -5.462,17.437 l 0,0 c -6.161,0.747 -12.554,1.088 -12.554,1.088 l 0,0 c 0.377,-1.133 1.132,-1.51 1.735,-1.66"
               style="fill:url(#linearGradient423816);stroke:none"
               id="path423824"
               inkscape:connector-curvature="0" /></g></g></g></g><g
       style="display:inline"
       transform="matrix(7.6856627,0,0,-7.6856627,-0.09921907,46.032634)"
       id="g423826"><g
         id="g423828"><g
           id="g423834"><g
             id="g423836"><path
               d="m 61.291,18.629 c 0.927,-3.929 1.272,-6.497 1.28,-6.562 l 0,0 c 0.157,-0.051 0.291,-0.19 0.326,-0.353 l 0,0 c 0.037,-0.178 -0.056,-0.325 -0.214,-0.364 l 0,0 0.749,-3.561 c 0.137,0.038 0.218,0.17 0.186,0.329 l 0,0 c 0,0 -0.001,10e-4 -0.001,0.003 l 0,0 c -0.75,3.28 1.239,4.218 1.239,4.218 l 0,0 -1.89,6.332 -1.675,-0.042 z m 1.281,-6.564 c 0,0 0,0.001 -0.001,0.002 l 0,0 c -0.042,0.013 -0.085,0.021 -0.129,0.021 l 0,0 0.13,-0.023 z"
               style="fill:url(#linearGradient423838);stroke:none"
               id="path423846"
               inkscape:connector-curvature="0" /></g></g></g></g><g
       style="display:inline"
       transform="matrix(7.6856627,0,0,-7.6856627,-0.09921907,46.032634)"
       id="g423848"><g
         id="g423850"><g
           id="g423856"><g
             id="g423858"><path
               d="m 49.156,38.441 3.214,-5.615 c 0,0 -4.336,0.134 -5.678,0.166 l 0,0 c -1.341,0.031 -2.473,-1.382 -2.036,-2.195 l 0,0 c 0.75,0.046 3.283,-0.104 5.892,-0.293 l 0,0 c 2.419,-0.099 4.488,-0.259 6.22,-0.448 l 0,0 c -2.524,6.27 -4.711,10.317 -4.711,10.317 l 0,0 -0.437,-0.59 -0.53,1.278 -1.934,-2.62 z"
               style="fill:url(#linearGradient423860);stroke:none"
               id="path423868"
               inkscape:connector-curvature="0" /></g></g></g></g><g
       style="display:inline"
       transform="matrix(7.6856627,0,0,-7.6856627,-0.09921907,46.032634)"
       id="g423870"><g
         id="g423872"><g
           id="g423878"><g
             id="g423880"><path
               d="m 45.819,29.956 c -1.093,-0.468 -0.781,-1.435 -0.781,-1.435 l 0,0 12.964,-1.576 -1.141,2.403 c 0,0 -6.715,0.725 -9.718,0.725 l 0,0 c -0.652,0 -1.129,-0.034 -1.324,-0.117"
               style="fill:url(#linearGradient423882);stroke:none"
               id="path423888"
               inkscape:connector-curvature="0" /></g></g></g></g><g
       style="display:inline"
       transform="matrix(7.6856627,0,0,-7.6856627,-0.09921907,46.032634)"
       id="g423890"><g
         id="g423892"><g
           id="g423898"><g
             id="g423900"><path
               d="m 49.156,38.441 4.775,-8.13 c 0,0 1.462,-0.122 2.294,-0.198 l 0,0 c -0.288,1.579 -4.605,9.67 -4.605,9.67 l 0,0 -0.53,1.278 -1.934,-2.62 z"
               style="fill:url(#linearGradient423902);stroke:none"
               id="path423908"
               inkscape:connector-curvature="0" /></g></g></g></g><g
       style="display:inline"
       transform="matrix(7.6856627,0,0,-7.6856627,-0.09921907,46.032634)"
       id="g423910"><g
         id="g423912"
         clip-path="url(#clipPath423914-6-6)"><g
           id="g423918"
           transform="translate(63.2497,7.8273)"><path
             d="M 0,0 C 1.163,-0.301 2.099,-0.529 3.228,-0.963 3.62,-1.114 4.22,-1.424 4.176,-1.646 4.096,-2.043 3.517,-2.201 2.91,-2.218 2.433,-2.231 1.689,-2.207 1.185,-2.153 c -1.651,0.173 -3.294,0.373 -4.935,0.577 -3.695,0.46 -12.659,0.997 -16.356,1.498 -0.959,0.131 -1.602,0.03 -1.713,-0.208 -0.053,-0.197 0.547,-0.615 0.966,-0.835 0.493,-0.26 1.113,-0.473 1.742,-0.611 1.761,-0.387 3.58,-0.691 5.325,-1.102 0.597,-0.14 1.312,-0.425 1.479,-0.773 0.173,-0.365 -0.266,-0.772 -0.651,-0.848 -0.576,-0.114 -1.503,-0.067 -2.006,0.132 -2.376,0.943 -4.101,1.57 -6.406,2.571 -0.371,0.162 -1.316,0.744 -1.528,0.971 -0.253,0.267 -0.58,0.656 -0.406,0.862 0.174,0.206 0.92,0.338 1.431,0.346 0.985,0.014 2,-0.024 2.969,-0.139 4.009,-0.478 13.27,-1.137 17.282,-1.604 1.399,-0.163 2.842,-0.19 4.265,-0.28 0.375,0.013 0.458,0.229 0.201,0.366 -0.711,0.382 -1.289,0.647 -2.213,0.936 -0.273,0.086 -0.537,0.188 -0.815,0.266"
             style="fill:#9b161b;fill-opacity:1;fill-rule:evenodd;stroke:none"
             id="path423920"
             inkscape:connector-curvature="0" /></g></g></g><g
       style="display:inline"
       transform="matrix(7.6856627,0,0,-7.6856627,-0.09921907,46.032634)"
       id="g423922"><g
         id="g423924"><g
           id="g423930"><g
             id="g423932"><path
               d="m 62.571,12.067 c 0.157,-0.051 0.291,-0.19 0.326,-0.353 l 0,0 c 0.037,-0.178 -0.056,-0.325 -0.214,-0.364 l 0,0 0.749,-3.561 c 0.137,0.038 0.218,0.17 0.186,0.329 l 0,0 c 0,0 -0.001,10e-4 -0.001,0.003 l 0,0 c -0.75,3.28 1.239,4.218 1.239,4.218 l 0,0 -1.936,6.613 c -0.654,4.073 -1.372,6.832 -1.372,6.832 l 0,0 3.545,-0.15 0,2.488 c -1.869,0.502 -4.385,0.922 -7.018,1.265 l 0,0 c 3.439,-9.395 4.481,-17.206 4.496,-17.32 m 0.001,-0.002 c 0,0 0,0.001 -0.001,0.002 l 0,0 c -0.042,0.013 -0.085,0.021 -0.129,0.021 l 0,0 0.13,-0.023 z"
               style="fill:url(#linearGradient423934);stroke:none"
               id="path423940"
               inkscape:connector-curvature="0" /></g></g></g></g><g
       style="display:inline"
       transform="matrix(7.6856627,0,0,-7.6856627,-0.09921907,46.032634)"
       id="g423942"><g
         id="g423944"
         clip-path="url(#clipPath423946-2-4)"><g
           id="g423950"
           transform="translate(62.1267,29.2199)"><path
             d="M 0,0 C 1.809,-0.395 2.577,-0.719 2.577,-0.719 2.632,0.799 1.419,0.964 1.419,0.964 l -3.5,0.799 -4.245,9.398 -5.19,4.034 C -8.378,10.507 -6.019,5.431 -4.257,0.717 -3.662,0.665 -2.16,0.519 0,0"
             style="fill:#bf1b2c;fill-opacity:1;fill-rule:nonzero;stroke:none"
             id="path423952"
             inkscape:connector-curvature="0" /></g><g
           id="g423954"
           transform="translate(59.3259,28.5011)"><path
             d="M 0,0 6.146,-0.917 5.958,-3.631 2.223,-2.717 0,0 Z"
             style="fill:#bf1b2c;fill-opacity:1;fill-rule:nonzero;stroke:none"
             id="path423956"
             inkscape:connector-curvature="0" /></g></g></g></g><g
     inkscape:groupmode="layer"
     id="layer8"
     inkscape:label="yayinlari"
     style="display:inline"
     transform="translate(-6.2798811,295.32531)"><g
       transform="matrix(7.6856627,0,0,-7.6856627,-0.0992189,46.032635)"
       id="g424200"><g
         id="g424202"><g
           id="g424208"><g
             id="g424210"><path
               d="M 8.37,7.565 C 8.041,7.538 7.825,7.521 7.717,7.521 l 0,0 -0.324,0 c -0.108,0 -0.339,0.018 -0.66,0.044 l 0,0 -0.195,0.013 0.019,-0.247 0.062,0 c 0.026,0 0.056,0 0.086,-0.01 l 0,0 C 7.115,7.281 7.198,7.199 7.198,7.09 l 0,0 C 7.198,7.032 7.174,6.966 7.124,6.886 l 0,0 L 5.843,4.828 4.457,7.043 C 4.413,7.103 4.409,7.152 4.409,7.166 l 0,0 c 0,0.077 0.118,0.12 0.428,0.155 l 0,0 0.046,0.004 c 0.016,0.006 0.046,0.006 0.073,0.006 l 0,0 0.062,0 L 5.037,7.578 4.839,7.565 C 4.582,7.54 4.262,7.521 4.095,7.521 l 0,0 -0.324,0 c -0.166,0 -0.486,0.019 -0.745,0.044 l 0,0 -0.196,0.013 0.018,-0.247 0.063,0 c 0.027,0 0.057,0 0.087,-0.01 l 0,0 C 3.4,7.283 3.487,7.257 3.843,6.678 l 0,0 1.541,-2.456 0,-1.479 C 5.384,2.44 5.278,2.345 4.877,2.302 l 0,0 C 4.861,2.297 4.83,2.297 4.803,2.297 l 0,0 -0.061,0 -0.021,-0.249 0.198,0.016 c 0.339,0.024 0.553,0.042 0.659,0.042 l 0,0 0.324,0 c 0.107,0 0.321,-0.018 0.66,-0.042 l 0,0 0.196,-0.016 -0.018,0.249 -0.063,0 c -0.027,0 -0.057,0 -0.086,0.009 l 0,0 C 6.203,2.346 6.097,2.44 6.097,2.743 l 0,0 0,1.643 1.37,2.182 C 7.679,6.911 7.831,7.067 7.922,7.14 l 0,0 c 0.121,0.098 0.275,0.157 0.497,0.185 l 0,0 c 0.017,0.006 0.047,0.006 0.073,0.006 l 0,0 0.062,0 0.02,0.247 L 8.37,7.565 Z"
               style="fill:url(#linearGradient424212);stroke:none"
               id="path424220"
               inkscape:connector-curvature="0" /></g></g></g></g><g
       transform="matrix(7.6856627,0,0,-7.6856627,-0.0992189,46.032635)"
       id="g424222"><g
         id="g424224"><g
           id="g424230"><g
             id="g424232"><path
               d="M 10.06,6.15 C 9.05,5.557 8.48,4.364 8.452,2.786 l 0,0 0,-0.036 c 0,-0.324 -0.035,-0.396 -0.41,-0.435 l 0,0 L 8.026,2.312 C 8.012,2.306 7.981,2.306 7.956,2.306 l 0,0 -0.062,0 -0.019,-0.258 0.2,0.016 C 8.104,2.068 8.137,2.07 8.171,2.072 l 0,0 c 0.035,10e-4 0.073,0.003 0.115,0.007 l 0,0 c 0.148,0.016 0.278,0.027 0.359,0.027 l 0,0 0.308,0 c 0.081,0 0.213,-0.011 0.359,-0.027 l 0,0 C 9.355,2.075 9.392,2.073 9.428,2.072 l 0,0 C 9.463,2.07 9.494,2.068 9.527,2.064 l 0,0 0.197,-0.016 -0.019,0.258 -0.062,0 c -0.025,0 -0.056,0 -0.07,0.005 l 0,0 -0.017,0.004 C 9.183,2.354 9.148,2.426 9.148,2.75 l 0,0 0,0.036 c 0,0.101 0.005,0.241 0.013,0.412 l 0,0 0.001,0.025 1.875,0 10e-4,-0.024 c 0.007,-0.163 0.013,-0.295 0.013,-0.396 l 0,0 0,-0.053 c 0,-0.324 -0.036,-0.396 -0.409,-0.435 l 0,0 -0.017,-0.003 C 10.611,2.306 10.58,2.306 10.555,2.306 l 0,0 -0.063,0 -0.017,-0.258 0.2,0.016 c 0.03,0.004 0.061,0.006 0.095,0.008 l 0,0 c 0.035,10e-4 0.073,0.003 0.115,0.007 l 0,0 c 0.147,0.016 0.279,0.027 0.36,0.027 l 0,0 0.307,0 c 0.081,0 0.213,-0.011 0.359,-0.027 l 0,0 c 0.043,-0.004 0.081,-0.006 0.116,-0.007 l 0,0 c 0.034,-0.002 0.066,-0.004 0.1,-0.008 l 0,0 0.197,-0.016 -0.019,0.258 -0.063,0 c -0.025,0 -0.056,0 -0.07,0.006 l 0,0 -0.017,0.003 C 11.782,2.354 11.747,2.426 11.747,2.75 l 0,0 0,0.054 C 11.719,4.375 11.144,5.563 10.128,6.15 l 0,0 L 10.094,6.168 10.06,6.15 Z M 10.094,5.803 C 10.58,5.511 10.902,4.746 11.003,3.636 l 0,0 -1.816,0 c 0.111,1.138 0.422,1.884 0.907,2.167"
               style="fill:url(#linearGradient424234);stroke:none"
               id="path424242"
               inkscape:connector-curvature="0" /></g></g></g></g><g
       transform="matrix(7.6856627,0,0,-7.6856627,-0.0992189,46.032635)"
       id="g424244"><g
         id="g424246"><g
           id="g424252"><g
             id="g424254"><path
               d="M 16.562,6.03 C 16.53,6.025 16.497,6.024 16.46,6.022 l 0,0 C 16.427,6.018 16.391,6.017 16.35,6.014 l 0,0 C 16.194,5.998 16.068,5.987 15.992,5.987 l 0,0 -0.068,0 c -0.076,0 -0.2,0.011 -0.36,0.027 l 0,0 c -0.039,0.003 -0.076,0.004 -0.109,0.008 l 0,0 c -0.036,0.002 -0.07,0.003 -0.106,0.008 l 0,0 -0.197,0.014 0.019,-0.257 0.062,0 c 0.027,0 0.058,0 0.087,-0.008 l 0,0 c 0.198,-0.021 0.298,-0.076 0.298,-0.164 l 0,0 c 0,-0.028 -0.009,-0.108 -0.1,-0.237 l 0,0 -0.746,-1.16 -0.781,1.163 -0.041,0.059 c -0.108,0.157 -0.125,0.225 -0.125,0.253 l 0,0 c 0,0.059 0.132,0.08 0.201,0.089 l 0,0 c 0.015,0.005 0.046,0.005 0.073,0.005 l 0,0 0.063,0 0.018,0.257 -0.19,-0.014 c -0.03,0 -0.071,0 -0.092,-0.008 l 0,0 C 13.56,5.99 13.393,5.987 13.35,5.987 l 0,0 -0.273,0 c -0.075,0 -0.203,0.011 -0.36,0.027 l 0,0 c -0.04,0.003 -0.076,0.004 -0.109,0.008 l 0,0 c -0.037,0.002 -0.07,0.003 -0.106,0.008 l 0,0 -0.196,0.014 0.02,-0.257 0.061,0 c 0.027,0 0.057,0 0.089,-0.008 l 0,0 C 12.794,5.75 13.033,5.6 13.226,5.305 l 0,0 1.054,-1.568 0,-0.987 c 0,-0.324 -0.036,-0.396 -0.408,-0.435 l 0,0 -0.017,-0.003 C 13.84,2.306 13.811,2.306 13.785,2.306 l 0,0 -0.063,0 -0.019,-0.258 0.201,0.016 c 0.03,0.004 0.06,0.006 0.096,0.008 l 0,0 c 0.035,10e-4 0.072,0.003 0.116,0.007 l 0,0 c 0.146,0.016 0.277,0.027 0.358,0.027 l 0,0 0.281,0 c 0.082,0 0.214,-0.011 0.36,-0.027 l 0,0 C 15.158,2.075 15.196,2.073 15.23,2.072 l 0,0 c 0.036,-0.002 0.066,-0.004 0.1,-0.008 l 0,0 0.198,-0.016 -0.02,0.258 -0.062,0 c -0.026,0 -0.056,0 -0.07,0.006 l 0,0 -0.017,0.003 C 14.985,2.354 14.95,2.426 14.95,2.75 l 0,0 0,1.03 0.976,1.514 0.019,0.02 c 0.191,0.299 0.311,0.433 0.663,0.468 l 0,0 c 0.016,0.005 0.046,0.005 0.074,0.005 l 0,0 0.062,0 0.018,0.257 -0.2,-0.014 z"
               style="fill:url(#linearGradient424256);stroke:none"
               id="path424264"
               inkscape:connector-curvature="0" /></g></g></g></g><g
       transform="matrix(7.6856627,0,0,-7.6856627,-0.0992189,46.032635)"
       id="g424266"><g
         id="g424268"><g
           id="g424274"><g
             id="g424276"><path
               d="M 18.877,6.03 C 18.79,6.027 18.702,6.018 18.615,6.01 l 0,0 C 18.504,5.999 18.399,5.987 18.301,5.987 l 0,0 -0.281,0 c -0.097,0 -0.174,0 -0.23,0.011 l 0,0 c -0.035,0.005 -0.088,0.009 -0.159,0.016 l 0,0 C 17.58,6.017 17.518,6.024 17.444,6.03 l 0,0 -0.195,0.014 0.017,-0.252 0.15,-0.013 C 17.785,5.74 17.825,5.656 17.825,5.342 l 0,0 0,-2.592 c 0,-0.324 -0.036,-0.396 -0.408,-0.435 l 0,0 L 17.266,2.3 17.249,2.048 17.442,2.064 c 0.089,0.003 0.18,0.011 0.269,0.02 l 0,0 c 0.109,0.01 0.213,0.022 0.309,0.022 l 0,0 0.281,0 c 0.098,0 0.174,0 0.229,-0.009 l 0,0 c 0.042,-0.005 0.105,-0.012 0.195,-0.019 l 0,0 0.346,-0.03 L 19.053,2.3 18.904,2.315 C 18.535,2.353 18.495,2.438 18.495,2.75 l 0,0 0,2.592 c 0,0.323 0.035,0.396 0.408,0.437 l 0,0 0.15,0.013 0.018,0.252 -0.194,-0.014 z"
               style="fill:url(#linearGradient424278);stroke:none"
               id="path424286"
               inkscape:connector-curvature="0" /></g></g></g></g><g
       transform="matrix(7.6856627,0,0,-7.6856627,-0.0992189,46.032635)"
       id="g424288"><g
         id="g424290"><g
           id="g424296"><g
             id="g424298"><path
               d="M 24.103,6.03 C 24.072,6.025 24.038,6.024 24.001,6.022 l 0,0 C 23.968,6.018 23.932,6.017 23.892,6.014 l 0,0 C 23.736,5.998 23.608,5.987 23.533,5.987 l 0,0 -2.65,0 c -0.075,0 -0.202,0.011 -0.36,0.027 l 0,0 c -0.04,0.003 -0.076,0.004 -0.109,0.008 l 0,0 c -0.037,0.002 -0.07,0.003 -0.106,0.008 l 0,0 -0.196,0.014 0.018,-0.257 0.062,0 c 0.027,0 0.058,0 0.087,-0.008 l 0,0 c 0.374,-0.041 0.409,-0.114 0.409,-0.437 l 0,0 0,-2.592 c 0,-0.324 -0.035,-0.396 -0.409,-0.435 l 0,0 -0.016,-0.003 C 20.248,2.306 20.219,2.306 20.192,2.306 l 0,0 -0.062,0 -0.018,-0.258 0.2,0.016 c 0.029,0.004 0.061,0.006 0.096,0.008 l 0,0 c 0.035,10e-4 0.072,0.003 0.115,0.007 l 0,0 c 0.148,0.016 0.279,0.027 0.36,0.027 l 0,0 0.28,0 c 0.082,0 0.214,-0.011 0.36,-0.027 l 0,0 c 0.043,-0.004 0.081,-0.006 0.115,-0.007 l 0,0 c 0.036,-0.002 0.066,-0.004 0.1,-0.008 l 0,0 0.197,-0.016 -0.018,0.258 -0.062,0 c -0.028,0 -0.057,0 -0.088,0.009 l 0,0 C 21.394,2.354 21.358,2.426 21.358,2.75 l 0,0 0,2.825 1.7,0 0,-2.825 c 0,-0.324 -0.035,-0.396 -0.41,-0.435 l 0,0 -0.016,-0.003 C 22.618,2.306 22.588,2.306 22.562,2.306 l 0,0 -0.062,0 -0.02,-0.258 0.201,0.016 c 0.03,0.004 0.061,0.006 0.096,0.008 l 0,0 c 0.035,10e-4 0.073,0.003 0.115,0.007 l 0,0 c 0.148,0.016 0.278,0.027 0.359,0.027 l 0,0 0.282,0 c 0.081,0 0.213,-0.011 0.359,-0.027 l 0,0 c 0.043,-0.004 0.08,-0.006 0.116,-0.007 l 0,0 C 24.043,2.07 24.074,2.068 24.107,2.064 l 0,0 0.197,-0.016 -0.018,0.258 -0.063,0 c -0.026,0 -0.055,0 -0.07,0.006 l 0,0 -0.016,0.003 C 23.763,2.354 23.728,2.426 23.728,2.75 l 0,0 0,2.592 c 0,0.323 0.035,0.396 0.422,0.44 l 0,0 c 0.016,0.005 0.047,0.005 0.073,0.005 l 0,0 0.063,0 0.018,0.257 -0.201,-0.014 z"
               style="fill:url(#linearGradient424300);stroke:none"
               id="path424308"
               inkscape:connector-curvature="0" /></g></g></g></g><g
       transform="matrix(7.6856627,0,0,-7.6856627,-0.0992189,46.032635)"
       id="g424310"><g
         id="g424312"><g
           id="g424318"><g
             id="g424320"><path
               d="m 26.888,6.03 c -0.03,-0.005 -0.064,-0.006 -0.1,-0.008 l 0,0 C 26.755,6.018 26.718,6.017 26.679,6.014 l 0,0 C 26.522,5.998 26.394,5.987 26.32,5.987 l 0,0 -0.282,0 c -0.075,0 -0.203,0.011 -0.36,0.027 l 0,0 c -0.04,0.003 -0.075,0.004 -0.109,0.008 l 0,0 c -0.037,0.002 -0.07,0.003 -0.106,0.008 l 0,0 -0.195,0.014 0.018,-0.257 0.062,0 c 0.027,0 0.058,0 0.087,-0.008 l 0,0 c 0.373,-0.041 0.409,-0.114 0.409,-0.437 l 0,0 0,-2.592 c 0,-0.324 -0.036,-0.396 -0.409,-0.435 l 0,0 -0.017,-0.004 C 25.404,2.306 25.374,2.306 25.348,2.306 l 0,0 -0.062,0 -0.018,-0.258 0.198,0.016 c 0.03,0.004 0.063,0.006 0.098,0.008 l 0,0 c 0.035,10e-4 0.073,0.003 0.114,0.007 l 0,0 c 0.148,0.016 0.279,0.027 0.36,0.027 l 0,0 0.29,0 c 0.279,0 0.661,-0.009 1.03,-0.018 l 0,0 c 0.183,-0.004 0.326,-0.009 0.436,-0.012 l 0,0 c 0.12,-0.003 0.201,-0.004 0.255,-0.004 l 0,0 0.052,0 0.013,0.048 c 0.073,0.286 0.223,0.561 0.5,0.924 l 0,0 0.082,0.107 -0.363,0 -0.263,-0.328 c -0.269,-0.33 -0.269,-0.33 -0.702,-0.33 l 0,0 -0.631,0 c -0.223,0 -0.223,0 -0.223,0.257 l 0,0 0,2.592 c 0,0.323 0.035,0.396 0.42,0.44 l 0,0 c 0.017,0.005 0.048,0.005 0.076,0.005 l 0,0 0.062,0 0.016,0.257 -0.2,-0.014 z"
               style="fill:url(#linearGradient424322);stroke:none"
               id="path424330"
               inkscape:connector-curvature="0" /></g></g></g></g><g
       transform="matrix(7.6856627,0,0,-7.6856627,-0.0992189,46.032635)"
       id="g424332"><g
         id="g424334"><g
           id="g424340"><g
             id="g424342"><path
               d="M 31.049,6.15 C 30.038,5.557 29.467,4.362 29.44,2.786 l 0,0 0,-0.036 c 0,-0.324 -0.035,-0.396 -0.425,-0.438 l 0,0 C 29.001,2.306 28.97,2.306 28.944,2.306 l 0,0 -0.062,0 -0.018,-0.258 0.2,0.016 c 0.029,0.004 0.062,0.006 0.096,0.008 l 0,0 c 0.035,10e-4 0.072,0.003 0.115,0.007 l 0,0 c 0.147,0.016 0.278,0.027 0.359,0.027 l 0,0 0.307,0 c 0.081,0 0.213,-0.011 0.359,-0.027 l 0,0 c 0.043,-0.004 0.08,-0.006 0.115,-0.007 l 0,0 C 30.451,2.07 30.481,2.068 30.514,2.064 l 0,0 0.197,-0.016 -0.017,0.258 -0.062,0 c -0.027,0 -0.056,0 -0.088,0.009 l 0,0 C 30.171,2.354 30.136,2.426 30.136,2.75 l 0,0 0,0.036 c 0,0.091 0.005,0.216 0.011,0.367 l 0,0 0.004,0.07 1.874,0 0.002,-0.066 c 0.007,-0.144 0.012,-0.262 0.012,-0.354 l 0,0 0,-0.053 c 0,-0.324 -0.036,-0.396 -0.425,-0.438 l 0,0 C 31.599,2.306 31.569,2.306 31.543,2.306 l 0,0 -0.063,0 -0.016,-0.258 0.198,0.016 c 0.03,0.004 0.062,0.006 0.097,0.008 l 0,0 c 0.034,10e-4 0.073,0.003 0.115,0.007 l 0,0 c 0.147,0.016 0.278,0.027 0.359,0.027 l 0,0 0.307,0 c 0.081,0 0.213,-0.011 0.36,-0.027 l 0,0 c 0.042,-0.004 0.08,-0.006 0.115,-0.007 l 0,0 C 33.049,2.07 33.081,2.068 33.114,2.064 l 0,0 0.196,-0.016 -0.016,0.258 -0.063,0 c -0.026,0 -0.057,0 -0.087,0.009 l 0,0 C 32.77,2.354 32.735,2.426 32.735,2.75 l 0,0 0,0.054 C 32.707,4.375 32.132,5.563 31.116,6.15 l 0,0 L 31.082,6.168 31.049,6.15 Z M 31.082,5.803 C 31.568,5.511 31.89,4.746 31.99,3.636 l 0,0 -1.814,0 c 0.109,1.138 0.421,1.884 0.906,2.167"
               style="fill:url(#linearGradient424344);stroke:none"
               id="path424352"
               inkscape:connector-curvature="0" /></g></g></g></g><g
       transform="matrix(7.6856627,0,0,-7.6856627,-0.0992189,46.032635)"
       id="g424354"><g
         id="g424356"><g
           id="g424362"><g
             id="g424364"><path
               d="m 34.039,5.787 0.06,0 c 0.028,0 0.058,0 0.087,-0.008 l 0,0 C 34.56,5.738 34.595,5.665 34.595,5.342 l 0,0 0,-2.592 c 0,-0.324 -0.035,-0.396 -0.409,-0.435 l 0,0 -0.017,-0.004 C 34.155,2.306 34.126,2.306 34.099,2.306 l 0,0 -0.06,0 -0.022,-0.258 0.202,0.016 c 0.03,0.004 0.061,0.006 0.096,0.008 l 0,0 c 0.034,10e-4 0.073,0.003 0.115,0.007 l 0,0 c 0.147,0.016 0.278,0.027 0.36,0.027 l 0,0 0.28,0 c 0.082,0 0.213,-0.011 0.36,-0.027 l 0,0 c 0.042,-0.004 0.08,-0.006 0.115,-0.007 l 0,0 c 0.035,-0.002 0.066,-0.004 0.1,-0.008 l 0,0 0.195,-0.016 -0.016,0.258 -0.062,0 c -0.028,0 -0.057,0 -0.088,0.009 l 0,0 C 35.3,2.354 35.266,2.426 35.266,2.75 l 0,0 0,0.941 0.457,0 C 35.826,3.652 35.869,3.624 35.89,3.603 l 0,0 C 35.915,3.582 35.964,3.532 36.034,3.46 l 0,0 c 0.042,-0.043 0.09,-0.092 0.147,-0.15 l 0,0 c 0.48,-0.522 0.846,-0.888 1.407,-1.327 l 0,0 C 38.045,1.634 38.741,1.219 39.46,1.219 l 0,0 c 0.506,0 0.918,0.144 0.999,0.349 l 0,0 0.059,0.15 -0.147,-0.065 C 40.205,1.582 40.013,1.549 39.785,1.549 l 0,0 c -0.198,0 -0.388,0.03 -0.567,0.09 l 0,0 c -0.432,0.153 -0.867,0.467 -1.154,0.702 l 0,0 C 37.78,2.585 37.568,2.805 37.299,3.083 l 0,0 c -0.08,0.08 -0.163,0.167 -0.254,0.259 l 0,0 c -0.236,0.25 -0.428,0.441 -0.553,0.55 l 0,0 c 0.459,0.219 0.75,0.642 0.75,1.1 l 0,0 c 0,0.602 -0.591,1.022 -1.438,1.022 l 0,0 c -0.238,0 -0.444,-0.006 -0.6,-0.011 l 0,0 C 35.108,5.999 35.032,5.998 34.967,5.998 l 0,0 C 34.912,5.987 34.874,5.987 34.85,5.987 l 0,0 -0.001,0 -0.059,0 c -0.075,0 -0.203,0.011 -0.36,0.027 l 0,0 c -0.04,0.003 -0.075,0.004 -0.108,0.008 l 0,0 C 34.284,6.024 34.25,6.025 34.214,6.03 l 0,0 -0.197,0.014 0.022,-0.257 z m 1.227,-0.292 c 0,0.198 0,0.198 0.343,0.198 l 0,0 c 0.57,0 0.954,-0.336 0.954,-0.838 l 0,0 c 0,-0.391 -0.227,-0.699 -0.625,-0.845 l 0,0 -0.672,0 0,1.485 z"
               style="fill:url(#linearGradient424366);stroke:none"
               id="path424374"
               inkscape:connector-curvature="0" /></g></g></g></g><g
       transform="matrix(7.6856627,0,0,-7.6856627,-0.0992189,46.032635)"
       id="g424376"><g
         id="g424378"><g
           id="g424384"><g
             id="g424386"><path
               d="M 40.112,6.03 C 40.026,6.027 39.938,6.018 39.85,6.01 l 0,0 C 39.74,5.999 39.634,5.987 39.536,5.987 l 0,0 -0.282,0 c -0.097,0 -0.174,0 -0.228,0.011 l 0,0 c -0.035,0.005 -0.088,0.009 -0.16,0.016 l 0,0 C 38.814,6.017 38.754,6.024 38.68,6.03 l 0,0 -0.195,0.014 0.018,-0.252 0.147,-0.013 C 39.02,5.74 39.06,5.656 39.06,5.342 l 0,0 0,-2.592 c 0,-0.324 -0.035,-0.396 -0.41,-0.435 l 0,0 -0.147,-0.016 -0.019,-0.251 0.194,0.016 c 0.089,0.003 0.179,0.011 0.268,0.02 l 0,0 c 0.109,0.01 0.212,0.022 0.308,0.022 l 0,0 0.282,0 c 0.098,0 0.175,0 0.229,-0.009 l 0,0 c 0.041,-0.005 0.104,-0.012 0.194,-0.019 l 0,0 0.348,-0.03 L 40.288,2.3 40.139,2.315 C 39.77,2.353 39.73,2.438 39.73,2.75 l 0,0 0,2.592 c 0,0.323 0.036,0.396 0.408,0.437 l 0,0 0.15,0.013 0.019,0.252 -0.195,-0.014 z"
               style="fill:url(#linearGradient424388);stroke:none"
               id="path424396"
               inkscape:connector-curvature="0" /></g></g></g></g></g></svg>