<?xml version="1.0" encoding="UTF-8" standalone="no"?>
<svg
   xmlns:dc="http://purl.org/dc/elements/1.1/"
   xmlns:cc="http://creativecommons.org/ns#"
   xmlns:rdf="http://www.w3.org/1999/02/22-rdf-syntax-ns#"
   xmlns:svg="http://www.w3.org/2000/svg"
   xmlns="http://www.w3.org/2000/svg"
   width="235pt"
   height="235pt"
   viewBox="0 0 235 235"
   version="1.1"
   id="svg3355">
  <metadata
     id="metadata3424">
    <rdf:RDF>
      <cc:Work
         rdf:about="">
        <dc:format>image/svg+xml</dc:format>
        <dc:type
           rdf:resource="http://purl.org/dc/dcmitype/StillImage" />
        <dc:title></dc:title>
      </cc:Work>
    </rdf:RDF>
  </metadata>
  <defs
     id="defs3422" />
  <g
     transform="translate(39.167477,-0.55105123)"
     id="g3776">
    <path
       style="fill:#1c1c19;fill-opacity:1;fill-rule:nonzero;stroke:none"
       d="M 97.952447,83.383347 C 96.003227,72.199753 69.194627,24.094284 69.194627,24.094284 l -2.48046,3.375 -3.01954,-7.277343 -11.00781,14.910156 18.28516,31.953125 c 0,0 -24.67188,-0.769531 -32.30469,-0.949219 -7.63672,-0.175781 -14.07031,7.871094 -11.58594,12.484375 8.875,-0.53125 61.64453,3.730469 70.8711,4.792969"
       id="path3358" />
    <path
       style="fill:#1c1c19;fill-opacity:1;fill-rule:nonzero;stroke:none"
       d="m 142.03448,183.62945 -10.76563,-36.03125 -12.12109,0.30078 C 108.47198,109.01226 98.307917,85.227097 98.307917,85.227097 c 0,0 -53.64844,-5.152344 -72.53907,-5.582032 2.14844,6.4375 6.44141,8.585938 9.875,9.441407 3.4336,0.859375 37.33985,6.871093 54.51172,9.875 4.73828,10.156258 11.812503,29.496098 18.648443,49.195318 l -0.004,0 c 0,0 3.56641,11.10156 4.41407,35.47266 16.21093,6.04687 17.84765,24.01562 17.84765,24.01562 0.19531,0.91406 0.98828,1.67578 1.875,1.89063 l -4.2539,-20.27735 c -0.98829,-0.22265 -1.86719,-1.0625 -2.07813,-2.07031 -0.25,-1.17969 0.50781,-2.13672 1.69141,-2.13672 1.17578,0 2.33203,0.95703 2.58203,2.13672 0.21094,1.00781 -0.32031,1.84766 -1.21094,2.07031 l 4.25391,20.26953 c 0.78906,-0.22265 1.24609,-0.97656 1.05468,-1.88281 0,-0.004 -0.004,-0.008 -0.004,-0.0156 -4.26563,-18.66797 7.0625,-24 7.0625,-24"
       id="path3360" />
    <path
       style="fill:#1c1c19;fill-opacity:1;fill-rule:nonzero;stroke:none"
       d="m 60.968067,1.1020966 c 0,0 26.14844,53.3476564 40.101563,82.2812504 2.85157,0.261718 18.00782,1.242187 40.08985,8.273437 0.3164,-8.628906 -6.58594,-9.570312 -6.58594,-9.570312 L 114.65557,77.539597 90.499317,24.055222 Z m 0,0"
       id="path3362" />
    <path
       style="fill:#6e6e6e;fill-opacity:1;fill-rule:nonzero;stroke:none"
       d="m 143.37823,107.9771 0,-14.164066 c 0,0 -18.88672,-6.441406 -40.34766,-8.15625 1.65235,4.03125 7.78125,28.785166 15.02344,53.722666 0.96484,3.3164 1.90234,6.75 2.81641,10.22265 1.58984,6.51953 7.14453,29.66016 7.42578,35.44922 1.17578,0 2.33203,0.95703 2.57812,2.13672 0.21485,1.00781 -0.3125,1.85156 -1.21094,2.07031 l 4.25782,20.26953 c 0.78515,-0.22265 1.24609,-0.97656 1.05468,-1.88281 0,-0.004 0,-0.008 0,-0.0156 -4.27343,-18.66797 7.05469,-24 7.05469,-24 l -11.01953,-37.63672 c -3.72266,-23.16797 -7.80859,-38.875 -7.80859,-38.875 z m 0,0"
       id="path3364" />
    <path
       style="fill:#6e6e6e;fill-opacity:1;fill-rule:nonzero;stroke:none"
       d="m 33.694627,83.383347 c -6.21484,2.664062 -4.4375,8.167968 -4.4375,8.167968 l 73.773443,8.957025 -6.496093,-13.667962 c 0,0 -56.625,-6.117187 -62.83985,-3.457031"
       id="path3366" />
    <path
       style="fill:#6e6e6e;fill-opacity:1;fill-rule:nonzero;stroke:none"
       d="M 93.362597,82.918503 C 91.721977,73.934128 66.714167,27.469284 66.714167,27.469284 l -3.01954,-7.277343 -11.00781,14.910156 27.16406,46.257812 c 0,0 8.77344,1.128906 13.51172,1.558594"
       id="path3368" />
    <path
       style="fill:#ffffff;fill-opacity:1;fill-rule:nonzero;stroke:none"
       d="M 60.968067,1.1020966 C 115.58526,82.715378 129.03448,185.18413 129.03448,185.18413 l -0.74219,-0.13281 C 108.8001,97.414597 69.198537,24.098191 69.198537,24.098191 Z m 0,0"
       id="path3370" />
    <path
       style="fill:#ffffff;fill-opacity:1;fill-rule:nonzero;stroke:none"
       d="m 25.768847,79.645065 c 0,0 80.816413,4.285157 117.609383,14.167969 0.19531,-2.085937 -2.21875,-2.160156 -2.21875,-2.160156 0,0 -29.05469,-12.375 -115.390633,-12.007813"
       id="path3372" />
    <path
       style="fill:#1c1c19;fill-opacity:1;fill-rule:evenodd;stroke:none"
       d="m 132.88995,209.29742 c 6.61328,1.71875 11.9375,3.01562 18.36328,5.48437 2.23437,0.85938 5.65234,2.625 5.39844,3.87891 -0.45704,2.26953 -3.75391,3.16406 -7.20313,3.26172 -2.71875,0.0781 -6.95312,-0.0625 -9.82812,-0.36719 -9.38672,-0.98438 -18.74219,-2.1211 -28.07422,-3.28125 -21.023443,-2.6211 -72.039073,-5.67578 -93.066413,-8.53125 -5.46484,-0.74219 -9.1210899,-0.16797 -9.7539099,1.1875 -0.30468,1.125 3.1132899,3.5039 5.5039099,4.75781 2.80078,1.46875 6.33203,2.6875 9.90234,3.47266 10.02735,2.20312 20.375,3.92968 30.30079,6.26562 3.40234,0.80078 7.47265,2.41406 8.42187,4.40625 0.98047,2.07031 -1.51562,4.38672 -3.70312,4.82031 -3.27735,0.64844 -8.55469,0.38282 -11.41407,-0.75 -13.52734,-5.37109 -23.34375,-8.9375 -36.45703,-14.6289 -2.1171899,-0.92188 -7.4882799,-4.23828 -8.6992199,-5.52735 -1.42968,-1.52343 -3.29686998,-3.73046 -2.30077998,-4.90625 0.98437998,-1.16796 5.23437998,-1.92187 8.14062998,-1.96875 5.6054699,-0.0859 11.3788999,0.13672 16.8945299,0.79688 22.8125,2.71875 75.507813,6.46094 98.343753,9.12109 7.95703,0.92969 16.16797,1.08594 24.26562,1.59375 2.13672,-0.0742 2.60547,-1.30078 1.14453,-2.07812 -4.04296,-2.17969 -7.33203,-3.6875 -12.59375,-5.33594 -1.55468,-0.48437 -3.0625,-1.0625 -4.6289,-1.50781"
       id="path3396" />
    <path
       style="fill:#1c1c19;fill-opacity:1;fill-rule:nonzero;stroke:none"
       d="m 110.55792,91.652878 34.96875,5.222656 -1.06641,15.441416 -21.25781,-5.19922 z m 0,0"
       id="path3398" />
  </g>
</svg>
