<?xml version="1.0" encoding="UTF-8" standalone="no"?>
<!-- Created with Inkscape (http://www.inkscape.org/) -->

<svg
   xmlns:dc="http://purl.org/dc/elements/1.1/"
   xmlns:cc="http://creativecommons.org/ns#"
   xmlns:rdf="http://www.w3.org/1999/02/22-rdf-syntax-ns#"
   xmlns:svg="http://www.w3.org/2000/svg"
   xmlns="http://www.w3.org/2000/svg"
   xmlns:sodipodi="http://sodipodi.sourceforge.net/DTD/sodipodi-0.dtd"
   xmlns:inkscape="http://www.inkscape.org/namespaces/inkscape"
   id="svg423794"
   version="1.1"
   inkscape:version="0.91 r13725"
   xml:space="preserve"
   width="59.716942mm"
   height="89.356255mm"
   viewBox="0 0 211.59547 316.61665"
   sodipodi:docname="vc_sembol_renkli.svg"
   style="enable-background:new"><metadata
     id="metadata423800"><rdf:RDF><cc:Work
         rdf:about=""><dc:format>image/svg+xml</dc:format><dc:type
           rdf:resource="http://purl.org/dc/dcmitype/StillImage" /><dc:title></dc:title></cc:Work></rdf:RDF></metadata><defs
     id="defs423798"><linearGradient
       x1="0"
       y1="0"
       x2="1"
       y2="0"
       gradientUnits="userSpaceOnUse"
       gradientTransform="matrix(-17.870222,28.413605,28.413605,17.870222,61.503716,12.810643)"
       spreadMethod="pad"
       id="linearGradient423816"><stop
         style="stop-opacity:1;stop-color:#9b161b"
         offset="0"
         id="stop423818" /><stop
         style="stop-opacity:1;stop-color:#ed1c24"
         offset="0.5"
         id="stop423820" /><stop
         style="stop-opacity:1;stop-color:#ad1a1f"
         offset="1"
         id="stop423822" /></linearGradient><linearGradient
       x1="0"
       y1="0"
       x2="1"
       y2="0"
       gradientUnits="userSpaceOnUse"
       gradientTransform="matrix(-6.288547,9.9987726,9.9987726,6.288547,64.751274,10.761317)"
       spreadMethod="pad"
       id="linearGradient423838"><stop
         style="stop-opacity:1;stop-color:#9b161b"
         offset="0"
         id="stop423840" /><stop
         style="stop-opacity:1;stop-color:#ed1c24"
         offset="0.5"
         id="stop423842" /><stop
         style="stop-opacity:1;stop-color:#ad1a1f"
         offset="1"
         id="stop423844" /></linearGradient><linearGradient
       x1="0"
       y1="0"
       x2="1"
       y2="0"
       gradientUnits="userSpaceOnUse"
       gradientTransform="matrix(-17.550281,27.904898,27.904898,17.550281,62.056431,13.802424)"
       spreadMethod="pad"
       id="linearGradient423860"><stop
         style="stop-opacity:1;stop-color:#9b161b"
         offset="0"
         id="stop423862" /><stop
         style="stop-opacity:1;stop-color:#ed1c24"
         offset="0.5"
         id="stop423864" /><stop
         style="stop-opacity:1;stop-color:#ad1a1f"
         offset="1"
         id="stop423866" /></linearGradient><linearGradient
       x1="0"
       y1="0"
       x2="1"
       y2="0"
       gradientUnits="userSpaceOnUse"
       gradientTransform="matrix(-12.373005,24.566791,24.566791,12.373005,59.476261,12.003956)"
       spreadMethod="pad"
       id="linearGradient423882"><stop
         style="stop-opacity:1;stop-color:#ed1c24"
         offset="0"
         id="stop423884" /><stop
         style="stop-opacity:1;stop-color:#f1471d"
         offset="1"
         id="stop423886" /></linearGradient><linearGradient
       x1="0"
       y1="0"
       x2="1"
       y2="0"
       gradientUnits="userSpaceOnUse"
       gradientTransform="matrix(-12.268184,24.358667,24.358667,12.268184,63.049233,14.085836)"
       spreadMethod="pad"
       id="linearGradient423902"><stop
         style="stop-opacity:1;stop-color:#ed1c24"
         offset="0"
         id="stop423904" /><stop
         style="stop-opacity:1;stop-color:#f1471d"
         offset="1"
         id="stop423906" /></linearGradient><clipPath
       clipPathUnits="userSpaceOnUse"
       id="clipPath423914"><path
         d="m 0,45.354 68.031,0 L 68.031,0 0,0 0,45.354 Z"
         id="path423916"
         inkscape:connector-curvature="0" /></clipPath><linearGradient
       x1="0"
       y1="0"
       x2="1"
       y2="0"
       gradientUnits="userSpaceOnUse"
       gradientTransform="matrix(-12.269287,24.360857,24.360857,12.269287,65.705971,15.08988)"
       spreadMethod="pad"
       id="linearGradient423934"><stop
         style="stop-opacity:1;stop-color:#ed1c24"
         offset="0"
         id="stop423936" /><stop
         style="stop-opacity:1;stop-color:#f1471d"
         offset="1"
         id="stop423938" /></linearGradient><clipPath
       clipPathUnits="userSpaceOnUse"
       id="clipPath423946"><path
         d="m 0,45.354 68.031,0 L 68.031,0 0,0 0,45.354 Z"
         id="path423948"
         inkscape:connector-curvature="0" /></clipPath><linearGradient
       x1="0"
       y1="0"
       x2="1"
       y2="0"
       gradientUnits="userSpaceOnUse"
       gradientTransform="matrix(6.9928479,-26.3575,-26.3575,-6.9928479,6.4541926,28.819384)"
       spreadMethod="pad"
       id="linearGradient423970"><stop
         style="stop-opacity:1;stop-color:#9b161b"
         offset="0"
         id="stop423972" /><stop
         style="stop-opacity:1;stop-color:#ed1c24"
         offset="0.5"
         id="stop423974" /><stop
         style="stop-opacity:1;stop-color:#ad1a1f"
         offset="1"
         id="stop423976" /></linearGradient><linearGradient
       x1="0"
       y1="0"
       x2="1"
       y2="0"
       gradientUnits="userSpaceOnUse"
       gradientTransform="matrix(6.9935336,-26.360084,-26.360084,-6.9935336,12.543137,30.428617)"
       spreadMethod="pad"
       id="linearGradient423992"><stop
         style="stop-opacity:1;stop-color:#9b161b"
         offset="0"
         id="stop423994" /><stop
         style="stop-opacity:1;stop-color:#ed1c24"
         offset="0.5"
         id="stop423996" /><stop
         style="stop-opacity:1;stop-color:#ad1a1f"
         offset="1"
         id="stop423998" /></linearGradient><linearGradient
       x1="0"
       y1="0"
       x2="1"
       y2="0"
       gradientUnits="userSpaceOnUse"
       gradientTransform="matrix(6.9939127,-26.361513,-26.361513,-6.9939127,18.488403,32.012974)"
       spreadMethod="pad"
       id="linearGradient424014"><stop
         style="stop-opacity:1;stop-color:#9b161b"
         offset="0"
         id="stop424016" /><stop
         style="stop-opacity:1;stop-color:#ed1c24"
         offset="0.5"
         id="stop424018" /><stop
         style="stop-opacity:1;stop-color:#ad1a1f"
         offset="1"
         id="stop424020" /></linearGradient><linearGradient
       x1="0"
       y1="0"
       x2="1"
       y2="0"
       gradientUnits="userSpaceOnUse"
       gradientTransform="matrix(6.9934964,-26.359943,-26.359943,-6.9934964,2.5937552,27.795639)"
       spreadMethod="pad"
       id="linearGradient424036"><stop
         style="stop-opacity:1;stop-color:#9b161b"
         offset="0"
         id="stop424038" /><stop
         style="stop-opacity:1;stop-color:#ed1c24"
         offset="0.5"
         id="stop424040" /><stop
         style="stop-opacity:1;stop-color:#ad1a1f"
         offset="1"
         id="stop424042" /></linearGradient><linearGradient
       x1="0"
       y1="0"
       x2="1"
       y2="0"
       gradientUnits="userSpaceOnUse"
       gradientTransform="matrix(6.9934955,-26.35994,-26.35994,-6.9934955,10.044999,29.772285)"
       spreadMethod="pad"
       id="linearGradient424058"><stop
         style="stop-opacity:1;stop-color:#9b161b"
         offset="0"
         id="stop424060" /><stop
         style="stop-opacity:1;stop-color:#ed1c24"
         offset="0.5"
         id="stop424062" /><stop
         style="stop-opacity:1;stop-color:#ad1a1f"
         offset="1"
         id="stop424064" /></linearGradient><linearGradient
       x1="0"
       y1="0"
       x2="1"
       y2="0"
       gradientUnits="userSpaceOnUse"
       gradientTransform="matrix(6.9935632,-26.360197,-26.360197,-6.9935632,19.236172,32.211002)"
       spreadMethod="pad"
       id="linearGradient424080"><stop
         style="stop-opacity:1;stop-color:#9b161b"
         offset="0"
         id="stop424082" /><stop
         style="stop-opacity:1;stop-color:#ed1c24"
         offset="0.5"
         id="stop424084" /><stop
         style="stop-opacity:1;stop-color:#ad1a1f"
         offset="1"
         id="stop424086" /></linearGradient><linearGradient
       x1="0"
       y1="0"
       x2="1"
       y2="0"
       gradientUnits="userSpaceOnUse"
       gradientTransform="matrix(6.9934597,-26.359806,-26.359806,-6.9934597,23.907682,33.449963)"
       spreadMethod="pad"
       id="linearGradient424102"><stop
         style="stop-opacity:1;stop-color:#9b161b"
         offset="0"
         id="stop424104" /><stop
         style="stop-opacity:1;stop-color:#ed1c24"
         offset="0.5"
         id="stop424106" /><stop
         style="stop-opacity:1;stop-color:#ad1a1f"
         offset="1"
         id="stop424108" /></linearGradient><linearGradient
       x1="0"
       y1="0"
       x2="1"
       y2="0"
       gradientUnits="userSpaceOnUse"
       gradientTransform="matrix(6.9937177,-26.360777,-26.360777,-6.9937177,28.206898,34.591404)"
       spreadMethod="pad"
       id="linearGradient424124"><stop
         style="stop-opacity:1;stop-color:#9b161b"
         offset="0"
         id="stop424126" /><stop
         style="stop-opacity:1;stop-color:#ed1c24"
         offset="0.5"
         id="stop424128" /><stop
         style="stop-opacity:1;stop-color:#ad1a1f"
         offset="1"
         id="stop424130" /></linearGradient><linearGradient
       x1="0"
       y1="0"
       x2="1"
       y2="0"
       gradientUnits="userSpaceOnUse"
       gradientTransform="matrix(6.9930696,-26.358335,-26.358335,-6.9930696,35.486622,36.520508)"
       spreadMethod="pad"
       id="linearGradient424146"><stop
         style="stop-opacity:1;stop-color:#9b161b"
         offset="0"
         id="stop424148" /><stop
         style="stop-opacity:1;stop-color:#ed1c24"
         offset="0.5"
         id="stop424150" /><stop
         style="stop-opacity:1;stop-color:#ad1a1f"
         offset="1"
         id="stop424152" /></linearGradient><linearGradient
       x1="0"
       y1="0"
       x2="1"
       y2="0"
       gradientUnits="userSpaceOnUse"
       gradientTransform="matrix(6.9940472,-26.36202,-26.36202,-6.9940472,43.224129,38.576656)"
       spreadMethod="pad"
       id="linearGradient424168"><stop
         style="stop-opacity:1;stop-color:#9b161b"
         offset="0"
         id="stop424170" /><stop
         style="stop-opacity:1;stop-color:#ed1c24"
         offset="0.5"
         id="stop424172" /><stop
         style="stop-opacity:1;stop-color:#ad1a1f"
         offset="1"
         id="stop424174" /></linearGradient><linearGradient
       x1="0"
       y1="0"
       x2="1"
       y2="0"
       gradientUnits="userSpaceOnUse"
       gradientTransform="matrix(6.9937267,-26.360813,-26.360813,-6.9937267,48.425324,39.955646)"
       spreadMethod="pad"
       id="linearGradient424190"><stop
         style="stop-opacity:1;stop-color:#9b161b"
         offset="0"
         id="stop424192" /><stop
         style="stop-opacity:1;stop-color:#ed1c24"
         offset="0.5"
         id="stop424194" /><stop
         style="stop-opacity:1;stop-color:#ad1a1f"
         offset="1"
         id="stop424196" /></linearGradient><linearGradient
       x1="0"
       y1="0"
       x2="1"
       y2="0"
       gradientUnits="userSpaceOnUse"
       gradientTransform="matrix(-66.25605,21.264332,21.264332,66.25605,41.09523,-6.2429633)"
       spreadMethod="pad"
       id="linearGradient424212"><stop
         style="stop-opacity:1;stop-color:#9c161c"
         offset="0"
         id="stop424214" /><stop
         style="stop-opacity:1;stop-color:#ed1c24"
         offset="0.5"
         id="stop424216" /><stop
         style="stop-opacity:1;stop-color:#ae1a1f"
         offset="1"
         id="stop424218" /></linearGradient><linearGradient
       x1="0"
       y1="0"
       x2="1"
       y2="0"
       gradientUnits="userSpaceOnUse"
       gradientTransform="matrix(-66.262283,21.266333,21.266333,66.262283,41.112431,-6.2038846)"
       spreadMethod="pad"
       id="linearGradient424234"><stop
         style="stop-opacity:1;stop-color:#9c161c"
         offset="0"
         id="stop424236" /><stop
         style="stop-opacity:1;stop-color:#ed1c24"
         offset="0.5"
         id="stop424238" /><stop
         style="stop-opacity:1;stop-color:#ae1a1f"
         offset="1"
         id="stop424240" /></linearGradient><linearGradient
       x1="0"
       y1="0"
       x2="1"
       y2="0"
       gradientUnits="userSpaceOnUse"
       gradientTransform="matrix(-66.272102,21.269485,21.269485,66.272102,41.682236,-4.4429197)"
       spreadMethod="pad"
       id="linearGradient424256"><stop
         style="stop-opacity:1;stop-color:#9c161c"
         offset="0"
         id="stop424258" /><stop
         style="stop-opacity:1;stop-color:#ed1c24"
         offset="0.5"
         id="stop424260" /><stop
         style="stop-opacity:1;stop-color:#ae1a1f"
         offset="1"
         id="stop424262" /></linearGradient><linearGradient
       x1="0"
       y1="0"
       x2="1"
       y2="0"
       gradientUnits="userSpaceOnUse"
       gradientTransform="matrix(-66.280304,21.272118,21.272118,66.280304,41.958347,-3.5921836)"
       spreadMethod="pad"
       id="linearGradient424278"><stop
         style="stop-opacity:1;stop-color:#9c161c"
         offset="0"
         id="stop424280" /><stop
         style="stop-opacity:1;stop-color:#ed1c24"
         offset="0.5"
         id="stop424282" /><stop
         style="stop-opacity:1;stop-color:#ae1a1f"
         offset="1"
         id="stop424284" /></linearGradient><linearGradient
       x1="0"
       y1="0"
       x2="1"
       y2="0"
       gradientUnits="userSpaceOnUse"
       gradientTransform="matrix(-66.262573,21.266426,21.266426,66.262573,42.330147,-2.4123302)"
       spreadMethod="pad"
       id="linearGradient424300"><stop
         style="stop-opacity:1;stop-color:#9c161c"
         offset="0"
         id="stop424302" /><stop
         style="stop-opacity:1;stop-color:#ed1c24"
         offset="0.5"
         id="stop424304" /><stop
         style="stop-opacity:1;stop-color:#ae1a1f"
         offset="1"
         id="stop424306" /></linearGradient><linearGradient
       x1="0"
       y1="0"
       x2="1"
       y2="0"
       gradientUnits="userSpaceOnUse"
       gradientTransform="matrix(-66.260475,21.265753,21.265753,66.260475,42.700375,-1.2570066)"
       spreadMethod="pad"
       id="linearGradient424322"><stop
         style="stop-opacity:1;stop-color:#9c161c"
         offset="0"
         id="stop424324" /><stop
         style="stop-opacity:1;stop-color:#ed1c24"
         offset="0.5"
         id="stop424326" /><stop
         style="stop-opacity:1;stop-color:#ae1a1f"
         offset="1"
         id="stop424328" /></linearGradient><linearGradient
       x1="0"
       y1="0"
       x2="1"
       y2="0"
       gradientUnits="userSpaceOnUse"
       gradientTransform="matrix(-66.271545,21.269306,21.269306,66.271545,43.075184,-0.0976569)"
       spreadMethod="pad"
       id="linearGradient424344"><stop
         style="stop-opacity:1;stop-color:#9c161c"
         offset="0"
         id="stop424346" /><stop
         style="stop-opacity:1;stop-color:#ed1c24"
         offset="0.5"
         id="stop424348" /><stop
         style="stop-opacity:1;stop-color:#ae1a1f"
         offset="1"
         id="stop424350" /></linearGradient><linearGradient
       x1="0"
       y1="0"
       x2="1"
       y2="0"
       gradientUnits="userSpaceOnUse"
       gradientTransform="matrix(-66.267815,21.268106,21.268106,66.267815,43.529667,1.3207406)"
       spreadMethod="pad"
       id="linearGradient424366"><stop
         style="stop-opacity:1;stop-color:#9c161c"
         offset="0"
         id="stop424368" /><stop
         style="stop-opacity:1;stop-color:#ed1c24"
         offset="0.5"
         id="stop424370" /><stop
         style="stop-opacity:1;stop-color:#ae1a1f"
         offset="1"
         id="stop424372" /></linearGradient><linearGradient
       x1="0"
       y1="0"
       x2="1"
       y2="0"
       gradientUnits="userSpaceOnUse"
       gradientTransform="matrix(-66.273437,21.269911,21.269911,66.273437,43.93692,2.588243)"
       spreadMethod="pad"
       id="linearGradient424388"><stop
         style="stop-opacity:1;stop-color:#9c161c"
         offset="0"
         id="stop424390" /><stop
         style="stop-opacity:1;stop-color:#ed1c24"
         offset="0.5"
         id="stop424392" /><stop
         style="stop-opacity:1;stop-color:#ae1a1f"
         offset="1"
         id="stop424394" /></linearGradient><clipPath
       clipPathUnits="userSpaceOnUse"
       id="clipPath423946-2"><path
         d="m 0,45.354 68.031,0 L 68.031,0 0,0 0,45.354 Z"
         id="path423948-6"
         inkscape:connector-curvature="0" /></clipPath><clipPath
       clipPathUnits="userSpaceOnUse"
       id="clipPath423914-6"><path
         d="m 0,45.354 68.031,0 L 68.031,0 0,0 0,45.354 Z"
         id="path423916-3"
         inkscape:connector-curvature="0" /></clipPath><clipPath
       clipPathUnits="userSpaceOnUse"
       id="clipPath423914-6-6"><path
         d="m 0,45.354 68.031,0 L 68.031,0 0,0 0,45.354 Z"
         id="path423916-3-8"
         inkscape:connector-curvature="0" /></clipPath><clipPath
       clipPathUnits="userSpaceOnUse"
       id="clipPath423946-2-4"><path
         d="m 0,45.354 68.031,0 L 68.031,0 0,0 0,45.354 Z"
         id="path423948-6-8"
         inkscape:connector-curvature="0" /></clipPath></defs><sodipodi:namedview
     pagecolor="#ffffff"
     bordercolor="#666666"
     borderopacity="1"
     objecttolerance="10"
     gridtolerance="10"
     guidetolerance="10"
     inkscape:pageopacity="0"
     inkscape:pageshadow="2"
     inkscape:window-width="1920"
     inkscape:window-height="1080"
     id="namedview423796"
     showgrid="false"
     inkscape:zoom="2.3698364"
     inkscape:cx="-50.609267"
     inkscape:cy="131.30169"
     inkscape:window-x="0"
     inkscape:window-y="0"
     inkscape:window-maximized="1"
     inkscape:current-layer="layer7"
     units="mm"
     fit-margin-bottom="0.2"
     fit-margin-top="0"
     fit-margin-left="0"
     fit-margin-right="0" /><g
     inkscape:groupmode="layer"
     id="layer7"
     inkscape:label="cross"
     style="display:inline"
     transform="translate(-306.53411,295.32531)"
     sodipodi:insensitive="true"><g
       style="display:inline"
       transform="matrix(7.6856627,0,0,-7.6856627,-0.09921907,46.032634)"
       id="g423804"><g
         id="g423806"><g
           id="g423812"><g
             id="g423814"><path
               d="m 46.161,28.953 c 0.603,-0.151 6.562,-1.207 9.579,-1.735 l 0,0 c 0.833,-1.784 2.076,-5.183 3.278,-8.646 l 0,0 c 0,0 0.626,-1.951 0.774,-6.233 l 0,0 C 62.643,11.275 62.93,8.118 62.93,8.118 l 0,0 c 0.034,-0.16 0.173,-0.293 0.329,-0.332 l 0,0 -0.748,3.564 c -0.173,0.039 -0.329,0.186 -0.365,0.364 l 0,0 c -0.044,0.207 0.089,0.374 0.296,0.374 l 0,0 c -1.452,6.53 -3.539,12.603 -5.462,17.437 l 0,0 c -6.161,0.747 -12.554,1.088 -12.554,1.088 l 0,0 c 0.377,-1.133 1.132,-1.51 1.735,-1.66"
               style="fill:url(#linearGradient423816);stroke:none"
               id="path423824"
               inkscape:connector-curvature="0" /></g></g></g></g><g
       style="display:inline"
       transform="matrix(7.6856627,0,0,-7.6856627,-0.09921907,46.032634)"
       id="g423826"><g
         id="g423828"><g
           id="g423834"><g
             id="g423836"><path
               d="m 61.291,18.629 c 0.927,-3.929 1.272,-6.497 1.28,-6.562 l 0,0 c 0.157,-0.051 0.291,-0.19 0.326,-0.353 l 0,0 c 0.037,-0.178 -0.056,-0.325 -0.214,-0.364 l 0,0 0.749,-3.561 c 0.137,0.038 0.218,0.17 0.186,0.329 l 0,0 c 0,0 -0.001,10e-4 -0.001,0.003 l 0,0 c -0.75,3.28 1.239,4.218 1.239,4.218 l 0,0 -1.89,6.332 -1.675,-0.042 z m 1.281,-6.564 c 0,0 0,0.001 -0.001,0.002 l 0,0 c -0.042,0.013 -0.085,0.021 -0.129,0.021 l 0,0 0.13,-0.023 z"
               style="fill:url(#linearGradient423838);stroke:none"
               id="path423846"
               inkscape:connector-curvature="0" /></g></g></g></g><g
       style="display:inline"
       transform="matrix(7.6856627,0,0,-7.6856627,-0.09921907,46.032634)"
       id="g423848"><g
         id="g423850"><g
           id="g423856"><g
             id="g423858"><path
               d="m 49.156,38.441 3.214,-5.615 c 0,0 -4.336,0.134 -5.678,0.166 l 0,0 c -1.341,0.031 -2.473,-1.382 -2.036,-2.195 l 0,0 c 0.75,0.046 3.283,-0.104 5.892,-0.293 l 0,0 c 2.419,-0.099 4.488,-0.259 6.22,-0.448 l 0,0 c -2.524,6.27 -4.711,10.317 -4.711,10.317 l 0,0 -0.437,-0.59 -0.53,1.278 -1.934,-2.62 z"
               style="fill:url(#linearGradient423860);stroke:none"
               id="path423868"
               inkscape:connector-curvature="0" /></g></g></g></g><g
       style="display:inline"
       transform="matrix(7.6856627,0,0,-7.6856627,-0.09921907,46.032634)"
       id="g423870"><g
         id="g423872"><g
           id="g423878"><g
             id="g423880"><path
               d="m 45.819,29.956 c -1.093,-0.468 -0.781,-1.435 -0.781,-1.435 l 0,0 12.964,-1.576 -1.141,2.403 c 0,0 -6.715,0.725 -9.718,0.725 l 0,0 c -0.652,0 -1.129,-0.034 -1.324,-0.117"
               style="fill:url(#linearGradient423882);stroke:none"
               id="path423888"
               inkscape:connector-curvature="0" /></g></g></g></g><g
       style="display:inline"
       transform="matrix(7.6856627,0,0,-7.6856627,-0.09921907,46.032634)"
       id="g423890"><g
         id="g423892"><g
           id="g423898"><g
             id="g423900"><path
               d="m 49.156,38.441 4.775,-8.13 c 0,0 1.462,-0.122 2.294,-0.198 l 0,0 c -0.288,1.579 -4.605,9.67 -4.605,9.67 l 0,0 -0.53,1.278 -1.934,-2.62 z"
               style="fill:url(#linearGradient423902);stroke:none"
               id="path423908"
               inkscape:connector-curvature="0" /></g></g></g></g><g
       style="display:inline"
       transform="matrix(7.6856627,0,0,-7.6856627,-0.09921907,46.032634)"
       id="g423910"><g
         id="g423912"
         clip-path="url(#clipPath423914-6-6)"><g
           id="g423918"
           transform="translate(63.2497,7.8273)"><path
             d="M 0,0 C 1.163,-0.301 2.099,-0.529 3.228,-0.963 3.62,-1.114 4.22,-1.424 4.176,-1.646 4.096,-2.043 3.517,-2.201 2.91,-2.218 2.433,-2.231 1.689,-2.207 1.185,-2.153 c -1.651,0.173 -3.294,0.373 -4.935,0.577 -3.695,0.46 -12.659,0.997 -16.356,1.498 -0.959,0.131 -1.602,0.03 -1.713,-0.208 -0.053,-0.197 0.547,-0.615 0.966,-0.835 0.493,-0.26 1.113,-0.473 1.742,-0.611 1.761,-0.387 3.58,-0.691 5.325,-1.102 0.597,-0.14 1.312,-0.425 1.479,-0.773 0.173,-0.365 -0.266,-0.772 -0.651,-0.848 -0.576,-0.114 -1.503,-0.067 -2.006,0.132 -2.376,0.943 -4.101,1.57 -6.406,2.571 -0.371,0.162 -1.316,0.744 -1.528,0.971 -0.253,0.267 -0.58,0.656 -0.406,0.862 0.174,0.206 0.92,0.338 1.431,0.346 0.985,0.014 2,-0.024 2.969,-0.139 4.009,-0.478 13.27,-1.137 17.282,-1.604 1.399,-0.163 2.842,-0.19 4.265,-0.28 0.375,0.013 0.458,0.229 0.201,0.366 -0.711,0.382 -1.289,0.647 -2.213,0.936 -0.273,0.086 -0.537,0.188 -0.815,0.266"
             style="fill:#9b161b;fill-opacity:1;fill-rule:evenodd;stroke:none"
             id="path423920"
             inkscape:connector-curvature="0" /></g></g></g><g
       style="display:inline"
       transform="matrix(7.6856627,0,0,-7.6856627,-0.09921907,46.032634)"
       id="g423922"><g
         id="g423924"><g
           id="g423930"><g
             id="g423932"><path
               d="m 62.571,12.067 c 0.157,-0.051 0.291,-0.19 0.326,-0.353 l 0,0 c 0.037,-0.178 -0.056,-0.325 -0.214,-0.364 l 0,0 0.749,-3.561 c 0.137,0.038 0.218,0.17 0.186,0.329 l 0,0 c 0,0 -0.001,10e-4 -0.001,0.003 l 0,0 c -0.75,3.28 1.239,4.218 1.239,4.218 l 0,0 -1.936,6.613 c -0.654,4.073 -1.372,6.832 -1.372,6.832 l 0,0 3.545,-0.15 0,2.488 c -1.869,0.502 -4.385,0.922 -7.018,1.265 l 0,0 c 3.439,-9.395 4.481,-17.206 4.496,-17.32 m 0.001,-0.002 c 0,0 0,0.001 -0.001,0.002 l 0,0 c -0.042,0.013 -0.085,0.021 -0.129,0.021 l 0,0 0.13,-0.023 z"
               style="fill:url(#linearGradient423934);stroke:none"
               id="path423940"
               inkscape:connector-curvature="0" /></g></g></g></g><g
       style="display:inline"
       transform="matrix(7.6856627,0,0,-7.6856627,-0.09921907,46.032634)"
       id="g423942"><g
         id="g423944"
         clip-path="url(#clipPath423946-2-4)"><g
           id="g423950"
           transform="translate(62.1267,29.2199)"><path
             d="M 0,0 C 1.809,-0.395 2.577,-0.719 2.577,-0.719 2.632,0.799 1.419,0.964 1.419,0.964 l -3.5,0.799 -4.245,9.398 -5.19,4.034 C -8.378,10.507 -6.019,5.431 -4.257,0.717 -3.662,0.665 -2.16,0.519 0,0"
             style="fill:#bf1b2c;fill-opacity:1;fill-rule:nonzero;stroke:none"
             id="path423952"
             inkscape:connector-curvature="0" /></g><g
           id="g423954"
           transform="translate(59.3259,28.5011)"><path
             d="M 0,0 6.146,-0.917 5.958,-3.631 2.223,-2.717 0,0 Z"
             style="fill:#bf1b2c;fill-opacity:1;fill-rule:nonzero;stroke:none"
             id="path423956"
             inkscape:connector-curvature="0" /></g></g></g></g></svg>